<?xml version="1.0" standalone="no"?>
<!DOCTYPE svg PUBLIC "-//W3C//DTD SVG 1.1//EN" "http://www.w3.org/Graphics/SVG/1.1/DTD/svg11.dtd" >
<svg>
<metadata>
Created by FontForge 20090622 at Wed Apr  4 06:15:36 2018
 By deploy user
Copyright &#194;&#169; 2008 - 2009 Linotype GmbH, www.linotype.com. All rights reserved. This font software may not be reproduced, modified, disclosed or transferred without the express written approval of Linotype GmbH.
</metadata>
<defs>
<font id="DINNextLTPro-MediumCond" horiz-adv-x="398" >
  <font-face 
    font-family="DIN Next LT Pro Medium Cond"
    font-weight="500"
    font-stretch="condensed"
    units-per-em="1000"
    panose-1="2 11 6 6 2 2 3 5 2 3"
    ascent="750"
    descent="-250"
    x-height="482"
    cap-height="680"
    bbox="-92.6923 -221 872 902"
    underline-thickness="50"
    underline-position="-50"
    unicode-range="U+0020-U+FB04"
  />
<missing-glyph horiz-adv-x="388" 
d="M0 10v660q0 10 10 10h368q10 0 10 -10v-660q0 -10 -10 -10h-368q-10 0 -10 10zM59 61q0 -6 6 -6h259q6 0 6 6v558q0 6 -6 6h-259q-6 0 -6 -6v-558zM168 224q-10 0 -10 10v46q0 21 13 44l36 67q17 31 17 64q0 19 -3 28q-7 20 -30 20q-22 0 -29 -20q-3 -9 -3 -41
q0 -10 -11 -8l-46 4q-9 2 -9 11q0 35 6 53q9 28 34 44.5t59 16.5t59.5 -16.5t34.5 -44.5q6 -18 6 -44q0 -43 -21 -79l-35 -67q-10 -20 -10 -36v-42q0 -10 -10 -10h-48zM158 124v58q0 10 10 10h48q10 0 10 -10v-58q0 -10 -10 -10h-48q-10 0 -10 10z" />
    <glyph glyph-name="IJ" unicode="IJ" horiz-adv-x="567" 
d="M53 10v660q0 10 10 10h87q10 0 10 -10v-660q0 -10 -10 -10h-87q-10 0 -10 10zM229 36q-6 8 1 14l59 54q7 6 15 -1q17 -15 40 -15q65 0 65 79v503q0 10 10 10h87q10 0 10 -10v-494q0 -94 -46.5 -139.5t-128.5 -45.5q-76 0 -112 45z" />
    <glyph glyph-name="ij" unicode="ij" horiz-adv-x="408" 
d="M143 574h-82q-10 0 -10 10v86q0 10 10 10h82q10 0 10 -10v-86q0 -10 -10 -10zM143 0h-82q-10 0 -10 10v462q0 10 10 10h82q10 0 10 -10v-462q0 -10 -10 -10zM347 574h-82q-10 0 -10 10v86q0 10 10 10h82q10 0 10 -10v-86q0 -10 -10 -10zM215 -180h-15q-10 0 -10 10v72
q0 10 10 10l14 1q22 2 31.5 13.5t9.5 42.5v503q0 10 10 10h82q10 0 10 -10v-508q0 -73 -34 -108.5t-108 -35.5z" />
    <glyph glyph-name="napostrophe" unicode="&#x22;n" horiz-adv-x="405" 
d="M-7 511q-9 0 -9 9v150q0 10 10 10h69q10 0 10 -10v-57q0 -12 -7 -22l-60 -73q-6 -7 -13 -7zM348 0h-82q-10 0 -10 10v317q0 70 -52 70q-51 0 -51 -70v-317q0 -10 -10 -10h-82q-10 0 -10 10v462q0 10 10 10h82q10 0 10 -10v-38h1q29 57 92 57q112 0 112 -150v-331
q0 -10 -10 -10z" />
    <glyph glyph-name="f_f" unicode="ff" horiz-adv-x="512" 
d="M160 0h-82q-10 0 -10 10v388q0 6 -6 6h-29q-10 0 -10 10v58q0 10 10 10h29q6 0 6 6v41q0 151 143 151h21q10 0 10 -10v-74q0 -10 -10 -10h-25q-21 0 -29 -8.5t-8 -29.5v-60q0 -6 6 -6h56q10 0 10 -10v-58q0 -10 -10 -10h-56q-6 0 -6 -6v-388q0 -10 -10 -10zM416 0h-82
q-10 0 -10 10v388q0 6 -6 6h-29q-10 0 -10 10v58q0 10 10 10h29q6 0 6 6v41q0 151 143 151h21q10 0 10 -10v-74q0 -10 -10 -10h-25q-21 0 -29 -8.5t-8 -29.5v-60q0 -6 6 -6h56q10 0 10 -10v-58q0 -10 -10 -10h-56q-6 0 -6 -6v-388q0 -10 -10 -10z" />
    <glyph glyph-name="fi" unicode="fi" horiz-adv-x="460" 
d="M160 0h-82q-10 0 -10 10v388q0 6 -6 6h-29q-10 0 -10 10v58q0 10 10 10h29q6 0 6 6v41q0 151 143 151h21q10 0 10 -10v-74q0 -10 -10 -10h-25q-21 0 -29 -8.5t-8 -29.5v-60q0 -6 6 -6h56q10 0 10 -10v-58q0 -10 -10 -10h-56q-6 0 -6 -6v-388q0 -10 -10 -10zM399 574h-82
q-10 0 -10 10v86q0 10 10 10h82q10 0 10 -10v-86q0 -10 -10 -10zM399 0h-82q-10 0 -10 10v462q0 10 10 10h82q10 0 10 -10v-462q0 -10 -10 -10z" />
    <glyph glyph-name="fl" unicode="fl" horiz-adv-x="489" 
d="M160 0h-82q-10 0 -10 10v388q0 6 -6 6h-29q-10 0 -10 10v58q0 10 10 10h29q6 0 6 6v41q0 151 143 151h21q10 0 10 -10v-74q0 -10 -10 -10h-25q-21 0 -29 -8.5t-8 -29.5v-60q0 -6 6 -6h56q10 0 10 -10v-58q0 -10 -10 -10h-56q-6 0 -6 -6v-388q0 -10 -10 -10zM453 -6h-3
q-79 2 -111 35.5t-32 110.5v530q0 10 10 10h82q10 0 10 -10v-530q0 -44 39 -52l5 -1q10 -2 10 -11v-72q0 -10 -10 -10z" />
    <glyph glyph-name="f_f_i" unicode="ffi" horiz-adv-x="716" 
d="M160 0h-82q-10 0 -10 10v388q0 6 -6 6h-29q-10 0 -10 10v58q0 10 10 10h29q6 0 6 6v41q0 151 143 151h21q10 0 10 -10v-74q0 -10 -10 -10h-25q-21 0 -29 -8.5t-8 -29.5v-60q0 -6 6 -6h56q10 0 10 -10v-58q0 -10 -10 -10h-56q-6 0 -6 -6v-388q0 -10 -10 -10zM416 0h-82
q-10 0 -10 10v388q0 6 -6 6h-29q-10 0 -10 10v58q0 10 10 10h29q6 0 6 6v41q0 151 143 151h21q10 0 10 -10v-74q0 -10 -10 -10h-25q-21 0 -29 -8.5t-8 -29.5v-60q0 -6 6 -6h56q10 0 10 -10v-58q0 -10 -10 -10h-56q-6 0 -6 -6v-388q0 -10 -10 -10zM655 574h-82q-10 0 -10 10
v86q0 10 10 10h82q10 0 10 -10v-86q0 -10 -10 -10zM655 0h-82q-10 0 -10 10v462q0 10 10 10h82q10 0 10 -10v-462q0 -10 -10 -10z" />
    <glyph glyph-name="f_f_l" unicode="ffl" horiz-adv-x="745" 
d="M160 0h-82q-10 0 -10 10v388q0 6 -6 6h-29q-10 0 -10 10v58q0 10 10 10h29q6 0 6 6v41q0 151 143 151h21q10 0 10 -10v-74q0 -10 -10 -10h-25q-21 0 -29 -8.5t-8 -29.5v-60q0 -6 6 -6h56q10 0 10 -10v-58q0 -10 -10 -10h-56q-6 0 -6 -6v-388q0 -10 -10 -10zM416 0h-82
q-10 0 -10 10v388q0 6 -6 6h-29q-10 0 -10 10v58q0 10 10 10h29q6 0 6 6v41q0 151 143 151h21q10 0 10 -10v-74q0 -10 -10 -10h-25q-21 0 -29 -8.5t-8 -29.5v-60q0 -6 6 -6h56q10 0 10 -10v-58q0 -10 -10 -10h-56q-6 0 -6 -6v-388q0 -10 -10 -10zM709 -6h-3q-79 2 -111 35.5
t-32 110.5v530q0 10 10 10h82q10 0 10 -10v-530q0 -44 39 -52l5 -1q10 -2 10 -11v-72q0 -10 -10 -10z" />
    <glyph glyph-name=".notdef" horiz-adv-x="388" 
d="M0 10v660q0 10 10 10h368q10 0 10 -10v-660q0 -10 -10 -10h-368q-10 0 -10 10zM59 61q0 -6 6 -6h259q6 0 6 6v558q0 6 -6 6h-259q-6 0 -6 -6v-558zM168 224q-10 0 -10 10v46q0 21 13 44l36 67q17 31 17 64q0 19 -3 28q-7 20 -30 20q-22 0 -29 -20q-3 -9 -3 -41
q0 -10 -11 -8l-46 4q-9 2 -9 11q0 35 6 53q9 28 34 44.5t59 16.5t59.5 -16.5t34.5 -44.5q6 -18 6 -44q0 -43 -21 -79l-35 -67q-10 -20 -10 -36v-42q0 -10 -10 -10h-48zM158 124v58q0 10 10 10h48q10 0 10 -10v-58q0 -10 -10 -10h-48q-10 0 -10 10z" />
    <glyph glyph-name=".null" horiz-adv-x="500" 
 />
    <glyph glyph-name="nonmarkingreturn" horiz-adv-x="333" 
 />
    <glyph glyph-name="space" unicode=" " horiz-adv-x="194" 
 />
    <glyph glyph-name="exclam" unicode="!" horiz-adv-x="241" 
d="M97 170q-10 0 -10 10l-22 490q0 10 10 10h91q10 0 10 -10l-22 -490q0 -10 -10 -10h-47zM68 10v99q0 10 10 10h85q10 0 10 -10v-99q0 -10 -10 -10h-85q-10 0 -10 10z" />
    <glyph glyph-name="quotedbl" unicode="&#x22;" horiz-adv-x="278" 
d="M173 493q-10 0 -10 10v167q0 10 10 10h55q10 0 10 -10v-167q0 -10 -10 -10h-55zM50 493q-10 0 -10 10v167q0 10 10 10h55q10 0 10 -10v-167q0 -10 -10 -10h-55z" />
    <glyph glyph-name="numbersign" unicode="#" horiz-adv-x="509" 
d="M90 10l21 206h-50q-10 0 -10 10v52q0 10 10 10h58l13 122h-52q-10 0 -10 10v52q0 10 10 10h59l20 188q2 10 11 10h57q11 0 9 -10l-20 -188h97l20 188q2 10 11 10h57q11 0 9 -10l-20 -188h58q10 0 10 -10v-52q0 -10 -10 -10h-65l-13 -122h59q10 0 10 -10v-52
q0 -10 -10 -10h-67l-21 -206q-2 -10 -11 -10h-57q-11 0 -9 10l21 206h-97l-21 -206q-2 -10 -11 -10h-57q-11 0 -9 10zM196 288h97l13 122h-97z" />
    <glyph glyph-name="dollar" unicode="$" 
d="M35 165q0 10 8 11l75 13q11 1 11 -9q1 -47 12.5 -69t37.5 -26v221l-28 11q-63 25 -86.5 67t-23.5 123q0 174 138 181v41q0 10 10 10h17q10 0 10 -10v-41q66 -6 97.5 -46t37.5 -114q1 -9 -9 -11l-73 -11q-9 -2 -11 8q-3 37 -12.5 55.5t-29.5 23.5v-190l26 -10
q63 -24 88.5 -67.5t25.5 -130.5q0 -100 -34 -149t-106 -54v-55q0 -10 -10 -10h-17q-10 0 -10 10v55q-72 4 -106.5 46.5t-37.5 126.5zM179 419v175q-40 -8 -40 -83q0 -40 8 -59.5t32 -32.5zM216 86q22 5 32 26t10 69q0 46 -9.5 70.5t-32.5 38.5v-204z" />
    <glyph glyph-name="percent" unicode="%" horiz-adv-x="674" 
d="M174 1l252 678q4 10 13 10h54q10 0 7 -10l-252 -678q-4 -10 -13 -10h-54q-10 0 -7 10zM161 328q-74 0 -93 61q-8 24 -8 118q0 95 8 118q19 61 93 61t93 -61q8 -23 8 -118q0 -94 -8 -118q-19 -61 -93 -61zM161 392q20 0 25 17q3 9 3 98t-3 98q-5 17 -25 17t-25 -17
q-3 -9 -3 -98t3 -98q5 -17 25 -17zM420 55q-8 23 -8 118q0 94 8 118q19 61 93 61t93 -61q8 -24 8 -118q0 -95 -8 -118q-19 -61 -93 -61t-93 61zM488 75q5 -17 25 -17t25 17q3 9 3 98t-3 98q-5 17 -25 17t-25 -17q-3 -9 -3 -98t3 -98z" />
    <glyph glyph-name="ampersand" unicode="&#x26;" horiz-adv-x="553" 
d="M63 143q0 47 28.5 96t92.5 124q-42 68 -58.5 108t-16.5 77q0 63 40.5 102t104.5 39t104.5 -39t40.5 -102q0 -39 -21.5 -82t-80.5 -112l71 -119l45 77q5 8 13 3l55 -31q8 -5 3 -14l-67 -117l23 -38q14 -25 32 -25h3q10 0 10 -10v-70q0 -10 -10 -10h-30q-28 0 -41.5 8
t-26.5 30l-16 26q-58 -73 -145 -73q-71 0 -112 41t-41 111zM249 437q35 41 46.5 64.5t11.5 49.5q0 58 -52 58t-52 -58q0 -34 46 -114zM158 145q0 -31 17.5 -49t46.5 -18q46 0 92 66l-82 137q-40 -47 -57 -77.5t-17 -58.5z" />
    <glyph glyph-name="quotesingle" unicode="'" horiz-adv-x="155" 
d="M50 493q-10 0 -10 10v167q0 10 10 10h55q10 0 10 -10v-167q0 -10 -10 -10h-55z" />
    <glyph glyph-name="parenleft" unicode="(" horiz-adv-x="271" 
d="M161 -74q-96 186 -96 402t96 402q3 10 13 10h49q10 0 7 -10q-63 -191 -63 -402t63 -402q3 -10 -7 -10h-49q-10 0 -13 10z" />
    <glyph glyph-name="parenright" unicode=")" horiz-adv-x="271" 
d="M41 -74q63 191 63 402t-63 402q-3 10 7 10h50q8 0 13 -10q95 -187 95 -402t-95 -402q-5 -10 -13 -10h-50q-10 0 -7 10z" />
    <glyph glyph-name="asterisk" unicode="*" horiz-adv-x="328" 
d="M144 392q-10 0 -10 10l1 84l-59 -36q-8 -5 -13 4l-20 35q-5 9 3 14l59 33l-59 33q-8 5 -3 14l20 35q5 9 13 4l59 -36l-1 84q0 10 10 10h40q10 0 10 -10l-2 -84l60 36q8 5 13 -4l20 -35q5 -9 -3 -14l-60 -33l60 -33q8 -5 3 -14l-20 -35q-5 -9 -13 -4l-60 35l2 -83
q0 -10 -10 -10h-40z" />
    <glyph glyph-name="plus" unicode="+" 
d="M153 123v102q0 6 -6 6h-101q-10 0 -10 10v70q0 10 10 10h101q6 0 6 6v102q0 10 10 10h73q10 0 10 -10v-102q0 -6 6 -6h100q10 0 10 -10v-70q0 -10 -10 -10h-100q-6 0 -6 -6v-102q0 -10 -10 -10h-73q-10 0 -10 10z" />
    <glyph glyph-name="comma" unicode="," horiz-adv-x="191" 
d="M46 -93v202q0 10 10 10h79q10 0 10 -10v-82q0 -17 -8 -28l-71 -95q-4 -6 -11 -6q-9 0 -9 9z" />
    <glyph glyph-name="hyphen" unicode="-" horiz-adv-x="368" 
d="M52 218q-10 0 -10 10v75q0 10 10 10h264q10 0 10 -10v-75q0 -10 -10 -10h-264z" />
    <glyph glyph-name="period" unicode="." horiz-adv-x="197" 
d="M46 10v99q0 10 10 10h85q10 0 10 -10v-99q0 -10 -10 -10h-85q-10 0 -10 10z" />
    <glyph glyph-name="slash" unicode="/" horiz-adv-x="245" 
d="M21 1l125 678q2 10 11 10h57q11 0 9 -10l-125 -678q-1 -10 -11 -10h-57q-11 0 -9 10z" />
    <glyph glyph-name="zero" unicode="0" 
d="M57 84q-11 36 -11 256t11 256q14 45 51 69t91 24q112 0 143 -93q10 -33 10 -256t-10 -256q-31 -93 -143 -93q-54 0 -91 24t-51 69zM154 115q10 -31 45 -31q36 0 46 31q5 16 5 225t-5 225q-10 31 -46 31q-35 0 -45 -31q-6 -19 -6 -225t6 -225z" />
    <glyph glyph-name="one" unicode="1" 
d="M167 10v552h-2l-85 -60q-4 -3 -7.5 -1.5t-3.5 7.5v85q0 9 10 17l87 64q9 6 18 6h75q10 0 10 -10v-660q0 -10 -10 -10h-82q-10 0 -10 10z" />
    <glyph glyph-name="two" unicode="2" 
d="M49 10v71q0 9 5 20l169 304q26 45 26 112q0 33 -4 46q-11 33 -47 33q-35 0 -46 -33q-4 -13 -4 -62q0 -12 -12 -10l-78 7q-9 2 -9 12q0 59 8 84q32 95 143 95t142 -94q9 -29 9 -78q0 -54 -9.5 -88t-32.5 -75l-149 -260v-1h181q10 0 10 -10v-73q0 -10 -10 -10h-282
q-10 0 -10 10z" />
    <glyph glyph-name="three" unicode="3" 
d="M56 86q-9 29 -9 78q0 11 10 12l77 7q12 2 12 -10q0 -43 4 -56q11 -33 46 -33q36 0 47 32q4 13 4 79q0 70 -4 81q-10 30 -50 30h-15q-10 0 -10 10v72q0 10 10 10h15q41 0 50 29q4 11 4 73q0 51 -4 64q-11 32 -47 32q-35 0 -46 -33q-4 -13 -4 -56q0 -12 -12 -10l-77 7
q-10 1 -10 12q0 50 9 78q30 95 141 95q112 0 143 -93q9 -28 9 -96q0 -65 -7 -86q-10 -34 -49 -58v-2q39 -24 49 -58q7 -21 7 -101q0 -83 -9 -111q-31 -93 -143 -93q-111 0 -141 95z" />
    <glyph glyph-name="four" unicode="4" 
d="M34 101q-10 0 -10 10v72q0 5 2 11l140 478q3 8 12 8h83q11 0 8 -11l-140 -473v-2h86q6 0 6 6v180q0 10 10 10h82q10 0 10 -10v-180q0 -6 5 -6h34q10 0 10 -10v-73q0 -10 -10 -10h-33q-6 0 -6 -6v-85q0 -10 -10 -10h-82q-10 0 -10 10v85q0 6 -6 6h-181z" />
    <glyph glyph-name="five" unicode="5" 
d="M57 86q-8 25 -8 68q0 10 9 12l78 8q12 2 12 -10q0 -34 4 -47q11 -33 46 -33q36 0 47 32q4 12 4 101q0 88 -4 100q-10 32 -47 32q-34 0 -46 -30q-4 -9 -15 -9h-68q-10 0 -10 10v350q0 10 10 10h272q10 0 10 -10v-73q0 -10 -10 -10h-184q-6 0 -6 -6v-166h1q26 28 73 28
q90 0 116 -80q10 -31 10 -146q0 -104 -9 -132q-31 -94 -143 -94q-110 0 -142 95z" />
    <glyph glyph-name="six" unicode="6" 
d="M56 87q-9 28 -9 111q0 69 6.5 107t25.5 86l107 279q4 10 14 10h83q12 0 7 -11l-104 -270l2 -2q10 6 34 6q90 0 120 -91q10 -32 10 -114t-9 -111q-32 -96 -144 -96q-113 0 -143 96zM153 117q11 -33 46 -33q36 0 47 33q4 13 4 81q0 67 -4 79q-10 33 -47 33q-35 0 -46 -33
q-4 -12 -4 -79q0 -68 4 -81z" />
    <glyph glyph-name="seven" unicode="7" 
d="M82 13l169 572v2h-104q-6 0 -6 -6v-64q0 -10 -10 -10h-74q-10 0 -10 10v153q0 10 10 10h286q10 0 10 -10v-74q0 -5 -2 -11l-167 -575q-3 -10 -13 -10h-83q-10 0 -6 13z" />
    <glyph glyph-name="eight" unicode="8" 
d="M56 87q-9 28 -9 110q0 69 9 96q13 41 44 62v2q-31 21 -44 62q-9 27 -9 81q0 64 9 93q30 96 143 96q112 0 144 -96q9 -28 9 -93q0 -54 -9 -81q-13 -41 -44 -62v-2q31 -22 44 -62q9 -27 9 -96q0 -81 -9 -110q-32 -96 -144 -96q-113 0 -143 96zM199 403q37 0 47 33
q4 12 4 64q0 50 -4 63q-11 33 -47 33q-35 0 -46 -33q-4 -13 -4 -63q0 -52 4 -64q11 -33 46 -33zM153 117q11 -33 46 -33q36 0 47 33q4 13 4 80t-4 79q-10 33 -47 33q-35 0 -46 -33q-4 -12 -4 -79t4 -80z" />
    <glyph glyph-name="nine" unicode="9" 
d="M109 11l103 270l-2 2q-10 -6 -34 -6q-91 0 -119 91q-10 32 -10 114t9 111q30 96 143 96q112 0 144 -96q9 -28 9 -111q0 -68 -6.5 -106t-25.5 -87l-107 -279q-4 -10 -14 -10h-83q-12 0 -7 11zM199 370q37 0 47 33q4 12 4 79q0 68 -4 81q-11 33 -47 33q-35 0 -46 -33
q-4 -13 -4 -81q0 -67 4 -79q11 -33 46 -33z" />
    <glyph glyph-name="colon" unicode=":" horiz-adv-x="213" 
d="M64 363q-10 0 -10 10v99q0 10 10 10h85q10 0 10 -10v-99q0 -10 -10 -10h-85zM54 10v99q0 10 10 10h85q10 0 10 -10v-99q0 -10 -10 -10h-85q-10 0 -10 10z" />
    <glyph glyph-name="semicolon" unicode=";" horiz-adv-x="213" 
d="M64 363q-10 0 -10 10v99q0 10 10 10h85q10 0 10 -10v-99q0 -10 -10 -10h-85zM57 -93v202q0 10 10 10h79q10 0 10 -10v-82q0 -17 -8 -28l-71 -95q-5 -6 -11 -6q-9 0 -9 9z" />
    <glyph glyph-name="less" unicode="&#x3c;" 
d="M46 231q-10 4 -10 15v60q0 11 10 15l306 123q10 3 10 -7v-74q0 -9 -10 -13l-191 -73v-2l191 -73q10 -4 10 -13v-74q0 -10 -10 -7z" />
    <glyph glyph-name="equal" unicode="=" 
d="M46 328q-10 0 -10 10v69q0 10 10 10h306q10 0 10 -10v-69q0 -10 -10 -10h-306zM46 135q-10 0 -10 10v69q0 10 10 10h306q10 0 10 -10v-69q0 -10 -10 -10h-306z" />
    <glyph glyph-name="greater" unicode="&#x3e;" 
d="M46 108q-10 -3 -10 7v74q0 9 10 13l192 73v2l-192 73q-10 4 -10 13v74q0 10 10 7l306 -123q10 -4 10 -15v-60q0 -11 -10 -15z" />
    <glyph glyph-name="question" unicode="?" horiz-adv-x="391" 
d="M140 170q-10 0 -10 10v75q0 33 19 68l56 103q25 47 25 102q0 23 -4 36q-11 32 -46 32t-47 -32q-4 -13 -4 -63q0 -12 -11 -10l-78 7q-10 1 -10 12q0 58 9 84q15 44 53 69.5t90 25.5q54 0 90 -25.5t51 -69.5q9 -27 9 -66q0 -63 -28 -118l-56 -105q-16 -30 -16 -55v-70
q0 -10 -10 -10h-82zM129 10v99q0 10 10 10h84q10 0 10 -10v-99q0 -10 -10 -10h-84q-10 0 -10 10z" />
    <glyph glyph-name="at" unicode="@" horiz-adv-x="661" 
d="M50 72q-19 57 -19 196t19 196q31 93 105 144.5t176 51.5q101 0 175 -51.5t105 -144.5q19 -57 19 -196q0 -98 -10 -128q-27 -81 -114 -81q-80 0 -107 65h-1q-13 -34 -34.5 -49.5t-60.5 -15.5q-70 0 -91 66q-10 29 -10 139t10 139q21 66 89 66q53 0 73 -45h2v28q0 10 10 10
h64q10 0 10 -10v-263q0 -57 46 -57q33 0 42 30q4 12 4 106q0 131 -15 178q-22 68 -76 105t-130 37q-77 0 -131 -37t-76 -105q-15 -47 -15 -178t15 -178q22 -67 76 -104.5t131 -37.5q92 0 152 43q8 5 14 -3l28 -39q5 -9 -3 -14q-83 -59 -191 -59q-102 0 -176 51.5t-105 144.5
zM289 166q11 -29 42 -29q32 0 41 29q4 12 4 98t-4 98q-9 29 -41 29q-31 0 -42 -29q-4 -12 -4 -98t4 -98z" />
    <glyph glyph-name="A" unicode="A" horiz-adv-x="421" 
d="M12 10l147 660q3 10 11 10h84q9 0 11 -10l144 -660q2 -10 -8 -10h-85q-9 0 -11 10l-27 137h-135l-27 -137q-2 -10 -11 -10h-85q-10 0 -8 10zM160 237h101l-48 253h-3z" />
    <glyph glyph-name="B" unicode="B" horiz-adv-x="427" 
d="M53 10v660q0 10 10 10h149q91 0 133.5 -42.5t42.5 -133.5q0 -112 -79 -147v-2q87 -26 87 -155q0 -110 -47.5 -155t-150.5 -45h-135q-10 0 -10 10zM166 396h36q45 0 62 19t17 74t-17 74.5t-62 19.5h-36q-6 0 -6 -6v-175q0 -6 6 -6zM160 103q0 -6 6 -6h36q48 0 67 22.5
t19 81.5t-18.5 81t-67.5 22h-36q-6 0 -6 -6v-195z" />
    <glyph glyph-name="C" unicode="C" horiz-adv-x="387" 
d="M54 95q-13 40 -13 245t13 245q34 104 154 104q155 0 164 -163q2 -11 -7 -12l-81 -14q-11 -2 -11 9q-4 83 -62 83q-42 0 -54 -38q-7 -22 -7 -214t7 -214q12 -38 54 -38q58 0 62 83q0 11 11 9l81 -14q9 -1 7 -12q-9 -163 -164 -163q-120 0 -154 104z" />
    <glyph glyph-name="D" unicode="D" horiz-adv-x="443" 
d="M53 10v660q0 10 10 10h157q129 0 165 -109q17 -52 17 -231t-17 -231q-36 -109 -165 -109h-157q-10 0 -10 10zM160 103q0 -6 6 -6h43q55 0 72 49q12 38 12 194t-12 194q-17 49 -72 49h-43q-6 0 -6 -6v-474z" />
    <glyph glyph-name="E" unicode="E" horiz-adv-x="381" 
d="M53 10v660q0 10 10 10h279q10 0 10 -10v-77q0 -10 -10 -10h-176q-6 0 -6 -6v-179q0 -6 6 -6h152q10 0 10 -10v-77q0 -10 -10 -10h-152q-6 0 -6 -6v-186q0 -6 6 -6h176q10 0 10 -10v-77q0 -10 -10 -10h-279q-10 0 -10 10z" />
    <glyph glyph-name="F" unicode="F" horiz-adv-x="376" 
d="M53 10v660q0 10 10 10h279q10 0 10 -10v-77q0 -10 -10 -10h-176q-6 0 -6 -6v-184q0 -6 6 -6h152q10 0 10 -10v-77q0 -10 -10 -10h-152q-6 0 -6 -6v-274q0 -10 -10 -10h-87q-10 0 -10 10z" />
    <glyph glyph-name="G" unicode="G" horiz-adv-x="426" 
d="M54 97q-8 24 -10.5 66t-2.5 177t2.5 177t10.5 66q35 106 161 106q153 0 169 -159q2 -10 -8 -12l-81 -14q-9 -2 -11 8q-8 80 -68 80q-47 0 -59 -38q-7 -22 -7 -214t7 -214q5 -17 22 -27.5t38 -10.5q22 0 39 10.5t22 27.5q7 24 7 153q0 6 -6 6h-53q-10 0 -10 10v74
q0 10 10 10h152q10 0 10 -10v-30q0 -135 -2.5 -176.5t-10.5 -65.5q-35 -106 -160 -106q-126 0 -161 106z" />
    <glyph glyph-name="H" unicode="H" horiz-adv-x="447" 
d="M53 10v660q0 10 10 10h87q10 0 10 -10v-268q0 -6 6 -6h115q6 0 6 6v268q0 10 10 10h87q10 0 10 -10v-660q0 -10 -10 -10h-87q-10 0 -10 10v283q0 6 -6 6h-115q-6 0 -6 -6v-283q0 -10 -10 -10h-87q-10 0 -10 10z" />
    <glyph glyph-name="I" unicode="I" horiz-adv-x="213" 
d="M53 10v660q0 10 10 10h87q10 0 10 -10v-660q0 -10 -10 -10h-87q-10 0 -10 10z" />
    <glyph glyph-name="J" unicode="J" horiz-adv-x="354" 
d="M16 36q-6 8 1 14l59 54q7 6 15 -1q17 -15 40 -15q65 0 65 79v503q0 10 10 10h87q10 0 10 -10v-494q0 -94 -46.5 -139.5t-128.5 -45.5q-76 0 -112 45z" />
    <glyph glyph-name="K" unicode="K" horiz-adv-x="441" 
d="M53 10v660q0 10 10 10h87q10 0 10 -10v-281l137 283q4 8 13 8h91q4 0 5.5 -3t-0.5 -7l-136 -265l157 -395q4 -10 -5 -10h-93q-8 0 -11 7l-113 287l-45 -93v-191q0 -10 -10 -10h-87q-10 0 -10 10z" />
    <glyph glyph-name="L" unicode="L" horiz-adv-x="372" 
d="M53 10v660q0 10 10 10h87q10 0 10 -10v-567q0 -6 6 -6h176q10 0 10 -10v-77q0 -10 -10 -10h-279q-10 0 -10 10z" />
    <glyph glyph-name="M" unicode="M" horiz-adv-x="558" 
d="M53 10v660q0 10 10 10h87q13 0 16 -10l113 -383h4l110 383q3 10 16 10h86q10 0 10 -10v-660q0 -10 -10 -10h-77q-10 0 -10 10v430h-6l-88 -309q-3 -10 -13 -10h-44q-10 0 -13 10l-88 309h-6v-430q0 -10 -10 -10h-77q-10 0 -10 10z" />
    <glyph glyph-name="N" unicode="N" horiz-adv-x="461" 
d="M53 10v660q0 10 10 10h106q11 0 14 -10l126 -470h5v470q0 10 10 10h74q10 0 10 -10v-660q0 -10 -10 -10h-99q-11 0 -14 10l-132 470h-6v-470q0 -10 -10 -10h-74q-10 0 -10 10z" />
    <glyph glyph-name="O" unicode="O" horiz-adv-x="429" 
d="M215 -9q-126 0 -161 106q-8 24 -10.5 66t-2.5 177t2.5 177t10.5 66q35 106 161 106q125 0 160 -106q8 -24 10.5 -66t2.5 -177t-2.5 -177t-10.5 -66q-35 -106 -160 -106zM215 88q45 0 57 38q7 22 7 214t-7 214q-12 38 -57 38q-46 0 -58 -38q-7 -22 -7 -214t7 -214
q12 -38 58 -38z" />
    <glyph glyph-name="P" unicode="P" horiz-adv-x="425" 
d="M150 0h-87q-10 0 -10 10v660q0 10 10 10h137q95 0 144 -48.5t49 -160.5q0 -110 -49.5 -159.5t-143.5 -49.5h-34q-6 0 -6 -6v-246q0 -10 -10 -10zM200 359q47 0 66.5 24.5t19.5 87.5t-19.5 87.5t-66.5 24.5h-34q-6 0 -6 -6v-212q0 -6 6 -6h34z" />
    <glyph glyph-name="Q" unicode="Q" horiz-adv-x="429" 
d="M419 35l-43 -53q-7 -7 -14 0l-47 40q-40 -31 -100 -31q-126 0 -161 106q-8 24 -10.5 66t-2.5 177t2.5 177t10.5 66q35 106 161 106q125 0 160 -106q8 -24 10.5 -66t2.5 -177t-4 -178.5t-17 -71.5l50 -41q8 -6 2 -14zM215 87q18 0 30 4l-50 41q-8 6 -2 14l34 41q7 9 15 1
l38 -34h2v186q0 186 -9 214q-12 38 -58 38q-47 0 -59 -38q-7 -22 -7 -214q0 -193 7 -214q5 -18 21 -28.5t38 -10.5z" />
    <glyph glyph-name="R" unicode="R" horiz-adv-x="436" 
d="M404 0h-93q-8 0 -11 7l-83 271h-17h-34q-6 0 -6 -6v-262q0 -10 -10 -10h-87q-10 0 -10 10v660q0 10 10 10h137q95 0 144.5 -47t49.5 -155q0 -128 -81 -174l96 -294q4 -10 -5 -10zM201 373q46 0 66 23t20 82t-20 82t-66 23h-35q-6 0 -6 -6v-198q0 -6 6 -6h35z" />
    <glyph glyph-name="S" unicode="S" horiz-adv-x="404" 
d="M375 195q0 -104 -40 -154t-134 -50q-166 0 -170 178q0 10 8 11l84 14q11 2 11 -9q2 -54 18.5 -77t51.5 -23q33 0 48.5 21.5t15.5 75.5q0 55 -13.5 78.5t-53.5 39.5l-41 16q-70 27 -96 69t-26 123q0 181 165 181q158 0 167 -166q0 -8 -9 -11l-80 -12q-11 -2 -11 8
q-3 87 -64 87q-62 0 -62 -82q0 -47 13 -67t53 -36l41 -16q68 -27 96 -70.5t28 -128.5z" />
    <glyph glyph-name="T" unicode="T" horiz-adv-x="375" 
d="M231 0h-87q-10 0 -10 10v567q0 6 -6 6h-104q-10 0 -10 10v77q0 10 10 10h327q10 0 10 -10v-77q0 -10 -10 -10h-104q-6 0 -6 -6v-567q0 -10 -10 -10z" />
    <glyph glyph-name="U" unicode="U" horiz-adv-x="443" 
d="M222 -9q-80 0 -125 46.5t-45 135.5v497q0 10 10 10h87q10 0 10 -10v-511q0 -33 16.5 -52t46.5 -19t46 19t16 52v511q0 10 10 10h87q10 0 10 -10v-497q0 -89 -44.5 -135.5t-124.5 -46.5z" />
    <glyph glyph-name="V" unicode="V" horiz-adv-x="401" 
d="M239 0h-77q-8 0 -10 10l-135 660q-2 10 9 10h86q9 0 10 -10l79 -459h3l76 459q1 10 11 10h84q11 0 9 -10l-135 -660q-2 -10 -10 -10z" />
    <glyph glyph-name="W" unicode="W" horiz-adv-x="579" 
d="M445 0h-74q-8 0 -10 10l-69 437h-2l-72 -437q-2 -10 -10 -10h-75q-8 0 -10 10l-105 660q-2 10 9 10h86q10 0 11 -10l49 -443h3l73 443q1 10 11 10h59q10 0 11 -10l73 -443h3l52 443q1 10 11 10h83q11 0 9 -10l-106 -660q-2 -10 -10 -10z" />
    <glyph glyph-name="X" unicode="X" horiz-adv-x="402" 
d="M380 0h-88q-8 0 -11 10l-79 216h-2l-79 -216q-3 -10 -11 -10h-88q-11 0 -8 10l133 345l-121 315q-3 10 8 10h88q8 0 11 -10l67 -193h2l67 193q3 10 11 10h88q11 0 8 -10l-122 -315l134 -345q3 -10 -8 -10z" />
    <glyph glyph-name="Y" unicode="Y" horiz-adv-x="386" 
d="M237 0h-87q-10 0 -10 10v269l-130 391q-3 10 8 10h88q9 0 12 -10l76 -263h3l74 263q3 10 12 10h86q11 0 8 -10l-130 -391v-269q0 -10 -10 -10z" />
    <glyph glyph-name="Z" unicode="Z" horiz-adv-x="370" 
d="M326 0h-281q-10 0 -10 10v72q0 4 2 10l187 489v2h-169q-10 0 -10 10v77q0 10 10 10h271q10 0 10 -10v-74q0 -4 -2 -10l-184 -487v-2h176q10 0 10 -10v-77q0 -10 -10 -10z" />
    <glyph glyph-name="bracketleft" unicode="[" horiz-adv-x="247" 
d="M197 -84h-135q-10 0 -10 10v804q0 10 10 10h135q10 0 10 -10v-63q0 -10 -10 -10h-46q-6 0 -6 -6v-646q0 -6 6 -6h46q10 0 10 -10v-63q0 -10 -10 -10z" />
    <glyph glyph-name="backslash" unicode="\" horiz-adv-x="245" 
d="M214 -9h-57q-10 0 -11 10l-125 678q-2 10 9 10h57q9 0 11 -10l125 -678q2 -10 -9 -10z" />
    <glyph glyph-name="bracketright" unicode="]" horiz-adv-x="247" 
d="M185 -84h-135q-10 0 -10 10v63q0 10 10 10h45q6 0 6 6v646q0 6 -6 6h-45q-10 0 -10 10v63q0 10 10 10h135q10 0 10 -10v-804q0 -10 -10 -10z" />
    <glyph glyph-name="asciicircum" unicode="^" horiz-adv-x="408" 
d="M364 263h-74q-9 0 -13 10l-72 263h-2l-71 -263q-4 -10 -13 -10h-75q-10 0 -7 10l122 397q3 10 14 10h62q11 0 14 -10l122 -397q3 -10 -7 -10z" />
    <glyph glyph-name="underscore" unicode="_" horiz-adv-x="411" 
d="M411 -128h-411v57h411v-57z" />
    <glyph glyph-name="grave" unicode="`" horiz-adv-x="415" 
d="M287 555h-57q-10 0 -18 10l-90 125q-3 4 -1.5 7t6.5 3h81q10 0 16 -10l69 -125q5 -10 -6 -10z" />
    <glyph glyph-name="a" unicode="a" horiz-adv-x="383" 
d="M327 0h-78q-10 0 -10 10v38h-1q-9 -26 -33 -41.5t-56 -15.5q-48 0 -81.5 34t-33.5 110q0 80 41 116.5t106 36.5h52q6 0 6 6v28q0 41 -14.5 59t-51.5 18q-39 0 -80 -28q-10 -7 -15 4l-26 59q-4 7 3 14q55 43 131 43q81 0 116 -38.5t35 -126.5v-316q0 -10 -10 -10zM179 75
q27 0 43.5 19t16.5 49v57q0 6 -6 6h-35q-67 0 -67 -67q0 -64 48 -64z" />
    <glyph glyph-name="b" unicode="b" horiz-adv-x="401" 
d="M143 0h-82q-10 0 -10 10v660q0 10 10 10h82q10 0 10 -10v-237h1q23 58 90 58q80 0 105 -80q13 -39 13 -170t-13 -170q-25 -80 -105 -80q-68 0 -90 58h-1v-39q0 -10 -10 -10zM260 241q0 105 -5 122q-11 34 -49 34q-37 0 -48 -34q-5 -17 -5 -122t5 -122q11 -34 48 -34
q38 0 49 34q5 17 5 122z" />
    <glyph glyph-name="c" unicode="c" horiz-adv-x="357" 
d="M188 -9q-108 0 -139 95q-12 37 -12 155t12 155q31 95 139 95q63 0 103 -36t44 -95q0 -10 -8 -11l-76 -15q-11 -2 -12 9q-7 54 -51 54q-34 0 -44 -31q-5 -16 -5 -125t5 -125q10 -31 44 -31q44 0 51 54q1 11 12 9l76 -15q8 -1 8 -11q-4 -59 -44 -95t-103 -36z" />
    <glyph glyph-name="d" unicode="d" horiz-adv-x="401" 
d="M340 0h-82q-10 0 -10 10v39h-1q-22 -58 -90 -58q-80 0 -105 80q-13 39 -13 170t13 170q25 80 105 80q67 0 90 -58h1v237q0 10 10 10h82q10 0 10 -10v-660q0 -10 -10 -10zM141 241q0 -105 5 -122q11 -34 49 -34q37 0 48 34q5 17 5 122t-5 122q-11 34 -48 34q-38 0 -49 -34
q-5 -17 -5 -122z" />
    <glyph glyph-name="e" unicode="e" horiz-adv-x="380" 
d="M190 -9q-111 0 -142 96q-11 33 -11 154t11 154q31 96 143 96q113 0 144 -96q11 -33 11 -179q0 -10 -10 -10h-191q-6 0 -6 -6q0 -65 5 -83q11 -32 47 -32q40 0 53 43q3 9 12 7l77 -15q9 -1 7 -12q-10 -54 -50.5 -85.5t-99.5 -31.5zM191 400q-36 0 -46 -32q-6 -16 -6 -74
q0 -6 6 -6h93q6 0 6 6q0 58 -6 74q-10 32 -47 32z" />
    <glyph glyph-name="f" unicode="f" horiz-adv-x="256" 
d="M160 0h-82q-10 0 -10 10v388q0 6 -6 6h-29q-10 0 -10 10v58q0 10 10 10h29q6 0 6 6v41q0 151 143 151h21q10 0 10 -10v-74q0 -10 -10 -10h-25q-21 0 -29 -8.5t-8 -29.5v-60q0 -6 6 -6h56q10 0 10 -10v-58q0 -10 -10 -10h-56q-6 0 -6 -6v-388q0 -10 -10 -10z" />
    <glyph glyph-name="g" unicode="g" horiz-adv-x="400" 
d="M192 -189q-55 0 -93 27t-50 70q-2 8 4 11l76 27q9 4 13 -5q17 -37 53 -37q24 0 38.5 15.5t14.5 43.5v101h-1q-21 -58 -89 -58q-80 0 -105 80q-13 39 -13 162t13 162q25 81 105 81q68 0 89 -60h1v41q0 10 10 10h82q10 0 10 -10v-497q0 -79 -42.5 -121.5t-115.5 -42.5z
M195 98q37 0 48 35q5 16 5 115q0 98 -5 115q-11 34 -48 34t-48 -34q-5 -17 -5 -115q0 -99 5 -115q11 -35 48 -35z" />
    <glyph glyph-name="h" unicode="h" horiz-adv-x="405" 
d="M348 0h-82q-10 0 -10 10v317q0 70 -52 70q-51 0 -51 -70v-317q0 -10 -10 -10h-82q-10 0 -10 10v660q0 10 10 10h82q10 0 10 -10v-236h1q29 57 92 57q112 0 112 -150v-331q0 -10 -10 -10z" />
    <glyph glyph-name="i" unicode="i" horiz-adv-x="204" 
d="M143 574h-82q-10 0 -10 10v86q0 10 10 10h82q10 0 10 -10v-86q0 -10 -10 -10zM143 0h-82q-10 0 -10 10v462q0 10 10 10h82q10 0 10 -10v-462q0 -10 -10 -10z" />
    <glyph glyph-name="j" unicode="j" horiz-adv-x="204" 
d="M143 574h-82q-10 0 -10 10v86q0 10 10 10h82q10 0 10 -10v-86q0 -10 -10 -10zM11 -180h-15q-10 0 -10 10v72q0 10 10 10l14 1q22 2 31.5 13.5t9.5 42.5v503q0 10 10 10h82q10 0 10 -10v-508q0 -73 -34 -108.5t-108 -35.5z" />
    <glyph glyph-name="k" unicode="k" horiz-adv-x="396" 
d="M376 0h-87q-9 0 -13 10l-83 197l-40 -72v-125q0 -10 -10 -10h-82q-10 0 -10 10v660q0 10 10 10h82q10 0 10 -10v-383l103 185q6 10 14 10h84q11 0 6 -10l-106 -176l128 -286q5 -10 -6 -10z" />
    <glyph glyph-name="l" unicode="l" horiz-adv-x="233" 
d="M197 -6h-3q-79 2 -111 35.5t-32 110.5v530q0 10 10 10h82q10 0 10 -10v-530q0 -44 39 -52l5 -1q10 -2 10 -11v-72q0 -10 -10 -10z" />
    <glyph glyph-name="m" unicode="m" horiz-adv-x="610" 
d="M553 0h-82q-10 0 -10 10v317q0 70 -52 70q-51 0 -51 -70v-317q0 -10 -10 -10h-82q-10 0 -10 10v317q0 70 -52 70q-51 0 -51 -70v-317q0 -10 -10 -10h-82q-10 0 -10 10v462q0 10 10 10h82q10 0 10 -10v-38h1q29 57 92 57q68 0 93 -53h1q34 53 101 53q122 0 122 -150v-331
q0 -10 -10 -10z" />
    <glyph glyph-name="n" unicode="n" horiz-adv-x="405" 
d="M348 0h-82q-10 0 -10 10v317q0 70 -52 70q-51 0 -51 -70v-317q0 -10 -10 -10h-82q-10 0 -10 10v462q0 10 10 10h82q10 0 10 -10v-38h1q29 57 92 57q112 0 112 -150v-331q0 -10 -10 -10z" />
    <glyph glyph-name="o" unicode="o" horiz-adv-x="385" 
d="M348 241q0 -117 -11 -151q-15 -47 -52.5 -73t-92.5 -26q-54 0 -91.5 26t-52.5 73q-11 34 -11 151t11 151q15 47 52.5 73t91.5 26q55 0 92.5 -26t52.5 -73q11 -34 11 -151zM246 241q0 105 -5 122q-11 34 -49 34q-37 0 -48 -34q-5 -17 -5 -122t5 -122q11 -34 48 -34
q38 0 49 34q5 17 5 122z" />
    <glyph glyph-name="p" unicode="p" horiz-adv-x="401" 
d="M143 -180h-82q-10 0 -10 10v642q0 10 10 10h82q10 0 10 -10v-39h1q23 58 90 58q80 0 105 -80q13 -39 13 -170t-13 -170q-25 -80 -105 -80q-68 0 -90 58h-1v-219q0 -10 -10 -10zM260 241q0 105 -5 122q-11 34 -49 34q-37 0 -48 -34q-5 -17 -5 -122t5 -122q11 -34 48 -34
q38 0 49 34q5 17 5 122z" />
    <glyph glyph-name="q" unicode="q" horiz-adv-x="401" 
d="M340 -180h-82q-10 0 -10 10v219h-1q-22 -58 -90 -58q-80 0 -105 80q-13 39 -13 170t13 170q25 80 105 80q67 0 90 -58h1v39q0 10 10 10h82q10 0 10 -10v-642q0 -10 -10 -10zM195 85q37 0 48 34q5 17 5 122t-5 122q-11 34 -48 34q-38 0 -49 -34q-5 -17 -5 -122t5 -122
q11 -34 49 -34z" />
    <glyph glyph-name="r" unicode="r" horiz-adv-x="295" 
d="M143 0h-82q-10 0 -10 10v462q0 10 10 10h82q10 0 10 -10v-47h1q30 66 106 66q13 0 18 -1q10 -3 7 -11l-23 -85q-2 -6 -10 -6h-16q-83 0 -83 -94v-284q0 -10 -10 -10z" />
    <glyph glyph-name="s" unicode="s" horiz-adv-x="350" 
d="M176 -9q-65 0 -104.5 33t-45.5 90q-2 10 8 12l72 14q10 2 12 -8q7 -56 59 -56q23 0 37.5 15t14.5 40q0 23 -11.5 37.5t-40.5 25.5l-39 15q-104 40 -104 141q0 61 39.5 101t103.5 40q60 0 96 -31.5t43 -78.5q2 -11 -7 -13l-68 -13q-9 -1 -12 8q-12 44 -52 44
q-22 0 -34.5 -14t-12.5 -36q0 -37 52 -57l39 -15q56 -21 80 -56.5t24 -90.5q0 -65 -39.5 -106t-109.5 -41z" />
    <glyph glyph-name="t" unicode="t" horiz-adv-x="255" 
d="M219 -6h-30q-64 0 -93.5 31t-29.5 102v271q0 6 -6 6h-29q-10 0 -10 10v58q0 10 10 10h29q6 0 6 6v132q0 10 10 10h82q10 0 10 -10v-132q0 -6 6 -6h45q10 0 10 -10v-58q0 -10 -10 -10h-45q-6 0 -6 -6v-269q0 -41 39 -41h12q10 0 10 -10v-74q0 -10 -10 -10z" />
    <glyph glyph-name="u" unicode="u" horiz-adv-x="403" 
d="M342 0h-82q-10 0 -10 10v38h-1q-29 -57 -91 -57q-111 0 -111 150v331q0 10 10 10h82q10 0 10 -10v-317q0 -70 50 -70q51 0 51 70v317q0 10 10 10h82q10 0 10 -10v-462q0 -10 -10 -10z" />
    <glyph glyph-name="v" unicode="v" horiz-adv-x="362" 
d="M216 0h-70q-8 0 -11 10l-119 462q-3 10 7 10h84q9 0 11 -10l64 -298h1l64 298q2 10 11 10h81q10 0 8 -10l-119 -462q-3 -10 -12 -10z" />
    <glyph glyph-name="w" unicode="w" horiz-adv-x="541" 
d="M403 0h-70q-11 0 -12 10l-50 280h-2l-49 -280q-1 -10 -12 -10h-70q-10 0 -11 10l-109 462q-3 10 7 10h84q9 0 11 -10l54 -298h1l56 298q2 10 11 10h59q9 0 11 -10l54 -298h1l55 298q2 10 11 10h83q10 0 7 -10l-108 -462q-3 -10 -12 -10z" />
    <glyph glyph-name="x" unicode="x" horiz-adv-x="365" 
d="M345 0h-84q-9 0 -13 8l-66 145h-1l-65 -145q-4 -8 -14 -8h-82q-10 0 -5 11l116 237l-109 223q-6 11 5 11h82q10 0 14 -8l61 -131h1l57 131q4 8 14 8h82q10 0 5 -11l-110 -223l117 -237q6 -11 -5 -11z" />
    <glyph glyph-name="y" unicode="y" horiz-adv-x="370" 
d="M77 -180h-15q-10 0 -10 10v74q0 10 10 10l14 1q22 2 34 13.5t19 41.5l11 48l-120 454q-3 10 7 10h84q9 0 11 -10l64 -298h1l64 298q2 10 11 10h81q10 0 7 -10l-127 -500q-23 -92 -53.5 -122t-92.5 -30z" />
    <glyph glyph-name="z" unicode="z" horiz-adv-x="320" 
d="M286 0h-248q-10 0 -10 10v68q0 7 3 13l149 299v2h-132q-10 0 -10 10v70q0 10 10 10h238q10 0 10 -10v-57q0 -7 -3 -13l-155 -309v-2h148q10 0 10 -10v-71q0 -10 -10 -10z" />
    <glyph glyph-name="braceleft" unicode="{" horiz-adv-x="312" 
d="M262 -84h-28q-56 0 -87 31t-31 88v184q0 36 -12.5 53t-43.5 17q-10 0 -10 10v63q0 10 10 10q31 0 43.5 17t12.5 53v179q0 57 31 88t87 31h28q10 0 10 -10v-63q0 -10 -10 -10h-10q-42 0 -42 -46v-148q0 -62 -10.5 -89.5t-44.5 -41.5v-3q34 -14 44.5 -41.5t10.5 -89.5v-153
q0 -46 42 -46h10q10 0 10 -10v-63q0 -10 -10 -10z" />
    <glyph glyph-name="bar" unicode="|" horiz-adv-x="281" 
d="M171 -84h-61q-10 0 -10 10v804q0 10 10 10h61q10 0 10 -10v-804q0 -10 -10 -10z" />
    <glyph glyph-name="braceright" unicode="}" horiz-adv-x="312" 
d="M77 -84h-27q-10 0 -10 10v63q0 10 10 10h9q42 0 42 46v153q0 62 10.5 89.5t45.5 41.5v3q-35 14 -45.5 41.5t-10.5 89.5v148q0 46 -42 46h-9q-10 0 -10 10v63q0 10 10 10h27q57 0 88 -31t31 -88v-179q0 -36 12.5 -53t42.5 -17q10 0 10 -10v-63q0 -10 -10 -10
q-30 0 -42.5 -17t-12.5 -53v-184q0 -57 -31 -88t-88 -31z" />
    <glyph glyph-name="asciitilde" unicode="~" 
d="M261 213q-32 0 -70 24q-34 21 -47 21q-15 0 -25 -8.5t-24 -32.5q-4 -7 -13 -2l-47 25q-9 5 -4 15q41 84 106 84q32 0 70 -24q34 -21 47 -21q16 0 26 8.5t24 32.5q4 7 13 2l46 -25q9 -5 4 -15q-40 -84 -106 -84z" />
    <glyph glyph-name="uni00A0" unicode="&#xa0;" horiz-adv-x="194" 
 />
    <glyph glyph-name="exclamdown" unicode="&#xa1;" horiz-adv-x="241" 
d="M144 312q10 0 10 -10l22 -490q0 -10 -10 -10h-91q-10 0 -10 10l22 490q0 10 10 10h47zM173 472v-99q0 -10 -10 -10h-85q-10 0 -10 10v99q0 10 10 10h85q10 0 10 -10z" />
    <glyph glyph-name="cent" unicode="&#xa2;" 
d="M212 -99h-17q-10 0 -10 10v81q-99 6 -127 94q-12 37 -12 155t12 155q28 88 127 94v81q0 10 10 10h17q10 0 10 -10v-81q114 -11 130 -122q2 -11 -7 -12l-77 -15q-11 -2 -12 7q-7 39 -34 47v-308q27 8 34 46q1 9 12 7l77 -14q9 -1 7 -12q-15 -111 -130 -122v-81
q0 -10 -10 -10zM153 116q8 -24 32 -30v309q-25 -4 -32 -29q-5 -16 -5 -125t5 -125z" />
    <glyph glyph-name="sterling" unicode="&#xa3;" 
d="M359 0h-302q-10 0 -10 10v73q0 5 3 10q27 36 27 91v93q0 6 -6 6h-29q-10 0 -10 10v53q0 10 10 10h29q6 0 6 6v172q0 73 36.5 114t108.5 41q130 0 144 -141q2 -10 -8 -12l-77 -13q-9 -2 -11 8q-3 35 -13.5 50t-33.5 15q-44 0 -44 -60v-174q0 -6 6 -6h89q10 0 10 -10v-53
q0 -10 -10 -10h-89q-6 0 -6 -6v-93q0 -60 -25 -89v-2h205q10 0 10 -10v-73q0 -10 -10 -10z" />
    <glyph glyph-name="currency" unicode="&#xa4;" 
d="M353 204l-34 -35q-7 -7 -14 0l-37 36q-33 -18 -69 -18q-40 0 -70 18l-36 -36q-7 -7 -14 0l-35 35q-6 6 0 14l37 37q-17 31 -17 68q0 38 18 68l-37 37q-7 7 0 14l35 35q7 7 14 0l36 -37q30 18 69 18q37 0 70 -18l37 37q7 7 14 0l34 -35q7 -7 0 -14l-37 -37q18 -33 18 -68
q0 -37 -18 -70l36 -35q6 -8 0 -14zM199 257q29 0 47 18.5t18 47.5t-18 47.5t-47 18.5q-28 0 -46 -18.5t-18 -47.5t18 -47.5t46 -18.5z" />
    <glyph glyph-name="yen" unicode="&#xa5;" 
d="M240 0h-81q-10 0 -10 10v110q0 6 -6 6h-88q-10 0 -10 10v54q0 10 10 10h88q6 0 6 6v43q0 6 -6 6h-88q-10 0 -10 10v54q0 10 10 10h78v3l-109 338q-3 10 8 10h85q9 0 12 -10l71 -263h3l69 263q3 10 12 10h83q11 0 8 -10l-109 -338v-3h77q10 0 10 -10v-54q0 -10 -10 -10
h-87q-6 0 -6 -6v-43q0 -6 6 -6h87q10 0 10 -10v-54q0 -10 -10 -10h-87q-6 0 -6 -6v-110q0 -10 -10 -10z" />
    <glyph glyph-name="brokenbar" unicode="&#xa6;" horiz-adv-x="281" 
d="M171 388h-61q-10 0 -10 10v332q0 10 10 10h61q10 0 10 -10v-332q0 -10 -10 -10zM171 -84h-61q-10 0 -10 10v336q0 10 10 10h61q10 0 10 -10v-336q0 -10 -10 -10z" />
    <glyph glyph-name="section" unicode="&#xa7;" horiz-adv-x="467" 
d="M231 -189q-102 0 -128 82q-8 24 -8 66q0 9 8 9l73 7q8 0 8 -9q0 -30 5 -45q8 -27 43 -27q33 0 43 27q5 15 5 40q0 32 -5 47q-11 35 -86 61t-96 89q-13 39 -13 94q0 45 10 74q18 56 69 75v1q-37 16 -53 60q-9 31 -9 75t8 68q27 84 130 84q100 0 126 -82q9 -27 9 -66
q0 -9 -8 -9l-73 -7q-9 0 -9 9q0 33 -4 45q-8 27 -40 27q-33 0 -41 -27q-4 -12 -4 -42q0 -27 5 -42q11 -36 83 -60q74 -25 96 -88q12 -37 12 -95q0 -42 -9 -74q-18 -56 -69 -75v-1q41 -17 55 -60q10 -29 10 -77q0 -43 -9 -70q-27 -84 -134 -84zM234 150q41 0 53 38q6 20 6 64
q0 46 -6 65q-12 38 -53 38q-40 0 -54 -38q-6 -19 -6 -65q0 -44 6 -64q13 -38 54 -38z" />
    <glyph glyph-name="dieresis" unicode="&#xa8;" horiz-adv-x="415" 
d="M316 574h-65q-10 0 -10 10v86q0 10 10 10h65q10 0 10 -10v-86q0 -10 -10 -10zM164 574h-65q-10 0 -10 10v86q0 10 10 10h65q10 0 10 -10v-86q0 -10 -10 -10z" />
    <glyph glyph-name="copyright" unicode="&#xa9;" horiz-adv-x="706" 
d="M353 -9q-108 0 -184.5 53.5t-108.5 149.5q-19 59 -19 146t19 146q32 96 108.5 149.5t184.5 53.5t184.5 -53.5t108.5 -149.5q19 -59 19 -146t-19 -146q-32 -96 -108.5 -149.5t-184.5 -53.5zM353 59q83 0 140 39.5t81 112.5q17 55 17 129t-17 129q-24 73 -81 112.5
t-140 39.5t-140 -39.5t-81 -112.5q-17 -55 -17 -129t17 -129q24 -73 81 -112.5t140 -39.5zM357 143q-87 0 -113 76q-9 27 -9 121t9 121q26 76 113 76q47 0 79 -25t37 -64q2 -8 -5 -10l-61 -11q-7 -2 -9 5q-8 32 -41 32q-29 0 -38 -27q-4 -12 -4 -97t4 -97q9 -27 38 -27
q33 0 41 32q2 7 9 5l61 -11q7 -2 5 -10q-5 -39 -37 -64t-79 -25z" />
    <glyph glyph-name="ordfeminine" unicode="&#xaa;" horiz-adv-x="282" 
d="M231 392h-45q-10 0 -10 10v18h-2q-13 -32 -58 -32q-35 0 -55.5 22t-20.5 63q0 50 26.5 74t72.5 24h31q6 0 6 6v7q0 41 -44 41q-23 0 -52 -17q-10 -5 -13 5l-16 38q-3 7 6 13q38 24 86 24q49 0 73.5 -24t24.5 -77v-185q0 -10 -10 -10zM138 445q16 0 27 10t11 27v30
q0 6 -6 6h-23q-42 0 -42 -37q0 -36 33 -36z" />
    <glyph glyph-name="guillemotleft" unicode="&#xab;" horiz-adv-x="485" 
d="M415 79l-177 178q-7 7 0 14l177 178q3 3 6.5 1.5t3.5 -5.5v-80q0 -8 -10 -18l-79 -79q-4 -4 0 -8l79 -79q10 -10 10 -18v-80q0 -4 -3.5 -5.5t-6.5 1.5zM214 79l-177 178q-7 7 0 14l177 178q3 3 6.5 1.5t3.5 -5.5v-80q0 -8 -10 -18l-78 -79q-4 -4 0 -8l78 -79
q10 -10 10 -18v-80q0 -4 -3.5 -5.5t-6.5 1.5z" />
    <glyph glyph-name="logicalnot" unicode="&#xac;" 
d="M352 144h-73q-10 0 -10 10v71q0 6 -6 6h-217q-10 0 -10 10v70q0 10 10 10h306q10 0 10 -10v-157q0 -10 -10 -10z" />
    <glyph glyph-name="uni00AD" unicode="&#xad;" horiz-adv-x="368" 
d="M316 218h-264q-10 0 -10 10v75q0 10 10 10h264q10 0 10 -10v-75q0 -10 -10 -10z" />
    <glyph glyph-name="registered" unicode="&#xae;" horiz-adv-x="434" 
d="M217 303q-123 0 -160 110q-11 37 -11 80q0 42 11 79q37 110 160 110t160 -110q11 -37 11 -79q0 -43 -11 -80q-37 -110 -160 -110zM217 338q45 0 77.5 22.5t45.5 62.5q9 29 9 70q0 40 -9 69q-13 40 -45.5 62.5t-77.5 22.5q-46 0 -78 -22t-46 -63q-9 -29 -9 -69
q0 -41 9 -70q14 -41 46 -63t78 -22zM196 388h-25q-7 0 -7 7v198q0 7 7 7h47q61 0 61 -62q0 -37 -25 -55l29 -88q3 -7 -5 -7h-28q-6 0 -9 7l-24 79h-10q-4 0 -4 -5v-74q0 -7 -7 -7zM215 509q13 0 18.5 6t5.5 22q0 15 -5.5 20.5t-18.5 5.5h-8q-4 0 -4 -4v-45q0 -5 4 -5h8z" />
    <glyph glyph-name="macron" unicode="&#xaf;" horiz-adv-x="415" 
d="M310 588h-205q-10 0 -10 10v60q0 10 10 10h205q10 0 10 -10v-60q0 -10 -10 -10z" />
    <glyph glyph-name="degree" unicode="&#xb0;" horiz-adv-x="341" 
d="M170 445q-51 0 -85.5 34t-34.5 85q0 52 34.5 86t85.5 34q52 0 86.5 -34t34.5 -86q0 -51 -34.5 -85t-86.5 -34zM170 502q27 0 43.5 17.5t16.5 44.5q0 28 -16.5 45.5t-43.5 17.5q-26 0 -42.5 -17.5t-16.5 -45.5q0 -27 16.5 -44.5t42.5 -17.5z" />
    <glyph glyph-name="plusminus" unicode="&#xb1;" 
d="M236 137h-73q-10 0 -10 10v102q0 6 -6 6h-101q-10 0 -10 10v70q0 10 10 10h101q6 0 6 6v102q0 10 10 10h73q10 0 10 -10v-102q0 -6 6 -6h100q10 0 10 -10v-70q0 -10 -10 -10h-100q-6 0 -6 -6v-102q0 -10 -10 -10zM352 0h-306q-10 0 -10 10v69q0 10 10 10h306q10 0 10 -10
v-69q0 -10 -10 -10z" />
    <glyph glyph-name="twosuperior" unicode="&#xb2;" horiz-adv-x="281" 
d="M238 430h-193q-10 0 -10 10v48q0 8 5 16l111 169q17 24 17 54q0 23 -3 30q-7 16 -27 16q-21 0 -26 -16q-3 -7 -3 -40q0 -12 -12 -10l-54 6q-10 1 -10 12q0 35 6 53q21 66 101 66q81 0 102 -66q6 -18 6 -50q0 -51 -26 -90l-90 -136v-1h106q10 0 10 -10v-51q0 -10 -10 -10z
" />
    <glyph glyph-name="threesuperior" unicode="&#xb3;" horiz-adv-x="281" 
d="M139 422q-80 0 -101 65q-6 19 -6 40q0 11 10 12l54 6q12 2 12 -10q0 -19 3 -26q5 -16 26 -16q20 0 27 16q3 7 3 37q0 31 -3 40q-5 17 -27 17h-8q-10 0 -10 10v52q0 10 10 10h7q22 0 29 17q2 6 2 34q0 24 -3 31q-7 16 -27 16q-21 0 -26 -16q-3 -7 -3 -26q0 -12 -12 -10
l-54 6q-10 1 -10 12q0 21 6 40q21 65 101 65q81 0 102 -65q6 -19 6 -53t-4 -46q-9 -27 -36 -38v-1q27 -16 35 -40q5 -14 5 -55q0 -40 -6 -59q-21 -65 -102 -65z" />
    <glyph glyph-name="acute" unicode="&#xb4;" horiz-adv-x="415" 
d="M185 555h-57q-11 0 -6 10l69 125q6 10 16 10h81q5 0 6.5 -3t-1.5 -7l-90 -125q-7 -10 -18 -10z" />
    <glyph glyph-name="mu" unicode="&#xb5;" horiz-adv-x="407" 
d="M346 0h-82q-10 0 -10 10v38h-1q-18 -56 -76 -56q-18 0 -24 6v-168q0 -10 -10 -10h-82q-10 0 -10 10v642q0 10 10 10h82q10 0 10 -10v-317q0 -70 51 -70q50 0 50 70v317q0 10 10 10h82q10 0 10 -10v-462q0 -10 -10 -10z" />
    <glyph glyph-name="mu" unicode="&#x3bc;" horiz-adv-x="407" 
d="M346 0h-82q-10 0 -10 10v38h-1q-18 -56 -76 -56q-18 0 -24 6v-168q0 -10 -10 -10h-82q-10 0 -10 10v642q0 10 10 10h82q10 0 10 -10v-317q0 -70 51 -70q50 0 50 70v317q0 10 10 10h82q10 0 10 -10v-462q0 -10 -10 -10z" />
    <glyph glyph-name="paragraph" unicode="&#xb6;" horiz-adv-x="510" 
d="M440 -180h-61q-10 0 -10 10v759q0 6 -6 6h-54q-6 0 -6 -6v-759q0 -10 -10 -10h-61q-10 0 -10 10v428q-72 6 -117 65.5t-45 145.5q0 90 53 150.5t141 60.5h186q10 0 10 -10v-840q0 -10 -10 -10z" />
    <glyph glyph-name="periodcentered" unicode="&#xb7;" horiz-adv-x="197" 
d="M141 205h-85q-10 0 -10 10v99q0 10 10 10h85q10 0 10 -10v-99q0 -10 -10 -10z" />
    <glyph glyph-name="cedilla" unicode="&#xb8;" horiz-adv-x="415" 
d="M139 -145l61 145q4 10 13 10h59q10 0 7 -10l-51 -145q-4 -10 -16 -10h-66q-10 0 -7 10z" />
    <glyph glyph-name="onesuperior" unicode="&#xb9;" horiz-adv-x="281" 
d="M191 430h-61q-10 0 -10 10v307h-1l-57 -32q-12 -7 -12 5v61q0 8 8 13l60 37q8 5 15 5h58q10 0 10 -10v-386q0 -10 -10 -10z" />
    <glyph glyph-name="ordmasculine" unicode="&#xba;" horiz-adv-x="287" 
d="M144 386q-76 0 -97 63q-7 21 -7 88t7 88q21 63 97 63q75 0 96 -63q7 -21 7 -88t-7 -88q-21 -63 -96 -63zM144 449q26 0 32 21q4 12 4 67t-4 67q-6 21 -32 21q-27 0 -33 -21q-4 -12 -4 -67t4 -67q6 -21 33 -21z" />
    <glyph glyph-name="guillemotright" unicode="&#xbb;" horiz-adv-x="485" 
d="M271 79q-3 -3 -6.5 -1.5t-3.5 5.5v80q0 8 10 18l78 79q4 4 0 8l-78 79q-10 10 -10 18v80q0 4 3.5 5.5t6.5 -1.5l177 -178q7 -7 0 -14zM70 79q-3 -3 -6.5 -1.5t-3.5 5.5v80q0 8 10 18l79 79q4 4 0 8l-79 79q-10 10 -10 18v80q0 4 3.5 5.5t6.5 -1.5l177 -178q7 -7 0 -14z
" />
    <glyph glyph-name="onequarter" unicode="&#xbc;" horiz-adv-x="740" 
d="M220 274h-61q-10 0 -10 10v307h-1l-57 -32q-12 -7 -12 5v61q0 8 8 13l60 37q8 5 15 5h58q10 0 10 -10v-386q0 -10 -10 -10zM619 0h-55q-10 0 -10 10v36q0 6 -6 6h-123q-10 0 -10 10v50q0 7 3 16l88 268q3 10 12 10h62q10 0 7 -10l-89 -271v-3h50q6 0 6 6v95q0 10 10 10
h55q10 0 10 -10v-95q0 -6 5 -6h15q10 0 10 -10v-50q0 -10 -10 -10h-14q-6 0 -6 -6v-36q0 -10 -10 -10zM256 -9h-54q-10 0 -7 10l252 678q4 10 13 10h54q10 0 7 -10l-252 -678q-4 -10 -13 -10z" />
    <glyph glyph-name="onehalf" unicode="&#xbd;" horiz-adv-x="758" 
d="M220 274h-61q-10 0 -10 10v307h-1l-57 -32q-12 -7 -12 5v61q0 8 8 13l60 37q8 5 15 5h58q10 0 10 -10v-386q0 -10 -10 -10zM667 0h-193q-10 0 -10 10v48q0 8 5 16l111 169q17 24 17 54q0 23 -3 30q-7 16 -27 16q-21 0 -26 -16q-3 -8 -3 -40q0 -12 -12 -10l-54 6
q-10 1 -10 12q0 35 6 53q21 66 101 66q81 0 102 -66q6 -18 6 -50q0 -51 -26 -90l-90 -136v-1h106q10 0 10 -10v-51q0 -10 -10 -10zM256 -9h-54q-10 0 -7 10l252 678q4 10 13 10h54q10 0 7 -10l-252 -678q-4 -10 -13 -10z" />
    <glyph glyph-name="threequarters" unicode="&#xbe;" horiz-adv-x="779" 
d="M658 0h-55q-10 0 -10 10v36q0 6 -6 6h-123q-10 0 -10 10v50q0 7 3 16l88 268q3 10 12 10h62q10 0 7 -10l-89 -271v-3h50q6 0 6 6v95q0 10 10 10h55q10 0 10 -10v-95q0 -6 5 -6h15q10 0 10 -10v-50q0 -10 -10 -10h-14q-6 0 -6 -6v-36q0 -10 -10 -10zM296 -9h-54
q-10 0 -7 10l252 678q4 10 13 10h54q10 0 7 -10l-252 -678q-4 -10 -13 -10zM186 266q-80 0 -101 65q-6 19 -6 40q0 11 10 12l54 6q12 2 12 -10q0 -19 3 -26q5 -16 26 -16q20 0 27 16q3 7 3 37q0 31 -3 40q-5 17 -27 17h-8q-10 0 -10 10v52q0 10 10 10h7q22 0 29 17q2 6 2 34
q0 24 -3 31q-7 16 -27 16q-21 0 -26 -16q-3 -7 -3 -26q0 -12 -12 -10l-54 6q-10 1 -10 12q0 21 6 40q21 65 101 65q81 0 102 -65q6 -19 6 -53t-4 -46q-9 -27 -36 -38v-1q27 -16 35 -40q5 -14 5 -55q0 -40 -6 -59q-21 -65 -102 -65z" />
    <glyph glyph-name="questiondown" unicode="&#xbf;" horiz-adv-x="391" 
d="M251 312q10 0 10 -10v-75q0 -33 -19 -68l-56 -103q-25 -47 -25 -102q0 -23 4 -36q11 -32 46 -32t47 32q4 13 4 63q0 12 11 10l78 -7q10 -1 10 -12q0 -58 -9 -84q-15 -44 -53 -69.5t-90 -25.5q-54 0 -90 25.5t-51 69.5q-9 27 -9 66q0 63 28 118l56 105q16 30 16 55v70
q0 10 10 10h82zM262 472v-99q0 -10 -10 -10h-84q-10 0 -10 10v99q0 10 10 10h84q10 0 10 -10z" />
    <glyph glyph-name="Agrave" unicode="&#xc0;" horiz-adv-x="421" 
d="M12 10l147 660q3 10 11 10h84q9 0 11 -10l144 -660q2 -10 -8 -10h-85q-9 0 -11 10l-27 137h-135l-27 -137q-2 -10 -11 -10h-85q-10 0 -8 10zM160 237h101l-48 253h-3zM239 761h-55q-10 0 -20 10l-99 107q-3 4 -1.5 7t6.5 3h81q10 0 17 -10l76 -107q3 -4 1.5 -7t-6.5 -3z
" />
    <glyph glyph-name="Aacute" unicode="&#xc1;" horiz-adv-x="421" 
d="M12 10l147 660q3 10 11 10h84q9 0 11 -10l144 -660q2 -10 -8 -10h-85q-9 0 -11 10l-27 137h-135l-27 -137q-2 -10 -11 -10h-85q-10 0 -8 10zM160 237h101l-48 253h-3zM238 761h-55q-5 0 -7 3t1 7l77 107q7 10 16 10h81q5 0 6.5 -3t-1.5 -7l-98 -107q-10 -10 -20 -10z" />
    <glyph glyph-name="Acircumflex" unicode="&#xc2;" horiz-adv-x="421" 
d="M12 10l147 660q3 10 11 10h84q9 0 11 -10l144 -660q2 -10 -8 -10h-85q-9 0 -11 10l-27 137h-135l-27 -137q-2 -10 -11 -10h-85q-10 0 -8 10zM160 237h101l-48 253h-3zM337 750h-60q-10 0 -19 10l-48 60h-2l-47 -60q-9 -10 -19 -10h-60q-4 0 -5.5 3t1.5 7l88 125
q7 10 17 10h52q11 0 18 -10l88 -125q3 -4 2 -7t-6 -3z" />
    <glyph glyph-name="Atilde" unicode="&#xc3;" horiz-adv-x="421" 
d="M12 10l147 660q3 10 11 10h84q9 0 11 -10l144 -660q2 -10 -8 -10h-85q-9 0 -11 10l-27 137h-135l-27 -137q-2 -10 -11 -10h-85q-10 0 -8 10zM160 237h101l-48 253h-3zM254 763q-24 0 -52 18q-23 16 -38 16q-22 0 -48 -26q-4 -4 -8 -2.5t-4 6.5v61q0 9 10 19q24 24 51 24
q25 0 51 -18q25 -16 39 -16q22 0 48 26q4 4 8 2.5t4 -6.5v-61q0 -9 -10 -19q-24 -24 -51 -24z" />
    <glyph glyph-name="Adieresis" unicode="&#xc4;" horiz-adv-x="421" 
d="M12 10l147 660q3 10 11 10h84q9 0 11 -10l144 -660q2 -10 -8 -10h-85q-9 0 -11 10l-27 137h-135l-27 -137q-2 -10 -11 -10h-85q-10 0 -8 10zM160 237h101l-48 253h-3zM318 769h-65q-10 0 -10 10v86q0 10 10 10h65q10 0 10 -10v-86q0 -10 -10 -10zM166 769h-65
q-10 0 -10 10v86q0 10 10 10h65q10 0 10 -10v-86q0 -10 -10 -10z" />
    <glyph glyph-name="Aring" unicode="&#xc5;" horiz-adv-x="421" 
d="M12 10l147 660q3 10 11 10h84q9 0 11 -10l144 -660q2 -10 -8 -10h-85q-9 0 -11 10l-27 137h-135l-27 -137q-2 -10 -11 -10h-85q-10 0 -8 10zM160 237h101l-48 253h-3zM209 721q-38 0 -64 26t-26 65q0 38 26 64t64 26q39 0 65 -26t26 -64q0 -39 -26 -65t-65 -26zM209 764
q20 0 33 14t13 34t-13 33.5t-33 13.5q-19 0 -32 -13.5t-13 -33.5t13 -34t32 -14z" />
    <glyph glyph-name="AE" unicode="&#xc6;" horiz-adv-x="656" 
d="M617 0h-278q-10 0 -10 10v131q0 6 -6 6h-157l-50 -137q-3 -10 -13 -10h-84q-10 0 -7 10l247 660q3 10 11 10h347q10 0 10 -10v-77q0 -10 -10 -10h-175q-6 0 -6 -6v-179q0 -6 6 -6h152q10 0 10 -10v-77q0 -10 -10 -10h-152q-6 0 -6 -6v-186q0 -6 6 -6h175q10 0 10 -10v-77
q0 -10 -10 -10zM326 582l-127 -345h124q6 0 6 6v339h-3z" />
    <glyph glyph-name="Ccedilla" unicode="&#xc7;" horiz-adv-x="387" 
d="M112 -145l58 139q-89 15 -116 101q-13 40 -13 245t13 245q34 104 154 104q155 0 164 -163q2 -11 -7 -12l-81 -14q-11 -2 -11 9q-4 83 -62 83q-42 0 -54 -38q-7 -22 -7 -214t7 -214q12 -38 54 -38q58 0 62 83q0 11 11 9l81 -14q9 -1 7 -12q-7 -138 -122 -159l-49 -140
q-4 -10 -16 -10h-66q-10 0 -7 10z" />
    <glyph glyph-name="Egrave" unicode="&#xc8;" horiz-adv-x="381" 
d="M237 761h-55q-10 0 -20 10l-99 107q-3 4 -1.5 7t6.5 3h81q10 0 17 -10l76 -107q3 -4 1.5 -7t-6.5 -3zM53 10v660q0 10 10 10h279q10 0 10 -10v-77q0 -10 -10 -10h-176q-6 0 -6 -6v-179q0 -6 6 -6h152q10 0 10 -10v-77q0 -10 -10 -10h-152q-6 0 -6 -6v-186q0 -6 6 -6h176
q10 0 10 -10v-77q0 -10 -10 -10h-279q-10 0 -10 10z" />
    <glyph glyph-name="Eacute" unicode="&#xc9;" horiz-adv-x="381" 
d="M220 761h-55q-5 0 -7 3t1 7l77 107q7 10 16 10h81q5 0 6.5 -3t-1.5 -7l-98 -107q-10 -10 -20 -10zM53 10v660q0 10 10 10h279q10 0 10 -10v-77q0 -10 -10 -10h-176q-6 0 -6 -6v-179q0 -6 6 -6h152q10 0 10 -10v-77q0 -10 -10 -10h-152q-6 0 -6 -6v-186q0 -6 6 -6h176
q10 0 10 -10v-77q0 -10 -10 -10h-279q-10 0 -10 10z" />
    <glyph glyph-name="Ecircumflex" unicode="&#xca;" horiz-adv-x="381" 
d="M53 10v660q0 10 10 10h279q10 0 10 -10v-77q0 -10 -10 -10h-176q-6 0 -6 -6v-179q0 -6 6 -6h152q10 0 10 -10v-77q0 -10 -10 -10h-152q-6 0 -6 -6v-186q0 -6 6 -6h176q10 0 10 -10v-77q0 -10 -10 -10h-279q-10 0 -10 10zM330 750h-60q-10 0 -19 10l-48 60h-2l-47 -60
q-9 -10 -19 -10h-60q-5 0 -6 3t2 7l88 125q7 10 17 10h52q11 0 18 -10l88 -125q3 -4 1.5 -7t-5.5 -3z" />
    <glyph glyph-name="Edieresis" unicode="&#xcb;" horiz-adv-x="381" 
d="M310 769h-65q-10 0 -10 10v86q0 10 10 10h65q10 0 10 -10v-86q0 -10 -10 -10zM158 769h-65q-10 0 -10 10v86q0 10 10 10h65q10 0 10 -10v-86q0 -10 -10 -10zM53 10v660q0 10 10 10h279q10 0 10 -10v-77q0 -10 -10 -10h-176q-6 0 -6 -6v-179q0 -6 6 -6h152q10 0 10 -10
v-77q0 -10 -10 -10h-152q-6 0 -6 -6v-186q0 -6 6 -6h176q10 0 10 -10v-77q0 -10 -10 -10h-279q-10 0 -10 10z" />
    <glyph glyph-name="Igrave" unicode="&#xcc;" horiz-adv-x="213" 
d="M53 10v660q0 10 10 10h87q10 0 10 -10v-660q0 -10 -10 -10h-87q-10 0 -10 10zM136 761h-55q-10 0 -20 10l-99 107q-3 4 -1.5 7t6.5 3h81q10 0 17 -10l76 -107q3 -4 1.5 -7t-6.5 -3z" />
    <glyph glyph-name="Iacute" unicode="&#xcd;" horiz-adv-x="213" 
d="M53 10v660q0 10 10 10h87q10 0 10 -10v-660q0 -10 -10 -10h-87q-10 0 -10 10zM132 761h-55q-5 0 -7 3t1 7l77 107q7 10 16 10h81q5 0 6.5 -3t-1.5 -7l-98 -107q-10 -10 -20 -10z" />
    <glyph glyph-name="Icircumflex" unicode="&#xce;" horiz-adv-x="213" 
d="M53 10v660q0 10 10 10h87q10 0 10 -10v-660q0 -10 -10 -10h-87q-10 0 -10 10zM234 750h-60q-10 0 -19 10l-48 60h-2l-47 -60q-9 -10 -19 -10h-60q-5 0 -6 3t2 7l88 125q7 10 17 10h52q11 0 18 -10l88 -125q3 -4 1.5 -7t-5.5 -3z" />
    <glyph glyph-name="Idieresis" unicode="&#xcf;" horiz-adv-x="213" 
d="M53 10v660q0 10 10 10h87q10 0 10 -10v-660q0 -10 -10 -10h-87q-10 0 -10 10zM215 769h-65q-10 0 -10 10v86q0 10 10 10h65q10 0 10 -10v-86q0 -10 -10 -10zM63 769h-65q-10 0 -10 10v86q0 10 10 10h65q10 0 10 -10v-86q0 -10 -10 -10z" />
    <glyph glyph-name="Eth" unicode="&#xd0;" horiz-adv-x="443" 
d="M220 0h-157q-10 0 -10 10v287q0 6 -6 6h-26q-10 0 -10 10v60q0 10 10 10h26q6 0 6 6v281q0 10 10 10h157q129 0 165 -109q17 -52 17 -231t-17 -231q-36 -109 -165 -109zM209 97q55 0 72 49q12 38 12 194t-12 194q-17 49 -72 49h-43q-6 0 -6 -6v-188q0 -6 6 -6h57
q10 0 10 -10v-60q0 -10 -10 -10h-57q-6 0 -6 -6v-194q0 -6 6 -6h43z" />
    <glyph glyph-name="Ntilde" unicode="&#xd1;" horiz-adv-x="461" 
d="M275 763q-24 0 -52 18q-23 16 -38 16q-22 0 -48 -26q-4 -4 -8 -2.5t-4 6.5v61q0 9 10 19q24 24 51 24q25 0 51 -18q25 -16 39 -16q22 0 48 26q4 4 8 2.5t4 -6.5v-61q0 -9 -10 -19q-24 -24 -51 -24zM53 10v660q0 10 10 10h106q11 0 14 -10l126 -470h5v470q0 10 10 10h74
q10 0 10 -10v-660q0 -10 -10 -10h-99q-11 0 -14 10l-132 470h-6v-470q0 -10 -10 -10h-74q-10 0 -10 10z" />
    <glyph glyph-name="Ograve" unicode="&#xd2;" horiz-adv-x="429" 
d="M244 761h-55q-10 0 -20 10l-99 107q-3 4 -1.5 7t6.5 3h81q10 0 17 -10l76 -107q3 -4 1.5 -7t-6.5 -3zM215 -9q-126 0 -161 106q-8 24 -10.5 66t-2.5 177t2.5 177t10.5 66q35 106 161 106q125 0 160 -106q8 -24 10.5 -66t2.5 -177t-2.5 -177t-10.5 -66q-35 -106 -160 -106
zM215 88q45 0 57 38q7 22 7 214t-7 214q-12 38 -57 38q-46 0 -58 -38q-7 -22 -7 -214t7 -214q12 -38 58 -38z" />
    <glyph glyph-name="Oacute" unicode="&#xd3;" horiz-adv-x="429" 
d="M230 761h-55q-5 0 -7 3t1 7l77 107q7 10 16 10h81q5 0 6.5 -3t-1.5 -7l-98 -107q-10 -10 -20 -10zM215 -9q-126 0 -161 106q-8 24 -10.5 66t-2.5 177t2.5 177t10.5 66q35 106 161 106q125 0 160 -106q8 -24 10.5 -66t2.5 -177t-2.5 -177t-10.5 -66q-35 -106 -160 -106z
M215 88q45 0 57 38q7 22 7 214t-7 214q-12 38 -57 38q-46 0 -58 -38q-7 -22 -7 -214t7 -214q12 -38 58 -38z" />
    <glyph glyph-name="Ocircumflex" unicode="&#xd4;" horiz-adv-x="429" 
d="M215 -9q-126 0 -161 106q-8 24 -10.5 66t-2.5 177t2.5 177t10.5 66q35 106 161 106q125 0 160 -106q8 -24 10.5 -66t2.5 -177t-2.5 -177t-10.5 -66q-35 -106 -160 -106zM215 88q45 0 57 38q7 22 7 214t-7 214q-12 38 -57 38q-46 0 -58 -38q-7 -22 -7 -214t7 -214
q12 -38 58 -38zM342 750h-60q-10 0 -19 10l-48 60h-2l-47 -60q-9 -10 -19 -10h-60q-5 0 -6 3t2 7l88 125q7 10 17 10h52q11 0 18 -10l88 -125q3 -4 1.5 -7t-5.5 -3z" />
    <glyph glyph-name="Otilde" unicode="&#xd5;" horiz-adv-x="429" 
d="M259 763q-24 0 -52 18q-23 16 -38 16q-22 0 -48 -26q-4 -4 -8 -2.5t-4 6.5v61q0 9 10 19q24 24 51 24q25 0 51 -18q25 -16 39 -16q22 0 48 26q4 4 8 2.5t4 -6.5v-61q0 -9 -10 -19q-24 -24 -51 -24zM215 -9q-126 0 -161 106q-8 24 -10.5 66t-2.5 177t2.5 177t10.5 66
q35 106 161 106q125 0 160 -106q8 -24 10.5 -66t2.5 -177t-2.5 -177t-10.5 -66q-35 -106 -160 -106zM215 88q45 0 57 38q7 22 7 214t-7 214q-12 38 -57 38q-46 0 -58 -38q-7 -22 -7 -214t7 -214q12 -38 58 -38z" />
    <glyph glyph-name="Odieresis" unicode="&#xd6;" horiz-adv-x="429" 
d="M323 769h-65q-10 0 -10 10v86q0 10 10 10h65q10 0 10 -10v-86q0 -10 -10 -10zM171 769h-65q-10 0 -10 10v86q0 10 10 10h65q10 0 10 -10v-86q0 -10 -10 -10zM215 -9q-126 0 -161 106q-8 24 -10.5 66t-2.5 177t2.5 177t10.5 66q35 106 161 106q125 0 160 -106
q8 -24 10.5 -66t2.5 -177t-2.5 -177t-10.5 -66q-35 -106 -160 -106zM215 88q45 0 57 38q7 22 7 214t-7 214q-12 38 -57 38q-46 0 -58 -38q-7 -22 -7 -214t7 -214q12 -38 58 -38z" />
    <glyph glyph-name="multiply" unicode="&#xd7;" 
d="M342 180l-46 -47q-7 -7 -14 0l-79 79q-4 3 -8 0l-78 -79q-7 -7 -14 0l-47 47q-7 7 0 14l79 78q3 4 0 8l-79 78q-7 7 0 14l47 47q7 7 14 0l78 -79q4 -3 8 0l79 79q7 7 14 0l46 -47q7 -7 0 -14l-79 -78q-3 -4 0 -8l79 -78q7 -7 0 -14z" />
    <glyph glyph-name="Oslash" unicode="&#xd8;" horiz-adv-x="429" 
d="M67 -30h-27q-11 0 -6 10l35 82q-10 18 -15 35q-8 24 -10.5 66t-2.5 177t2.5 177t10.5 66q35 106 161 106q69 0 113 -36l21 48q4 9 13 9h26q10 0 7 -10l-36 -82q11 -20 16 -35q8 -24 10.5 -66t2.5 -177t-2.5 -177t-10.5 -66q-35 -106 -160 -106q-71 0 -115 35l-20 -47
q-4 -9 -13 -9zM150 340v-102l125 305l-3 11q-12 38 -57 38q-46 0 -58 -38q-7 -22 -7 -214zM215 88q45 0 57 38q7 22 7 214v101l-125 -304l3 -11q12 -38 58 -38z" />
    <glyph glyph-name="Ugrave" unicode="&#xd9;" horiz-adv-x="443" 
d="M255 761h-55q-10 0 -20 10l-99 107q-3 4 -1.5 7t6.5 3h81q10 0 17 -10l76 -107q3 -4 1.5 -7t-6.5 -3zM222 -9q-80 0 -125 46.5t-45 135.5v497q0 10 10 10h87q10 0 10 -10v-511q0 -33 16.5 -52t46.5 -19t46 19t16 52v511q0 10 10 10h87q10 0 10 -10v-497
q0 -89 -44.5 -135.5t-124.5 -46.5z" />
    <glyph glyph-name="Uacute" unicode="&#xda;" horiz-adv-x="443" 
d="M248 761h-55q-5 0 -7 3t1 7l77 107q7 10 16 10h81q5 0 6.5 -3t-1.5 -7l-98 -107q-10 -10 -20 -10zM222 -9q-80 0 -125 46.5t-45 135.5v497q0 10 10 10h87q10 0 10 -10v-511q0 -33 16.5 -52t46.5 -19t46 19t16 52v511q0 10 10 10h87q10 0 10 -10v-497q0 -89 -44.5 -135.5
t-124.5 -46.5z" />
    <glyph glyph-name="Ucircumflex" unicode="&#xdb;" horiz-adv-x="443" 
d="M222 -9q-80 0 -125 46.5t-45 135.5v497q0 10 10 10h87q10 0 10 -10v-511q0 -33 16.5 -52t46.5 -19t46 19t16 52v511q0 10 10 10h87q10 0 10 -10v-497q0 -89 -44.5 -135.5t-124.5 -46.5zM349 750h-60q-10 0 -19 10l-48 60h-2l-47 -60q-9 -10 -19 -10h-60q-4 0 -5.5 3
t1.5 7l88 125q7 10 17 10h52q11 0 18 -10l88 -125q3 -4 2 -7t-6 -3z" />
    <glyph glyph-name="Udieresis" unicode="&#xdc;" horiz-adv-x="443" 
d="M330 769h-65q-10 0 -10 10v86q0 10 10 10h65q10 0 10 -10v-86q0 -10 -10 -10zM178 769h-65q-10 0 -10 10v86q0 10 10 10h65q10 0 10 -10v-86q0 -10 -10 -10zM222 -9q-80 0 -125 46.5t-45 135.5v497q0 10 10 10h87q10 0 10 -10v-511q0 -33 16.5 -52t46.5 -19t46 19t16 52
v511q0 10 10 10h87q10 0 10 -10v-497q0 -89 -44.5 -135.5t-124.5 -46.5z" />
    <glyph glyph-name="Yacute" unicode="&#xdd;" horiz-adv-x="386" 
d="M237 0h-87q-10 0 -10 10v269l-130 391q-3 10 8 10h88q9 0 12 -10l76 -263h3l74 263q3 10 12 10h86q11 0 8 -10l-130 -391v-269q0 -10 -10 -10zM218 761h-55q-5 0 -7 3t1 7l77 107q7 10 16 10h81q5 0 6.5 -3t-1.5 -7l-98 -107q-10 -10 -20 -10z" />
    <glyph glyph-name="Thorn" unicode="&#xde;" horiz-adv-x="425" 
d="M150 0h-87q-10 0 -10 10v660q0 10 10 10h87q10 0 10 -10v-104q0 -6 6 -6h34q95 0 144 -48.5t49 -160.5q0 -110 -49 -159.5t-144 -49.5h-34q-6 0 -6 -6v-126q0 -10 -10 -10zM201 239q46 0 65.5 24t19.5 88q0 63 -19.5 87.5t-65.5 24.5h-35q-6 0 -6 -6v-212q0 -6 6 -6h35z
" />
    <glyph glyph-name="germandbls" unicode="&#xdf;" horiz-adv-x="413" 
d="M237 -4h-18q-10 0 -10 10v73q0 10 10 10h7q30 0 37 24q5 15 5 105q0 89 -5 104q-8 24 -37 24h-7q-10 0 -10 10v73q0 10 10 10h5q29 0 36 24q4 12 4 59q0 73 -55 73q-56 0 -56 -73v-512q0 -10 -10 -10h-82q-10 0 -10 10v501q0 84 38.5 131t118.5 47q75 0 116.5 -42
t41.5 -117q0 -54 -11 -80t-42 -48v-2q36 -22 48 -59q9 -27 9 -123q0 -116 -11 -148q-23 -74 -122 -74z" />
    <glyph glyph-name="agrave" unicode="&#xe0;" horiz-adv-x="383" 
d="M327 0h-78q-10 0 -10 10v38h-1q-9 -26 -33 -41.5t-56 -15.5q-48 0 -81.5 34t-33.5 110q0 80 41 116.5t106 36.5h52q6 0 6 6v28q0 41 -14.5 59t-51.5 18q-39 0 -80 -28q-10 -7 -15 4l-26 59q-4 7 3 14q55 43 131 43q81 0 116 -38.5t35 -126.5v-316q0 -10 -10 -10zM179 75
q27 0 43.5 19t16.5 49v57q0 6 -6 6h-35q-67 0 -67 -67q0 -64 48 -64zM228 555h-57q-11 0 -18 10l-90 125q-3 4 -1.5 7t6.5 3h81q10 0 16 -10l69 -125q5 -10 -6 -10z" />
    <glyph glyph-name="aacute" unicode="&#xe1;" horiz-adv-x="383" 
d="M327 0h-78q-10 0 -10 10v38h-1q-9 -26 -33 -41.5t-56 -15.5q-48 0 -81.5 34t-33.5 110q0 80 41 116.5t106 36.5h52q6 0 6 6v28q0 41 -14.5 59t-51.5 18q-39 0 -80 -28q-10 -7 -15 4l-26 59q-4 7 3 14q55 43 131 43q81 0 116 -38.5t35 -126.5v-316q0 -10 -10 -10zM179 75
q27 0 43.5 19t16.5 49v57q0 6 -6 6h-35q-67 0 -67 -67q0 -64 48 -64zM215 555h-57q-11 0 -6 10l69 125q6 10 16 10h81q5 0 6.5 -3t-1.5 -7l-90 -125q-7 -10 -18 -10z" />
    <glyph glyph-name="acircumflex" unicode="&#xe2;" horiz-adv-x="383" 
d="M327 0h-78q-10 0 -10 10v38h-1q-9 -26 -33 -41.5t-56 -15.5q-48 0 -81.5 34t-33.5 110q0 80 41 116.5t106 36.5h52q6 0 6 6v28q0 41 -14.5 59t-51.5 18q-39 0 -80 -28q-10 -7 -15 4l-26 59q-4 7 3 14q55 43 131 43q81 0 116 -38.5t35 -126.5v-316q0 -10 -10 -10zM179 75
q27 0 43.5 19t16.5 49v57q0 6 -6 6h-35q-67 0 -67 -67q0 -64 48 -64zM319 555h-60q-10 0 -19 10l-48 60h-2l-47 -60q-9 -10 -19 -10h-60q-4 0 -5.5 3t1.5 7l88 125q7 10 17 10h52q11 0 18 -10l88 -125q3 -4 2 -7t-6 -3z" />
    <glyph glyph-name="atilde" unicode="&#xe3;" horiz-adv-x="383" 
d="M327 0h-78q-10 0 -10 10v38h-1q-9 -26 -33 -41.5t-56 -15.5q-48 0 -81.5 34t-33.5 110q0 80 41 116.5t106 36.5h52q6 0 6 6v28q0 41 -14.5 59t-51.5 18q-39 0 -80 -28q-10 -7 -15 4l-26 59q-4 7 3 14q55 43 131 43q81 0 116 -38.5t35 -126.5v-316q0 -10 -10 -10zM179 75
q27 0 43.5 19t16.5 49v57q0 6 -6 6h-35q-67 0 -67 -67q0 -64 48 -64zM236 567q-24 0 -52 18q-23 16 -38 16q-22 0 -48 -26q-4 -4 -8 -2.5t-4 6.5v61q0 9 10 19q24 24 51 24q25 0 51 -18q25 -16 39 -16q24 0 48 26q4 4 8 2.5t4 -6.5v-61q0 -9 -10 -19q-24 -24 -51 -24z" />
    <glyph glyph-name="adieresis" unicode="&#xe4;" horiz-adv-x="383" 
d="M327 0h-78q-10 0 -10 10v38h-1q-9 -26 -33 -41.5t-56 -15.5q-48 0 -81.5 34t-33.5 110q0 80 41 116.5t106 36.5h52q6 0 6 6v28q0 41 -14.5 59t-51.5 18q-39 0 -80 -28q-10 -7 -15 4l-26 59q-4 7 3 14q55 43 131 43q81 0 116 -38.5t35 -126.5v-316q0 -10 -10 -10zM179 75
q27 0 43.5 19t16.5 49v57q0 6 -6 6h-35q-67 0 -67 -67q0 -64 48 -64zM300 574h-65q-10 0 -10 10v86q0 10 10 10h65q10 0 10 -10v-86q0 -10 -10 -10zM148 574h-65q-10 0 -10 10v86q0 10 10 10h65q10 0 10 -10v-86q0 -10 -10 -10z" />
    <glyph glyph-name="aring" unicode="&#xe5;" horiz-adv-x="383" 
d="M327 0h-78q-10 0 -10 10v38h-1q-9 -26 -33 -41.5t-56 -15.5q-48 0 -81.5 34t-33.5 110q0 80 41 116.5t106 36.5h52q6 0 6 6v28q0 41 -14.5 59t-51.5 18q-39 0 -80 -28q-10 -7 -15 4l-26 59q-4 7 3 14q55 43 131 43q81 0 116 -38.5t35 -126.5v-316q0 -10 -10 -10zM179 75
q27 0 43.5 19t16.5 49v57q0 6 -6 6h-35q-67 0 -67 -67q0 -64 48 -64zM191 539q-38 0 -64 26t-26 64q0 39 26 65t64 26q39 0 65 -26t26 -65q0 -38 -26 -64t-65 -26zM191 582q20 0 33 13.5t13 33.5q0 21 -13 34.5t-33 13.5t-32.5 -13.5t-12.5 -34.5q0 -20 13 -33.5t32 -13.5z
" />
    <glyph glyph-name="ae" unicode="&#xe6;" horiz-adv-x="578" 
d="M388 -9q-86 0 -123 58h-1q-24 -33 -50.5 -45.5t-64.5 -12.5q-47 0 -81 34t-34 110q0 80 41 116.5t106 36.5h52q6 0 6 6v28q0 41 -14.5 59t-51.5 18q-39 0 -80 -28q-10 -7 -15 4l-26 59q-4 7 3 14q55 43 131 43q72 0 106 -33h1q35 33 96 33q113 0 144 -96q11 -38 11 -179
q0 -10 -10 -10h-191q-6 0 -6 -6q0 -65 5 -83q11 -33 47 -33q40 0 53 44q3 9 12 7l77 -15q9 -1 7 -12q-11 -54 -51 -85.5t-99 -31.5zM436 288q6 0 6 6q0 55 -7 74q-10 32 -46 32t-46 -32q-6 -16 -6 -74q0 -6 6 -6h93zM179 75q27 0 43.5 19t16.5 49v57q0 6 -6 6h-35
q-67 0 -67 -67q0 -64 48 -64z" />
    <glyph glyph-name="ccedilla" unicode="&#xe7;" horiz-adv-x="357" 
d="M88 -145l59 140q-74 17 -98 91q-12 37 -12 155t12 155q31 95 139 95q63 0 103 -36t44 -95q0 -10 -8 -11l-76 -15q-11 -2 -12 9q-7 54 -51 54q-34 0 -44 -31q-5 -16 -5 -125t5 -125q10 -31 44 -31q44 0 51 54q1 11 12 9l76 -15q8 -1 8 -11q-3 -50 -32 -83.5t-77 -43.5
l-49 -140q-4 -10 -16 -10h-66q-10 0 -7 10z" />
    <glyph glyph-name="egrave" unicode="&#xe8;" horiz-adv-x="380" 
d="M190 -9q-111 0 -142 96q-11 33 -11 154t11 154q31 96 143 96q113 0 144 -96q11 -33 11 -179q0 -10 -10 -10h-191q-6 0 -6 -6q0 -65 5 -83q11 -32 47 -32q40 0 53 43q3 9 12 7l77 -15q9 -1 7 -12q-10 -54 -50.5 -85.5t-99.5 -31.5zM191 400q-36 0 -46 -32q-6 -16 -6 -74
q0 -6 6 -6h93q6 0 6 6q0 58 -6 74q-10 32 -47 32zM228 555h-57q-11 0 -18 10l-90 125q-3 4 -1.5 7t6.5 3h81q10 0 16 -10l69 -125q5 -10 -6 -10z" />
    <glyph glyph-name="eacute" unicode="&#xe9;" horiz-adv-x="380" 
d="M206 555h-57q-11 0 -6 10l69 125q6 10 16 10h81q5 0 6.5 -3t-1.5 -7l-90 -125q-7 -10 -18 -10zM190 -9q-111 0 -142 96q-11 33 -11 154t11 154q31 96 143 96q113 0 144 -96q11 -33 11 -179q0 -10 -10 -10h-191q-6 0 -6 -6q0 -65 5 -83q11 -32 47 -32q40 0 53 43q3 9 12 7
l77 -15q9 -1 7 -12q-10 -54 -50.5 -85.5t-99.5 -31.5zM191 400q-36 0 -46 -32q-6 -16 -6 -74q0 -6 6 -6h93q6 0 6 6q0 58 -6 74q-10 32 -47 32z" />
    <glyph glyph-name="ecircumflex" unicode="&#xea;" horiz-adv-x="380" 
d="M318 555h-60q-10 0 -19 10l-48 60h-2l-47 -60q-9 -10 -19 -10h-60q-5 0 -6 3t2 7l88 125q7 10 17 10h52q11 0 18 -10l88 -125q3 -4 1.5 -7t-5.5 -3zM190 -9q-111 0 -142 96q-11 33 -11 154t11 154q31 96 143 96q113 0 144 -96q11 -33 11 -179q0 -10 -10 -10h-191
q-6 0 -6 -6q0 -65 5 -83q11 -32 47 -32q40 0 53 43q3 9 12 7l77 -15q9 -1 7 -12q-10 -54 -50.5 -85.5t-99.5 -31.5zM191 400q-36 0 -46 -32q-6 -16 -6 -74q0 -6 6 -6h93q6 0 6 6q0 58 -6 74q-10 32 -47 32z" />
    <glyph glyph-name="edieresis" unicode="&#xeb;" horiz-adv-x="380" 
d="M299 574h-65q-10 0 -10 10v86q0 10 10 10h65q10 0 10 -10v-86q0 -10 -10 -10zM147 574h-65q-10 0 -10 10v86q0 10 10 10h65q10 0 10 -10v-86q0 -10 -10 -10zM190 -9q-111 0 -142 96q-11 33 -11 154t11 154q31 96 143 96q113 0 144 -96q11 -33 11 -179q0 -10 -10 -10h-191
q-6 0 -6 -6q0 -65 5 -83q11 -32 47 -32q40 0 53 43q3 9 12 7l77 -15q9 -1 7 -12q-10 -54 -50.5 -85.5t-99.5 -31.5zM191 400q-36 0 -46 -32q-6 -16 -6 -74q0 -6 6 -6h93q6 0 6 6q0 58 -6 74q-10 32 -47 32z" />
    <glyph glyph-name="igrave" unicode="&#xec;" horiz-adv-x="204" 
d="M143 0h-82q-10 0 -10 10v462q0 10 10 10h82q10 0 10 -10v-462q0 -10 -10 -10zM135 555h-57q-10 0 -18 10l-90 125q-3 4 -1.5 7t6.5 3h81q10 0 16 -10l69 -125q5 -10 -6 -10z" />
    <glyph glyph-name="iacute" unicode="&#xed;" horiz-adv-x="204" 
d="M131 555h-57q-11 0 -6 10l69 125q6 10 16 10h81q5 0 6.5 -3t-1.5 -7l-90 -125q-7 -10 -18 -10zM143 0h-82q-10 0 -10 10v462q0 10 10 10h82q10 0 10 -10v-462q0 -10 -10 -10z" />
    <glyph glyph-name="icircumflex" unicode="&#xee;" horiz-adv-x="204" 
d="M230 555h-60q-10 0 -19 10l-48 60h-2l-47 -60q-9 -10 -19 -10h-60q-5 0 -6 3t2 7l88 125q7 10 17 10h52q11 0 18 -10l88 -125q3 -4 1.5 -7t-5.5 -3zM143 0h-82q-10 0 -10 10v462q0 10 10 10h82q10 0 10 -10v-462q0 -10 -10 -10z" />
    <glyph glyph-name="idieresis" unicode="&#xef;" horiz-adv-x="204" 
d="M211 574h-65q-10 0 -10 10v86q0 10 10 10h65q10 0 10 -10v-86q0 -10 -10 -10zM59 574h-65q-10 0 -10 10v86q0 10 10 10h65q10 0 10 -10v-86q0 -10 -10 -10zM143 0h-82q-10 0 -10 10v462q0 10 10 10h82q10 0 10 -10v-462q0 -10 -10 -10z" />
    <glyph glyph-name="eth" unicode="&#xf0;" horiz-adv-x="385" 
d="M310 574l-50 -16l22 -42q40 -76 53 -131.5t13 -153.5q0 -107 -11 -141q-15 -47 -53 -73t-92 -26t-91.5 26t-52.5 73q-11 34 -11 135q0 103 13 144q31 92 118 92q32 0 47 -11h1l-43 80l-67 -21q-8 -3 -11 6l-16 48q-3 9 7 12l55 17l-41 78q-5 10 6 10h81q9 0 15 -10
l26 -50l62 20q8 3 11 -6l16 -48q3 -9 -7 -12zM192 85q36 0 49 35q5 18 5 105q0 91 -5 109q-13 35 -49 35t-48 -35q-5 -18 -5 -109q0 -87 5 -105q11 -35 48 -35z" />
    <glyph glyph-name="ntilde" unicode="&#xf1;" horiz-adv-x="405" 
d="M348 0h-82q-10 0 -10 10v317q0 70 -52 70q-51 0 -51 -70v-317q0 -10 -10 -10h-82q-10 0 -10 10v462q0 10 10 10h82q10 0 10 -10v-38h1q29 57 92 57q112 0 112 -150v-331q0 -10 -10 -10zM247 567q-24 0 -52 18q-23 16 -38 16q-22 0 -48 -26q-4 -4 -8 -2.5t-4 6.5v61
q0 9 10 19q24 24 51 24q25 0 51 -18q25 -16 39 -16q24 0 48 26q4 4 8 2.5t4 -6.5v-61q0 -9 -10 -19q-24 -24 -51 -24z" />
    <glyph glyph-name="ograve" unicode="&#xf2;" horiz-adv-x="385" 
d="M348 241q0 -117 -11 -151q-15 -47 -52.5 -73t-92.5 -26q-54 0 -91.5 26t-52.5 73q-11 34 -11 151t11 151q15 47 52.5 73t91.5 26q55 0 92.5 -26t52.5 -73q11 -34 11 -151zM246 241q0 105 -5 122q-11 34 -49 34q-37 0 -48 -34q-5 -17 -5 -122t5 -122q11 -34 48 -34
q38 0 49 34q5 17 5 122zM224 555h-57q-11 0 -18 10l-90 125q-3 4 -1.5 7t6.5 3h81q10 0 16 -10l69 -125q5 -10 -6 -10z" />
    <glyph glyph-name="oacute" unicode="&#xf3;" horiz-adv-x="385" 
d="M213 555h-57q-11 0 -6 10l69 125q6 10 16 10h81q5 0 6.5 -3t-1.5 -7l-90 -125q-7 -10 -18 -10zM348 241q0 -117 -11 -151q-15 -47 -52.5 -73t-92.5 -26q-54 0 -91.5 26t-52.5 73q-11 34 -11 151t11 151q15 47 52.5 73t91.5 26q55 0 92.5 -26t52.5 -73q11 -34 11 -151z
M246 241q0 105 -5 122q-11 34 -49 34q-37 0 -48 -34q-5 -17 -5 -122t5 -122q11 -34 48 -34q38 0 49 34q5 17 5 122z" />
    <glyph glyph-name="ocircumflex" unicode="&#xf4;" horiz-adv-x="385" 
d="M320 555h-60q-10 0 -19 10l-48 60h-2l-47 -60q-9 -10 -19 -10h-60q-5 0 -6 3t2 7l88 125q7 10 17 10h52q11 0 18 -10l88 -125q3 -4 1.5 -7t-5.5 -3zM348 241q0 -117 -11 -151q-15 -47 -52.5 -73t-92.5 -26q-54 0 -91.5 26t-52.5 73q-11 34 -11 151t11 151q15 47 52.5 73
t91.5 26q55 0 92.5 -26t52.5 -73q11 -34 11 -151zM246 241q0 105 -5 122q-11 34 -49 34q-37 0 -48 -34q-5 -17 -5 -122t5 -122q11 -34 48 -34q38 0 49 34q5 17 5 122z" />
    <glyph glyph-name="otilde" unicode="&#xf5;" horiz-adv-x="385" 
d="M348 241q0 -117 -11 -151q-15 -47 -52.5 -73t-92.5 -26q-54 0 -91.5 26t-52.5 73q-11 34 -11 151t11 151q15 47 52.5 73t91.5 26q55 0 92.5 -26t52.5 -73q11 -34 11 -151zM246 241q0 105 -5 122q-11 34 -49 34q-37 0 -48 -34q-5 -17 -5 -122t5 -122q11 -34 48 -34
q38 0 49 34q5 17 5 122zM237 567q-24 0 -52 18q-23 16 -38 16q-22 0 -48 -26q-4 -4 -8 -2.5t-4 6.5v61q0 9 10 19q24 24 51 24q25 0 51 -18q25 -16 39 -16q24 0 48 26q4 4 8 2.5t4 -6.5v-61q0 -9 -10 -19q-24 -24 -51 -24z" />
    <glyph glyph-name="odieresis" unicode="&#xf6;" horiz-adv-x="385" 
d="M301 574h-65q-10 0 -10 10v86q0 10 10 10h65q10 0 10 -10v-86q0 -10 -10 -10zM149 574h-65q-10 0 -10 10v86q0 10 10 10h65q10 0 10 -10v-86q0 -10 -10 -10zM348 241q0 -117 -11 -151q-15 -47 -52.5 -73t-92.5 -26q-54 0 -91.5 26t-52.5 73q-11 34 -11 151t11 151
q15 47 52.5 73t91.5 26q55 0 92.5 -26t52.5 -73q11 -34 11 -151zM246 241q0 105 -5 122q-11 34 -49 34q-37 0 -48 -34q-5 -17 -5 -122t5 -122q11 -34 48 -34q38 0 49 34q5 17 5 122z" />
    <glyph glyph-name="divide" unicode="&#xf7;" 
d="M199 382q-27 0 -44.5 17t-17.5 45q0 27 17.5 44t44.5 17t44.5 -17t17.5 -44q0 -28 -17.5 -45t-44.5 -17zM352 231h-306q-10 0 -10 10v70q0 10 10 10h306q10 0 10 -10v-70q0 -10 -10 -10zM199 47q-27 0 -44.5 17t-17.5 44q0 28 17.5 45t44.5 17t44.5 -17t17.5 -45
q0 -27 -17.5 -44t-44.5 -17z" />
    <glyph glyph-name="oslash" unicode="&#xf8;" horiz-adv-x="385" 
d="M348 241q0 -117 -11 -151q-15 -47 -52.5 -73t-92.5 -26t-92 26l-19 -37q-5 -10 -13 -10h-22q-12 0 -7 10l33 64q-17 20 -24 46q-11 34 -11 151t11 151q15 47 52.5 73t91.5 26q55 0 93 -26l19 37q5 10 13 10h22q12 0 7 -10l-33 -65q15 -19 24 -45q11 -34 11 -151zM138 241
v-72l99 206q-14 23 -45 23q-38 0 -49 -34q-5 -18 -5 -123zM247 241v69l-99 -204q14 -22 44 -22q39 0 50 34q5 18 5 123z" />
    <glyph glyph-name="ugrave" unicode="&#xf9;" horiz-adv-x="403" 
d="M342 0h-82q-10 0 -10 10v38h-1q-29 -57 -91 -57q-111 0 -111 150v331q0 10 10 10h82q10 0 10 -10v-317q0 -70 50 -70q51 0 51 70v317q0 10 10 10h82q10 0 10 -10v-462q0 -10 -10 -10zM233 555h-57q-10 0 -18 10l-90 125q-3 4 -1.5 7t6.5 3h81q10 0 16 -10l69 -125
q5 -10 -6 -10z" />
    <glyph glyph-name="uacute" unicode="&#xfa;" horiz-adv-x="403" 
d="M226 555h-57q-11 0 -6 10l69 125q6 10 16 10h81q5 0 6.5 -3t-1.5 -7l-90 -125q-8 -10 -18 -10zM342 0h-82q-10 0 -10 10v38h-1q-29 -57 -91 -57q-111 0 -111 150v331q0 10 10 10h82q10 0 10 -10v-317q0 -70 50 -70q51 0 51 70v317q0 10 10 10h82q10 0 10 -10v-462
q0 -10 -10 -10z" />
    <glyph glyph-name="ucircumflex" unicode="&#xfb;" horiz-adv-x="403" 
d="M329 555h-60q-10 0 -19 10l-48 60h-2l-47 -60q-9 -10 -19 -10h-60q-4 0 -5.5 3t1.5 7l88 125q7 10 17 10h52q11 0 18 -10l88 -125q3 -4 2 -7t-6 -3zM342 0h-82q-10 0 -10 10v38h-1q-29 -57 -91 -57q-111 0 -111 150v331q0 10 10 10h82q10 0 10 -10v-317q0 -70 50 -70
q51 0 51 70v317q0 10 10 10h82q10 0 10 -10v-462q0 -10 -10 -10z" />
    <glyph glyph-name="udieresis" unicode="&#xfc;" horiz-adv-x="403" 
d="M310 574h-65q-10 0 -10 10v86q0 10 10 10h65q10 0 10 -10v-86q0 -10 -10 -10zM158 574h-65q-10 0 -10 10v86q0 10 10 10h65q10 0 10 -10v-86q0 -10 -10 -10zM342 0h-82q-10 0 -10 10v38h-1q-29 -57 -91 -57q-111 0 -111 150v331q0 10 10 10h82q10 0 10 -10v-317
q0 -70 50 -70q51 0 51 70v317q0 10 10 10h82q10 0 10 -10v-462q0 -10 -10 -10z" />
    <glyph glyph-name="yacute" unicode="&#xfd;" horiz-adv-x="370" 
d="M77 -180h-15q-10 0 -10 10v74q0 10 10 10l14 1q22 2 34 13.5t19 41.5l11 48l-120 454q-3 10 7 10h84q9 0 11 -10l64 -298h1l64 298q2 10 11 10h81q10 0 7 -10l-127 -500q-23 -92 -53.5 -122t-92.5 -30zM212 555h-57q-11 0 -6 10l69 125q6 10 16 10h81q5 0 6.5 -3t-1.5 -7
l-90 -125q-7 -10 -18 -10z" />
    <glyph glyph-name="thorn" unicode="&#xfe;" horiz-adv-x="401" 
d="M143 -180h-82q-10 0 -10 10v840q0 10 10 10h82q10 0 10 -10v-237h1q23 58 90 58q80 0 105 -80q13 -39 13 -170t-13 -170q-25 -80 -105 -80q-68 0 -90 58h-1v-219q0 -10 -10 -10zM260 241q0 105 -5 122q-11 34 -49 34q-37 0 -48 -34q-5 -17 -5 -122t5 -122q11 -34 48 -34
q38 0 49 34q5 17 5 122z" />
    <glyph glyph-name="ydieresis" unicode="&#xff;" horiz-adv-x="370" 
d="M77 -180h-15q-10 0 -10 10v74q0 10 10 10l14 1q22 2 34 13.5t19 41.5l11 48l-120 454q-3 10 7 10h84q9 0 11 -10l64 -298h1l64 298q2 10 11 10h81q10 0 7 -10l-127 -500q-23 -92 -53.5 -122t-92.5 -30zM294 574h-65q-10 0 -10 10v86q0 10 10 10h65q10 0 10 -10v-86
q0 -10 -10 -10zM142 574h-65q-10 0 -10 10v86q0 10 10 10h65q10 0 10 -10v-86q0 -10 -10 -10z" />
    <glyph glyph-name="Amacron" unicode="&#x100;" horiz-adv-x="421" 
d="M12 10l147 660q3 10 11 10h84q9 0 11 -10l144 -660q2 -10 -8 -10h-85q-9 0 -11 10l-27 137h-135l-27 -137q-2 -10 -11 -10h-85q-10 0 -8 10zM160 237h101l-48 253h-3zM312 780h-205q-10 0 -10 10v60q0 10 10 10h205q10 0 10 -10v-60q0 -10 -10 -10z" />
    <glyph glyph-name="amacron" unicode="&#x101;" horiz-adv-x="383" 
d="M327 0h-78q-10 0 -10 10v38h-1q-9 -26 -33 -41.5t-56 -15.5q-48 0 -81.5 34t-33.5 110q0 80 41 116.5t106 36.5h52q6 0 6 6v28q0 41 -14.5 59t-51.5 18q-39 0 -80 -28q-10 -7 -15 4l-26 59q-4 7 3 14q55 43 131 43q81 0 116 -38.5t35 -126.5v-316q0 -10 -10 -10zM179 75
q27 0 43.5 19t16.5 49v57q0 6 -6 6h-35q-67 0 -67 -67q0 -64 48 -64zM294 588h-205q-10 0 -10 10v60q0 10 10 10h205q10 0 10 -10v-60q0 -10 -10 -10z" />
    <glyph glyph-name="Abreve" unicode="&#x102;" horiz-adv-x="421" 
d="M12 10l147 660q3 10 11 10h84q9 0 11 -10l144 -660q2 -10 -8 -10h-85q-9 0 -11 10l-27 137h-135l-27 -137q-2 -10 -11 -10h-85q-10 0 -8 10zM160 237h101l-48 253h-3zM209 742q-56 0 -88 34t-36 85q0 10 10 10h45q7 0 10 -10q17 -48 59 -48q43 0 60 48q3 10 10 10h45
q10 0 10 -10q-4 -51 -36 -85t-89 -34z" />
    <glyph glyph-name="abreve" unicode="&#x103;" horiz-adv-x="383" 
d="M327 0h-78q-10 0 -10 10v38h-1q-9 -26 -33 -41.5t-56 -15.5q-48 0 -81.5 34t-33.5 110q0 80 41 116.5t106 36.5h52q6 0 6 6v28q0 41 -14.5 59t-51.5 18q-39 0 -80 -28q-10 -7 -15 4l-26 59q-4 7 3 14q55 43 131 43q81 0 116 -38.5t35 -126.5v-316q0 -10 -10 -10zM179 75
q27 0 43.5 19t16.5 49v57q0 6 -6 6h-35q-67 0 -67 -67q0 -64 48 -64zM191 556q-56 0 -88 33.5t-36 85.5q0 10 10 10h45q7 0 10 -10q17 -49 59 -49q43 0 60 49q3 10 10 10h45q10 0 10 -10q-4 -52 -36 -85.5t-89 -33.5z" />
    <glyph glyph-name="Aogonek" unicode="&#x104;" horiz-adv-x="421" 
d="M341 -190q-41 0 -65 21.5t-24 61.5q0 57 58 108q-4 2 -5 9l-26 137h-137l-26 -137q-2 -10 -11 -10h-85q-10 0 -8 10l147 660q3 10 11 10h84q9 0 11 -10l144 -660q2 -6 -5 -10q-30 -20 -49.5 -45t-19.5 -46q0 -24 20 -24q10 0 18 5q9 6 13 -4l20 -46q3 -8 -5 -13
q-25 -17 -60 -17zM261 237l-48 253h-3l-50 -253h101z" />
    <glyph glyph-name="aogonek" unicode="&#x105;" horiz-adv-x="383" 
d="M268 -190q-41 0 -65.5 21.5t-24.5 61.5q0 56 62 112q-1 1 -1 5v38h-1q-9 -26 -33 -41.5t-56 -15.5q-48 0 -81.5 34t-33.5 110q0 80 41 116.5t106 36.5h52q6 0 6 6v28q0 41 -14.5 59t-51.5 18q-39 0 -80 -28q-10 -7 -15 4l-26 59q-4 7 3 14q55 43 131 43q81 0 116 -38.5
t35 -126.5v-316q0 -7 -7 -11q-68 -48 -68 -90q0 -24 19 -24q10 0 18 5q9 6 13 -4l21 -46q3 -8 -5 -13q-25 -17 -60 -17zM179 75q27 0 43.5 19t16.5 49v57q0 6 -6 6h-35q-67 0 -67 -67q0 -64 48 -64z" />
    <glyph glyph-name="Cacute" unicode="&#x106;" horiz-adv-x="387" 
d="M54 95q-13 40 -13 245t13 245q34 104 154 104q155 0 164 -163q2 -11 -7 -12l-81 -14q-11 -2 -11 9q-4 83 -62 83q-42 0 -54 -38q-7 -22 -7 -214t7 -214q12 -38 54 -38q58 0 62 83q0 11 11 9l81 -14q9 -1 7 -12q-9 -163 -164 -163q-120 0 -154 104zM224 761h-55q-5 0 -7 3
t1 7l77 107q7 10 16 10h81q5 0 6.5 -3t-1.5 -7l-98 -107q-10 -10 -20 -10z" />
    <glyph glyph-name="cacute" unicode="&#x107;" horiz-adv-x="357" 
d="M207 555h-57q-11 0 -6 10l69 125q6 10 16 10h81q5 0 6.5 -3t-1.5 -7l-90 -125q-7 -10 -18 -10zM188 -9q-108 0 -139 95q-12 37 -12 155t12 155q31 95 139 95q63 0 103 -36t44 -95q0 -10 -8 -11l-76 -15q-11 -2 -12 9q-7 54 -51 54q-34 0 -44 -31q-5 -16 -5 -125t5 -125
q10 -31 44 -31q44 0 51 54q1 11 12 9l76 -15q8 -1 8 -11q-4 -59 -44 -95t-103 -36z" />
    <glyph glyph-name="Ccircumflex" unicode="&#x108;" horiz-adv-x="387" 
d="M54 95q-13 40 -13 245t13 245q34 104 154 104q155 0 164 -163q2 -11 -7 -12l-81 -14q-11 -2 -11 9q-4 83 -62 83q-42 0 -54 -38q-7 -22 -7 -214t7 -214q12 -38 54 -38q58 0 62 83q0 11 11 9l81 -14q9 -1 7 -12q-9 -163 -164 -163q-120 0 -154 104zM335 750h-60
q-10 0 -19 10l-48 60h-2l-47 -60q-9 -10 -19 -10h-60q-4 0 -5.5 3t1.5 7l88 125q7 10 17 10h52q11 0 18 -10l88 -125q3 -4 2 -7t-6 -3z" />
    <glyph glyph-name="ccircumflex" unicode="&#x109;" horiz-adv-x="357" 
d="M316 555h-60q-10 0 -19 10l-48 60h-2l-47 -60q-9 -10 -19 -10h-60q-5 0 -6 3t2 7l88 125q7 10 17 10h52q11 0 18 -10l88 -125q3 -4 1.5 -7t-5.5 -3zM188 -9q-108 0 -139 95q-12 37 -12 155t12 155q31 95 139 95q63 0 103 -36t44 -95q0 -10 -8 -11l-76 -15q-11 -2 -12 9
q-7 54 -51 54q-34 0 -44 -31q-5 -16 -5 -125t5 -125q10 -31 44 -31q44 0 51 54q1 11 12 9l76 -15q8 -1 8 -11q-4 -59 -44 -95t-103 -36z" />
    <glyph glyph-name="Cdotaccent" unicode="&#x10a;" horiz-adv-x="387" 
d="M236 769h-82q-10 0 -10 10v86q0 10 10 10h82q10 0 10 -10v-86q0 -10 -10 -10zM54 95q-13 40 -13 245t13 245q34 104 154 104q155 0 164 -163q2 -11 -7 -12l-81 -14q-11 -2 -11 9q-4 83 -62 83q-42 0 -54 -38q-7 -22 -7 -214t7 -214q12 -38 54 -38q58 0 62 83q0 11 11 9
l81 -14q9 -1 7 -12q-9 -163 -164 -163q-120 0 -154 104z" />
    <glyph glyph-name="cdotaccent" unicode="&#x10b;" horiz-adv-x="357" 
d="M188 -9q-108 0 -139 95q-12 37 -12 155t12 155q31 95 139 95q63 0 103 -36t44 -95q0 -10 -8 -11l-76 -15q-11 -2 -12 9q-7 54 -51 54q-34 0 -44 -31q-5 -16 -5 -125t5 -125q10 -31 44 -31q44 0 51 54q1 11 12 9l76 -15q8 -1 8 -11q-4 -59 -44 -95t-103 -36zM220 574h-82
q-10 0 -10 10v86q0 10 10 10h82q10 0 10 -10v-86q0 -10 -10 -10z" />
    <glyph glyph-name="Ccaron" unicode="&#x10c;" horiz-adv-x="387" 
d="M54 95q-13 40 -13 245t13 245q34 104 154 104q155 0 164 -163q2 -11 -7 -12l-81 -14q-11 -2 -11 9q-4 83 -62 83q-42 0 -54 -38q-7 -22 -7 -214t7 -214q12 -38 54 -38q58 0 62 83q0 11 11 9l81 -14q9 -1 7 -12q-9 -163 -164 -163q-120 0 -154 104zM230 747h-52
q-10 0 -17 10l-88 125q-3 4 -2 7t6 3h60q10 0 19 -10l47 -59h2l48 59q9 10 19 10h60q4 0 5.5 -3t-1.5 -7l-88 -125q-7 -10 -18 -10z" />
    <glyph glyph-name="ccaron" unicode="&#x10d;" horiz-adv-x="357" 
d="M214 555h-52q-10 0 -17 10l-88 125q-3 4 -2 7t6 3h60q10 0 19 -10l47 -60h2l48 60q9 10 19 10h60q4 0 5.5 -3t-1.5 -7l-88 -125q-7 -10 -18 -10zM188 -9q-108 0 -139 95q-12 37 -12 155t12 155q31 95 139 95q63 0 103 -36t44 -95q0 -10 -8 -11l-76 -15q-11 -2 -12 9
q-7 54 -51 54q-34 0 -44 -31q-5 -16 -5 -125t5 -125q10 -31 44 -31q44 0 51 54q1 11 12 9l76 -15q8 -1 8 -11q-4 -59 -44 -95t-103 -36z" />
    <glyph glyph-name="Dcaron" unicode="&#x10e;" horiz-adv-x="443" 
d="M228 747h-52q-10 0 -17 10l-88 125q-3 4 -2 7t6 3h60q10 0 19 -10l47 -59h2l48 59q9 10 19 10h60q4 0 5.5 -3t-1.5 -7l-88 -125q-7 -10 -18 -10zM53 10v660q0 10 10 10h157q129 0 165 -109q17 -52 17 -231t-17 -231q-36 -109 -165 -109h-157q-10 0 -10 10zM160 103
q0 -6 6 -6h43q55 0 72 49q12 38 12 194t-12 194q-17 49 -72 49h-43q-6 0 -6 -6v-474z" />
    <glyph glyph-name="dcaron" unicode="&#x10f;" horiz-adv-x="401" 
d="M388 511q-9 0 -9 9v150q0 10 10 10h69q10 0 10 -10v-57q0 -12 -7 -22l-60 -73q-6 -7 -13 -7zM340 0h-82q-10 0 -10 10v39h-1q-22 -58 -90 -58q-80 0 -105 80q-13 39 -13 170t13 170q25 80 105 80q67 0 90 -58h1v237q0 10 10 10h82q10 0 10 -10v-660q0 -10 -10 -10z
M141 241q0 -105 5 -122q11 -34 49 -34q37 0 48 34q5 17 5 122t-5 122q-11 34 -48 34q-38 0 -49 -34q-5 -17 -5 -122z" />
    <glyph glyph-name="Dcroat" unicode="&#x110;" horiz-adv-x="443" 
d="M220 0h-157q-10 0 -10 10v287q0 6 -6 6h-26q-10 0 -10 10v60q0 10 10 10h26q6 0 6 6v281q0 10 10 10h157q129 0 165 -109q17 -52 17 -231t-17 -231q-36 -109 -165 -109zM209 97q55 0 72 49q12 38 12 194t-12 194q-17 49 -72 49h-43q-6 0 -6 -6v-188q0 -6 6 -6h57
q10 0 10 -10v-60q0 -10 -10 -10h-57q-6 0 -6 -6v-194q0 -6 6 -6h43z" />
    <glyph glyph-name="dcroat" unicode="&#x111;" horiz-adv-x="399" 
d="M350 533v-523q0 -10 -10 -10h-82q-10 0 -10 10v39h-1q-22 -58 -90 -58q-80 0 -105 80q-13 39 -13 170t13 170q25 80 105 80q67 0 90 -58h1v100q0 6 -6 6h-73q-10 0 -10 10v58q0 10 10 10h73q6 0 6 6v47q0 10 10 10h82q10 0 10 -10v-47q0 -6 6 -6h20q10 0 10 -10v-58
q0 -10 -10 -10h-20q-6 0 -6 -6zM141 241q0 -105 5 -122q11 -34 49 -34q37 0 48 34q5 17 5 122t-5 122q-11 34 -48 34q-38 0 -49 -34q-5 -17 -5 -122z" />
    <glyph glyph-name="Emacron" unicode="&#x112;" horiz-adv-x="381" 
d="M305 780h-205q-10 0 -10 10v60q0 10 10 10h205q10 0 10 -10v-60q0 -10 -10 -10zM53 10v660q0 10 10 10h279q10 0 10 -10v-77q0 -10 -10 -10h-176q-6 0 -6 -6v-179q0 -6 6 -6h152q10 0 10 -10v-77q0 -10 -10 -10h-152q-6 0 -6 -6v-186q0 -6 6 -6h176q10 0 10 -10v-77
q0 -10 -10 -10h-279q-10 0 -10 10z" />
    <glyph glyph-name="emacron" unicode="&#x113;" horiz-adv-x="380" 
d="M190 -9q-111 0 -142 96q-11 33 -11 154t11 154q31 96 143 96q113 0 144 -96q11 -33 11 -179q0 -10 -10 -10h-191q-6 0 -6 -6q0 -65 5 -83q11 -32 47 -32q40 0 53 43q3 9 12 7l77 -15q9 -1 7 -12q-10 -54 -50.5 -85.5t-99.5 -31.5zM191 400q-36 0 -46 -32q-6 -16 -6 -74
q0 -6 6 -6h93q6 0 6 6q0 58 -6 74q-10 32 -47 32zM293 588h-205q-10 0 -10 10v60q0 10 10 10h205q10 0 10 -10v-60q0 -10 -10 -10z" />
    <glyph glyph-name="Ebreve" unicode="&#x114;" horiz-adv-x="381" 
d="M202 742q-56 0 -88 34t-36 85q0 10 10 10h45q7 0 10 -10q17 -48 59 -48q43 0 60 48q3 10 10 10h45q10 0 10 -10q-4 -51 -36 -85t-89 -34zM53 10v660q0 10 10 10h279q10 0 10 -10v-77q0 -10 -10 -10h-176q-6 0 -6 -6v-179q0 -6 6 -6h152q10 0 10 -10v-77q0 -10 -10 -10
h-152q-6 0 -6 -6v-186q0 -6 6 -6h176q10 0 10 -10v-77q0 -10 -10 -10h-279q-10 0 -10 10z" />
    <glyph glyph-name="ebreve" unicode="&#x115;" horiz-adv-x="380" 
d="M190 -9q-111 0 -142 96q-11 33 -11 154t11 154q31 96 143 96q113 0 144 -96q11 -33 11 -179q0 -10 -10 -10h-191q-6 0 -6 -6q0 -65 5 -83q11 -32 47 -32q40 0 53 43q3 9 12 7l77 -15q9 -1 7 -12q-10 -54 -50.5 -85.5t-99.5 -31.5zM191 400q-36 0 -46 -32q-6 -16 -6 -74
q0 -6 6 -6h93q6 0 6 6q0 58 -6 74q-10 32 -47 32zM190 556q-56 0 -88 33.5t-36 85.5q0 10 10 10h45q7 0 10 -10q17 -49 59 -49q43 0 60 49q3 10 10 10h45q10 0 10 -10q-4 -52 -36 -85.5t-89 -33.5z" />
    <glyph glyph-name="Edotaccent" unicode="&#x116;" horiz-adv-x="381" 
d="M242 769h-82q-10 0 -10 10v86q0 10 10 10h82q10 0 10 -10v-86q0 -10 -10 -10zM53 10v660q0 10 10 10h279q10 0 10 -10v-77q0 -10 -10 -10h-176q-6 0 -6 -6v-179q0 -6 6 -6h152q10 0 10 -10v-77q0 -10 -10 -10h-152q-6 0 -6 -6v-186q0 -6 6 -6h176q10 0 10 -10v-77
q0 -10 -10 -10h-279q-10 0 -10 10z" />
    <glyph glyph-name="edotaccent" unicode="&#x117;" horiz-adv-x="380" 
d="M190 -9q-111 0 -142 96q-11 33 -11 154t11 154q31 96 143 96q113 0 144 -96q11 -33 11 -179q0 -10 -10 -10h-191q-6 0 -6 -6q0 -65 5 -83q11 -32 47 -32q40 0 53 43q3 9 12 7l77 -15q9 -1 7 -12q-10 -54 -50.5 -85.5t-99.5 -31.5zM191 400q-36 0 -46 -32q-6 -16 -6 -74
q0 -6 6 -6h93q6 0 6 6q0 58 -6 74q-10 32 -47 32zM232 574h-82q-10 0 -10 10v86q0 10 10 10h82q10 0 10 -10v-86q0 -10 -10 -10z" />
    <glyph glyph-name="Eogonek" unicode="&#x118;" horiz-adv-x="381" 
d="M264 -190q-41 0 -65 21.5t-24 61.5q0 53 56 107h-168q-10 0 -10 10v660q0 10 10 10h279q10 0 10 -10v-77q0 -10 -10 -10h-176q-6 0 -6 -6v-179q0 -6 6 -6h152q10 0 10 -10v-77q0 -10 -10 -10h-152q-6 0 -6 -6v-186q0 -6 6 -6h176q10 0 10 -10v-77q0 -10 -10 -10h-15
q-29 -20 -48.5 -45.5t-19.5 -45.5q0 -24 19 -24q10 0 18 5q9 6 13 -4l20 -46q3 -8 -5 -13q-23 -17 -60 -17z" />
    <glyph glyph-name="eogonek" unicode="&#x119;" horiz-adv-x="380" 
d="M190 -9q-111 0 -142 96q-11 33 -11 154t11 154q31 96 143 96q113 0 144 -96q11 -33 11 -179q0 -10 -10 -10h-191q-6 0 -6 -6q0 -65 5 -83q11 -33 47 -33q40 0 53 44q3 9 12 7l77 -15q9 -1 7 -12q-8 -39 -29 -63q-64 -102 -64 -136q0 -24 20 -24q10 0 18 5q9 6 13 -4
l20 -46q3 -8 -5 -13q-25 -17 -60 -17q-41 0 -65 21.5t-24 61.5q0 48 38 99q-3 -1 -12 -1zM238 288q6 0 6 6q0 58 -6 74q-12 32 -47 32q-36 0 -46 -32q-6 -16 -6 -74q0 -6 6 -6h93z" />
    <glyph glyph-name="Ecaron" unicode="&#x11a;" horiz-adv-x="381" 
d="M228 747h-52q-10 0 -17 10l-88 125q-3 4 -2 7t6 3h60q10 0 19 -10l47 -59h2l48 59q9 10 19 10h60q4 0 5.5 -3t-1.5 -7l-88 -125q-7 -10 -18 -10zM53 10v660q0 10 10 10h279q10 0 10 -10v-77q0 -10 -10 -10h-176q-6 0 -6 -6v-179q0 -6 6 -6h152q10 0 10 -10v-77
q0 -10 -10 -10h-152q-6 0 -6 -6v-186q0 -6 6 -6h176q10 0 10 -10v-77q0 -10 -10 -10h-279q-10 0 -10 10z" />
    <glyph glyph-name="ecaron" unicode="&#x11b;" horiz-adv-x="380" 
d="M216 555h-52q-10 0 -17 10l-88 125q-3 4 -2 7t6 3h60q10 0 19 -10l47 -60h2l48 60q9 10 19 10h60q4 0 5.5 -3t-1.5 -7l-88 -125q-7 -10 -18 -10zM190 -9q-111 0 -142 96q-11 33 -11 154t11 154q31 96 143 96q113 0 144 -96q11 -33 11 -179q0 -10 -10 -10h-191q-6 0 -6 -6
q0 -65 5 -83q11 -32 47 -32q40 0 53 43q3 9 12 7l77 -15q9 -1 7 -12q-10 -54 -50.5 -85.5t-99.5 -31.5zM191 400q-36 0 -46 -32q-6 -16 -6 -74q0 -6 6 -6h93q6 0 6 6q0 58 -6 74q-10 32 -47 32z" />
    <glyph glyph-name="Gcircumflex" unicode="&#x11c;" horiz-adv-x="426" 
d="M54 97q-8 24 -10.5 66t-2.5 177t2.5 177t10.5 66q35 106 161 106q153 0 169 -159q2 -10 -8 -12l-81 -14q-9 -2 -11 8q-8 80 -68 80q-47 0 -59 -38q-7 -22 -7 -214t7 -214q5 -17 22 -27.5t38 -10.5q22 0 39 10.5t22 27.5q7 24 7 153q0 6 -6 6h-53q-10 0 -10 10v74
q0 10 10 10h152q10 0 10 -10v-30q0 -135 -2.5 -176.5t-10.5 -65.5q-35 -106 -160 -106q-126 0 -161 106zM341 750h-60q-10 0 -19 10l-48 60h-2l-47 -60q-9 -10 -19 -10h-60q-4 0 -5.5 3t1.5 7l88 125q7 10 17 10h52q11 0 18 -10l88 -125q3 -4 2 -7t-6 -3z" />
    <glyph glyph-name="gcircumflex" unicode="&#x11d;" horiz-adv-x="400" 
d="M328 555h-60q-10 0 -19 10l-48 60h-2l-47 -60q-9 -10 -19 -10h-60q-5 0 -6 3t2 7l88 125q7 10 17 10h52q11 0 18 -10l88 -125q3 -4 1.5 -7t-5.5 -3zM192 -189q-55 0 -93 27t-50 70q-2 8 4 11l76 27q9 4 13 -5q17 -37 53 -37q24 0 38.5 15.5t14.5 43.5v101h-1
q-21 -58 -89 -58q-80 0 -105 80q-13 39 -13 162t13 162q25 81 105 81q68 0 89 -60h1v41q0 10 10 10h82q10 0 10 -10v-497q0 -79 -42.5 -121.5t-115.5 -42.5zM195 98q37 0 48 35q5 16 5 115q0 98 -5 115q-11 34 -48 34t-48 -34q-5 -17 -5 -115q0 -99 5 -115q11 -35 48 -35z
" />
    <glyph glyph-name="Gbreve" unicode="&#x11e;" horiz-adv-x="426" 
d="M213 742q-56 0 -88 34t-36 85q0 10 10 10h45q7 0 10 -10q17 -48 59 -48q43 0 60 48q3 10 10 10h45q10 0 10 -10q-4 -51 -36 -85t-89 -34zM54 97q-8 24 -10.5 66t-2.5 177t2.5 177t10.5 66q35 106 161 106q153 0 169 -159q2 -10 -8 -12l-81 -14q-9 -2 -11 8q-8 80 -68 80
q-47 0 -59 -38q-7 -22 -7 -214t7 -214q5 -17 22 -27.5t38 -10.5q22 0 39 10.5t22 27.5q7 24 7 153q0 6 -6 6h-53q-10 0 -10 10v74q0 10 10 10h152q10 0 10 -10v-30q0 -135 -2.5 -176.5t-10.5 -65.5q-35 -106 -160 -106q-126 0 -161 106z" />
    <glyph glyph-name="gbreve" unicode="&#x11f;" horiz-adv-x="400" 
d="M192 -189q-55 0 -93 27t-50 70q-2 8 4 11l76 27q9 4 13 -5q17 -37 53 -37q24 0 38.5 15.5t14.5 43.5v101h-1q-21 -58 -89 -58q-80 0 -105 80q-13 39 -13 162t13 162q25 81 105 81q68 0 89 -60h1v41q0 10 10 10h82q10 0 10 -10v-497q0 -79 -42.5 -121.5t-115.5 -42.5z
M195 98q37 0 48 35q5 16 5 115q0 98 -5 115q-11 34 -48 34t-48 -34q-5 -17 -5 -115q0 -99 5 -115q11 -35 48 -35zM200 556q-56 0 -88 33.5t-36 85.5q0 10 10 10h45q7 0 10 -10q17 -49 59 -49q43 0 60 49q3 10 10 10h45q10 0 10 -10q-4 -52 -36 -85.5t-89 -33.5z" />
    <glyph glyph-name="Gdotaccent" unicode="&#x120;" horiz-adv-x="426" 
d="M254 769h-82q-10 0 -10 10v86q0 10 10 10h82q10 0 10 -10v-86q0 -10 -10 -10zM54 97q-8 24 -10.5 66t-2.5 177t2.5 177t10.5 66q35 106 161 106q153 0 169 -159q2 -10 -8 -12l-81 -14q-9 -2 -11 8q-8 80 -68 80q-47 0 -59 -38q-7 -22 -7 -214t7 -214q5 -17 22 -27.5
t38 -10.5q22 0 39 10.5t22 27.5q7 24 7 153q0 6 -6 6h-53q-10 0 -10 10v74q0 10 10 10h152q10 0 10 -10v-30q0 -135 -2.5 -176.5t-10.5 -65.5q-35 -106 -160 -106q-126 0 -161 106z" />
    <glyph glyph-name="gdotaccent" unicode="&#x121;" horiz-adv-x="400" 
d="M192 -189q-55 0 -93 27t-50 70q-2 8 4 11l76 27q9 4 13 -5q17 -37 53 -37q24 0 38.5 15.5t14.5 43.5v101h-1q-21 -58 -89 -58q-80 0 -105 80q-13 39 -13 162t13 162q25 81 105 81q68 0 89 -60h1v41q0 10 10 10h82q10 0 10 -10v-497q0 -79 -42.5 -121.5t-115.5 -42.5z
M195 98q37 0 48 35q5 16 5 115q0 98 -5 115q-11 34 -48 34t-48 -34q-5 -17 -5 -115q0 -99 5 -115q11 -35 48 -35zM242 574h-82q-10 0 -10 10v86q0 10 10 10h82q10 0 10 -10v-86q0 -10 -10 -10z" />
    <glyph glyph-name="Gcommaaccent" unicode="&#x122;" horiz-adv-x="426" 
d="M176 -221q-8 0 -8 10v147q0 10 10 10h70q10 0 10 -10v-55q0 -13 -8 -22l-61 -73q-6 -7 -13 -7zM54 97q-8 24 -10.5 66t-2.5 177t2.5 177t10.5 66q35 106 161 106q153 0 169 -159q2 -10 -8 -12l-81 -14q-9 -2 -11 8q-8 80 -68 80q-47 0 -59 -38q-7 -22 -7 -214t7 -214
q5 -17 22 -27.5t38 -10.5q22 0 39 10.5t22 27.5q7 24 7 153q0 6 -6 6h-53q-10 0 -10 10v74q0 10 10 10h152q10 0 10 -10v-30q0 -135 -2.5 -176.5t-10.5 -65.5q-35 -106 -160 -106q-126 0 -161 106z" />
    <glyph glyph-name="gcommaaccent" unicode="&#x123;" horiz-adv-x="400" 
d="M236 572h-70q-10 0 -10 10v55q0 14 7 22l61 73q6 7 13 7q9 0 9 -10v-147q0 -10 -10 -10zM192 -189q-55 0 -93 27t-50 70q-2 8 4 11l76 27q9 4 13 -5q17 -37 53 -37q24 0 38.5 15.5t14.5 43.5v101h-1q-21 -58 -89 -58q-80 0 -105 80q-13 39 -13 162t13 162q25 81 105 81
q68 0 89 -60h1v41q0 10 10 10h82q10 0 10 -10v-497q0 -79 -42.5 -121.5t-115.5 -42.5zM195 98q37 0 48 35q5 16 5 115q0 98 -5 115q-11 34 -48 34t-48 -34q-5 -17 -5 -115q0 -99 5 -115q11 -35 48 -35z" />
    <glyph glyph-name="Hcircumflex" unicode="&#x124;" horiz-adv-x="447" 
d="M53 10v660q0 10 10 10h87q10 0 10 -10v-268q0 -6 6 -6h115q6 0 6 6v268q0 10 10 10h87q10 0 10 -10v-660q0 -10 -10 -10h-87q-10 0 -10 10v283q0 6 -6 6h-115q-6 0 -6 -6v-283q0 -10 -10 -10h-87q-10 0 -10 10zM350 750h-60q-10 0 -19 10l-48 60h-2l-47 -60
q-9 -10 -19 -10h-60q-5 0 -6 3t2 7l88 125q7 10 17 10h52q11 0 18 -10l88 -125q3 -4 1.5 -7t-5.5 -3z" />
    <glyph glyph-name="hcircumflex" unicode="&#x125;" horiz-adv-x="405" 
d="M348 0h-82q-10 0 -10 10v317q0 70 -52 70q-51 0 -51 -70v-317q0 -10 -10 -10h-82q-10 0 -10 10v660q0 10 10 10h82q10 0 10 -10v-236h1q29 57 92 57q112 0 112 -150v-331q0 -10 -10 -10zM335 750h-60q-10 0 -19 10l-48 60h-2l-47 -60q-9 -10 -19 -10h-60q-4 0 -5.5 3
t1.5 7l88 125q7 10 17 10h52q11 0 18 -10l88 -125q3 -4 2 -7t-6 -3z" />
    <glyph glyph-name="Hbar" unicode="&#x126;" horiz-adv-x="447" 
d="M384 0h-87q-10 0 -10 10v283q0 6 -6 6h-115q-6 0 -6 -6v-283q0 -10 -10 -10h-87q-10 0 -10 10v475q0 6 -6 6h-19q-10 0 -10 10v60q0 10 10 10h19q6 0 6 6v93q0 10 10 10h87q10 0 10 -10v-93q0 -6 6 -6h115q6 0 6 6v93q0 10 10 10h87q10 0 10 -10v-93q0 -6 6 -6h19
q10 0 10 -10v-60q0 -10 -10 -10h-19q-6 0 -6 -6v-475q0 -10 -10 -10zM281 396q6 0 6 6v83q0 6 -6 6h-115q-6 0 -6 -6v-83q0 -6 6 -6h115z" />
    <glyph glyph-name="hbar" unicode="&#x127;" horiz-adv-x="405" 
d="M348 0h-82q-10 0 -10 10v317q0 70 -52 70q-51 0 -51 -70v-317q0 -10 -10 -10h-82q-10 0 -10 10v523q0 6 -6 6h-20q-10 0 -10 10v58q0 10 10 10h20q6 0 6 6v47q0 10 10 10h82q10 0 10 -10v-47q0 -6 6 -6h73q10 0 10 -10v-58q0 -10 -10 -10h-73q-6 0 -6 -6v-99h1
q29 57 92 57q112 0 112 -150v-331q0 -10 -10 -10z" />
    <glyph glyph-name="Itilde" unicode="&#x128;" horiz-adv-x="213" 
d="M53 10v660q0 10 10 10h87q10 0 10 -10v-660q0 -10 -10 -10h-87q-10 0 -10 10zM151 763q-24 0 -52 18q-23 16 -38 16q-22 0 -48 -26q-4 -4 -8 -2.5t-4 6.5v61q0 9 10 19q24 24 51 24q25 0 51 -18q25 -16 39 -16q22 0 48 26q4 4 8 2.5t4 -6.5v-61q0 -9 -10 -19
q-24 -24 -51 -24z" />
    <glyph glyph-name="itilde" unicode="&#x129;" horiz-adv-x="204" 
d="M143 0h-82q-10 0 -10 10v462q0 10 10 10h82q10 0 10 -10v-462q0 -10 -10 -10zM147 567q-24 0 -52 18q-23 16 -38 16q-22 0 -48 -26q-4 -4 -8 -2.5t-4 6.5v61q0 9 10 19q24 24 51 24q25 0 51 -18q25 -16 39 -16q24 0 48 26q4 4 8 2.5t4 -6.5v-61q0 -9 -10 -19
q-24 -24 -51 -24z" />
    <glyph glyph-name="Imacron" unicode="&#x12a;" horiz-adv-x="213" 
d="M53 10v660q0 10 10 10h87q10 0 10 -10v-660q0 -10 -10 -10h-87q-10 0 -10 10zM209 780h-205q-10 0 -10 10v60q0 10 10 10h205q10 0 10 -10v-60q0 -10 -10 -10z" />
    <glyph glyph-name="imacron" unicode="&#x12b;" horiz-adv-x="204" 
d="M143 0h-82q-10 0 -10 10v462q0 10 10 10h82q10 0 10 -10v-462q0 -10 -10 -10zM205 588h-205q-10 0 -10 10v60q0 10 10 10h205q10 0 10 -10v-60q0 -10 -10 -10z" />
    <glyph glyph-name="Ibreve" unicode="&#x12c;" horiz-adv-x="213" 
d="M53 10v660q0 10 10 10h87q10 0 10 -10v-660q0 -10 -10 -10h-87q-10 0 -10 10zM106 742q-56 0 -88 34t-36 85q0 10 10 10h45q7 0 10 -10q17 -48 59 -48q43 0 60 48q3 10 10 10h45q10 0 10 -10q-4 -51 -36 -85t-89 -34z" />
    <glyph glyph-name="ibreve" unicode="&#x12d;" horiz-adv-x="204" 
d="M143 0h-82q-10 0 -10 10v462q0 10 10 10h82q10 0 10 -10v-462q0 -10 -10 -10zM102 556q-56 0 -88 33.5t-36 85.5q0 10 10 10h45q7 0 10 -10q17 -49 59 -49q43 0 60 49q3 10 10 10h45q10 0 10 -10q-4 -52 -36 -85.5t-89 -33.5z" />
    <glyph glyph-name="Iogonek" unicode="&#x12e;" horiz-adv-x="213" 
d="M100 -190q-41 0 -65.5 21.5t-24.5 61.5q0 54 56 107h-3q-10 0 -10 10v660q0 10 10 10h87q10 0 10 -10v-660q0 -5 -3 -8q-63 -59 -63 -93q0 -24 19 -24q9 0 19 5q9 6 13 -4l20 -46q3 -8 -5 -13q-25 -17 -60 -17z" />
    <glyph glyph-name="iogonek" unicode="&#x12f;" horiz-adv-x="204" 
d="M143 574h-82q-10 0 -10 10v86q0 10 10 10h82q10 0 10 -10v-86q0 -10 -10 -10zM93 -190q-41 0 -65 21.5t-24 61.5q0 55 56 107q-9 0 -9 10v462q0 10 10 10h82q10 0 10 -10v-462q0 -5 -4 -9q-62 -59 -62 -92q0 -24 20 -24q10 0 18 5q9 6 13 -4l20 -46q3 -8 -5 -13
q-25 -17 -60 -17z" />
    <glyph glyph-name="Idotaccent" unicode="&#x130;" horiz-adv-x="213" 
d="M53 10v660q0 10 10 10h87q10 0 10 -10v-660q0 -10 -10 -10h-87q-10 0 -10 10zM148 769h-82q-10 0 -10 10v86q0 10 10 10h82q10 0 10 -10v-86q0 -10 -10 -10z" />
    <glyph glyph-name="dotlessi" unicode="&#x131;" horiz-adv-x="204" 
d="M143 0h-82q-10 0 -10 10v462q0 10 10 10h82q10 0 10 -10v-462q0 -10 -10 -10z" />
    <glyph glyph-name="Jcircumflex" unicode="&#x134;" horiz-adv-x="354" 
d="M16 36q-6 8 1 14l59 54q7 6 15 -1q17 -15 40 -15q65 0 65 79v503q0 10 10 10h87q10 0 10 -10v-494q0 -94 -46.5 -139.5t-128.5 -45.5q-76 0 -112 45zM374 750h-60q-10 0 -19 10l-48 60h-2l-47 -60q-9 -10 -19 -10h-60q-5 0 -6 3t2 7l88 125q7 10 17 10h52q11 0 18 -10
l88 -125q3 -4 1.5 -7t-5.5 -3z" />
    <glyph glyph-name="jcircumflex" unicode="&#x135;" horiz-adv-x="204" 
d="M11 -180h-15q-10 0 -10 10v74q0 10 10 10l14 1q22 2 31.5 13.5t9.5 41.5v502q0 10 10 10h82q10 0 10 -10v-508q0 -73 -34 -108.5t-108 -35.5zM230 555h-60q-10 0 -19 10l-48 60h-2l-47 -60q-9 -10 -19 -10h-60q-5 0 -6 3t2 7l88 125q7 10 17 10h52q11 0 18 -10l88 -125
q3 -4 1.5 -7t-5.5 -3z" />
    <glyph glyph-name="Kcommaaccent" unicode="&#x136;" horiz-adv-x="441" 
d="M194 -221q-8 0 -8 10v147q0 10 10 10h70q10 0 10 -10v-55q0 -13 -8 -22l-61 -73q-6 -7 -13 -7zM53 10v660q0 10 10 10h87q10 0 10 -10v-281l137 283q4 8 13 8h91q4 0 5.5 -3t-0.5 -7l-136 -265l157 -395q4 -10 -5 -10h-93q-8 0 -11 7l-113 287l-45 -93v-191
q0 -10 -10 -10h-87q-10 0 -10 10z" />
    <glyph glyph-name="kcommaaccent" unicode="&#x137;" horiz-adv-x="396" 
d="M176 -221q-8 0 -8 10v147q0 10 10 10h70q10 0 10 -10v-55q0 -13 -8 -22l-61 -73q-6 -7 -13 -7zM376 0h-87q-9 0 -13 10l-83 197l-40 -72v-125q0 -10 -10 -10h-82q-10 0 -10 10v660q0 10 10 10h82q10 0 10 -10v-383l103 185q6 10 14 10h84q11 0 6 -10l-106 -176l128 -286
q5 -10 -6 -10z" />
    <glyph glyph-name="kgreenlandic" unicode="&#x138;" horiz-adv-x="396" 
d="M376 0h-87q-9 0 -13 10l-83 197l-40 -72v-125q0 -10 -10 -10h-82q-10 0 -10 10v462q0 10 10 10h82q10 0 10 -10v-185l103 185q6 10 14 10h84q11 0 6 -10l-106 -176l128 -286q5 -10 -6 -10z" />
    <glyph glyph-name="Lacute" unicode="&#x139;" horiz-adv-x="372" 
d="M139 761h-55q-5 0 -7 3t1 7l77 107q7 10 16 10h81q5 0 6.5 -3t-1.5 -7l-98 -107q-10 -10 -20 -10zM53 10v660q0 10 10 10h87q10 0 10 -10v-567q0 -6 6 -6h176q10 0 10 -10v-77q0 -10 -10 -10h-279q-10 0 -10 10z" />
    <glyph glyph-name="lacute" unicode="&#x13a;" horiz-adv-x="233" 
d="M129 761h-55q-5 0 -7 3t1 7l77 107q7 10 16 10h81q5 0 6.5 -3t-1.5 -7l-98 -107q-10 -10 -20 -10zM197 -6h-3q-79 2 -111 35.5t-32 110.5v530q0 10 10 10h82q10 0 10 -10v-530q0 -44 39 -52l5 -1q10 -2 10 -11v-72q0 -10 -10 -10z" />
    <glyph glyph-name="Lcommaaccent" unicode="&#x13b;" horiz-adv-x="372" 
d="M151 -221q-8 0 -8 10v147q0 10 10 10h70q10 0 10 -10v-55q0 -13 -8 -22l-61 -73q-6 -7 -13 -7zM53 10v660q0 10 10 10h87q10 0 10 -10v-567q0 -6 6 -6h176q10 0 10 -10v-77q0 -10 -10 -10h-279q-10 0 -10 10z" />
    <glyph glyph-name="lcommaaccent" unicode="&#x13c;" horiz-adv-x="233" 
d="M98 -221q-8 0 -8 10v147q0 10 10 10h70q10 0 10 -10v-55q0 -13 -8 -22l-61 -73q-6 -7 -13 -7zM197 -6h-3q-79 2 -111 35.5t-32 110.5v530q0 10 10 10h82q10 0 10 -10v-530q0 -44 39 -52l5 -1q10 -2 10 -11v-72q0 -10 -10 -10z" />
    <glyph glyph-name="Lcaron" unicode="&#x13d;" horiz-adv-x="372" 
d="M208 511q-9 0 -9 9v150q0 10 10 10h69q10 0 10 -10v-57q0 -12 -7 -22l-60 -73q-6 -7 -13 -7zM53 10v660q0 10 10 10h87q10 0 10 -10v-567q0 -6 6 -6h176q10 0 10 -10v-77q0 -10 -10 -10h-279q-10 0 -10 10z" />
    <glyph glyph-name="lcaron" unicode="&#x13e;" horiz-adv-x="233" 
d="M205 511q-9 0 -9 9v150q0 10 10 10h69q10 0 10 -10v-57q0 -12 -7 -22l-60 -73q-6 -7 -13 -7zM197 -6h-3q-79 2 -111 35.5t-32 110.5v530q0 10 10 10h82q10 0 10 -10v-530q0 -44 39 -52l5 -1q10 -2 10 -11v-72q0 -10 -10 -10z" />
    <glyph glyph-name="Ldot" unicode="&#x13f;" horiz-adv-x="372" 
d="M53 10v660q0 10 10 10h87q10 0 10 -10v-567q0 -6 6 -6h176q10 0 10 -10v-77q0 -10 -10 -10h-279q-10 0 -10 10zM335 246h-85q-10 0 -10 10v99q0 10 10 10h85q10 0 10 -10v-99q0 -10 -10 -10z" />
    <glyph glyph-name="ldot" unicode="&#x140;" horiz-adv-x="286" 
d="M197 -6h-3q-79 2 -111 35.5t-32 110.5v530q0 10 10 10h82q10 0 10 -10v-530q0 -44 39 -52l5 -1q10 -2 10 -11v-72q0 -10 -10 -10zM287 255h-85q-10 0 -10 10v99q0 10 10 10h85q10 0 10 -10v-99q0 -10 -10 -10z" />
    <glyph glyph-name="Lslash" unicode="&#x141;" horiz-adv-x="372" 
d="M246 385l-86 -59v-223q0 -6 6 -6h176q10 0 10 -10v-77q0 -10 -10 -10h-279q-10 0 -10 10v246l-36 -24q-4 -2 -7 -0.5t-3 5.5v78q0 9 10 16l36 25v314q0 10 10 10h87q10 0 10 -10v-245l86 60q4 2 7 0.5t3 -5.5v-79q0 -9 -10 -16z" />
    <glyph glyph-name="lslash" unicode="&#x142;" horiz-adv-x="233" 
d="M197 384l-44 -31v-213q0 -44 39 -52l5 -1q10 -2 10 -11v-72q0 -10 -10 -10h-3q-79 2 -111 35.5t-32 110.5v146l-27 -18q-4 -2 -7 -0.5t-3 5.5v75q0 9 10 16l27 18v288q0 10 10 10h82q10 0 10 -10v-222l44 31q4 2 7 0.5t3 -5.5v-74q0 -9 -10 -16z" />
    <glyph glyph-name="Nacute" unicode="&#x143;" horiz-adv-x="461" 
d="M228 761h-55q-5 0 -7 3t1 7l77 107q7 10 16 10h81q5 0 6.5 -3t-1.5 -7l-98 -107q-10 -10 -20 -10zM53 10v660q0 10 10 10h106q11 0 14 -10l126 -470h5v470q0 10 10 10h74q10 0 10 -10v-660q0 -10 -10 -10h-99q-11 0 -14 10l-132 470h-6v-470q0 -10 -10 -10h-74
q-10 0 -10 10z" />
    <glyph glyph-name="nacute" unicode="&#x144;" horiz-adv-x="405" 
d="M209 555h-57q-11 0 -6 10l69 125q6 10 16 10h81q5 0 6.5 -3t-1.5 -7l-90 -125q-7 -10 -18 -10zM348 0h-82q-10 0 -10 10v317q0 70 -52 70q-51 0 -51 -70v-317q0 -10 -10 -10h-82q-10 0 -10 10v462q0 10 10 10h82q10 0 10 -10v-38h1q29 57 92 57q112 0 112 -150v-331
q0 -10 -10 -10z" />
    <glyph glyph-name="Ncommaaccent" unicode="&#x145;" horiz-adv-x="461" 
d="M204 -221q-8 0 -8 10v147q0 10 10 10h70q10 0 10 -10v-55q0 -13 -8 -22l-61 -73q-6 -7 -13 -7zM53 10v660q0 10 10 10h106q11 0 14 -10l126 -470h5v470q0 10 10 10h74q10 0 10 -10v-660q0 -10 -10 -10h-99q-11 0 -14 10l-132 470h-6v-470q0 -10 -10 -10h-74q-10 0 -10 10
z" />
    <glyph glyph-name="ncommaaccent" unicode="&#x146;" horiz-adv-x="405" 
d="M166 -221q-8 0 -8 10v147q0 10 10 10h70q10 0 10 -10v-55q0 -13 -8 -22l-61 -73q-6 -7 -13 -7zM348 0h-82q-10 0 -10 10v317q0 70 -52 70q-51 0 -51 -70v-317q0 -10 -10 -10h-82q-10 0 -10 10v462q0 10 10 10h82q10 0 10 -10v-38h1q29 57 92 57q112 0 112 -150v-331
q0 -10 -10 -10z" />
    <glyph glyph-name="Ncaron" unicode="&#x147;" horiz-adv-x="461" 
d="M256 747h-52q-10 0 -17 10l-88 125q-3 4 -2 7t6 3h60q10 0 19 -10l47 -59h2l48 59q9 10 19 10h60q4 0 5.5 -3t-1.5 -7l-88 -125q-7 -10 -18 -10zM53 10v660q0 10 10 10h106q11 0 14 -10l126 -470h5v470q0 10 10 10h74q10 0 10 -10v-660q0 -10 -10 -10h-99q-11 0 -14 10
l-132 470h-6v-470q0 -10 -10 -10h-74q-10 0 -10 10z" />
    <glyph glyph-name="ncaron" unicode="&#x148;" horiz-adv-x="405" 
d="M228 555h-52q-10 0 -17 10l-88 125q-3 4 -2 7t6 3h60q10 0 19 -10l47 -60h2l48 60q9 10 19 10h60q4 0 5.5 -3t-1.5 -7l-88 -125q-7 -10 -18 -10zM348 0h-82q-10 0 -10 10v317q0 70 -52 70q-51 0 -51 -70v-317q0 -10 -10 -10h-82q-10 0 -10 10v462q0 10 10 10h82
q10 0 10 -10v-38h1q29 57 92 57q112 0 112 -150v-331q0 -10 -10 -10z" />
    <glyph glyph-name="Eng" unicode="&#x14a;" horiz-adv-x="461" 
d="M250 -180h-11q-10 0 -10 10v77q0 9 10 10l10 1q53 5 53 58v6l-149 498h-6v-470q0 -10 -10 -10h-74q-10 0 -10 10v660q0 10 10 10h106q11 0 14 -10l126 -461h5v461q0 10 10 10h74q10 0 10 -10v-684q0 -87 -38.5 -126.5t-119.5 -39.5z" />
    <glyph glyph-name="eng" unicode="&#x14b;" horiz-adv-x="405" 
d="M216 -180h-11q-10 0 -10 10v72q0 10 10 10l10 1q22 2 31.5 13.5t9.5 42.5v358q0 70 -52 70q-51 0 -51 -70v-317q0 -10 -10 -10h-82q-10 0 -10 10v462q0 10 10 10h82q10 0 10 -10v-38h1q29 57 92 57q112 0 112 -150v-377q0 -73 -34 -108.5t-108 -35.5z" />
    <glyph glyph-name="Omacron" unicode="&#x14c;" horiz-adv-x="429" 
d="M317 780h-205q-10 0 -10 10v60q0 10 10 10h205q10 0 10 -10v-60q0 -10 -10 -10zM215 -9q-126 0 -161 106q-8 24 -10.5 66t-2.5 177t2.5 177t10.5 66q35 106 161 106q125 0 160 -106q8 -24 10.5 -66t2.5 -177t-2.5 -177t-10.5 -66q-35 -106 -160 -106zM215 88q45 0 57 38
q7 22 7 214t-7 214q-12 38 -57 38q-46 0 -58 -38q-7 -22 -7 -214t7 -214q12 -38 58 -38z" />
    <glyph glyph-name="omacron" unicode="&#x14d;" horiz-adv-x="385" 
d="M295 588h-205q-10 0 -10 10v60q0 10 10 10h205q10 0 10 -10v-60q0 -10 -10 -10zM348 241q0 -117 -11 -151q-15 -47 -52.5 -73t-92.5 -26q-54 0 -91.5 26t-52.5 73q-11 34 -11 151t11 151q15 47 52.5 73t91.5 26q55 0 92.5 -26t52.5 -73q11 -34 11 -151zM246 241
q0 105 -5 122q-11 34 -49 34q-37 0 -48 -34q-5 -17 -5 -122t5 -122q11 -34 48 -34q38 0 49 34q5 17 5 122z" />
    <glyph glyph-name="Obreve" unicode="&#x14e;" horiz-adv-x="429" 
d="M214 742q-56 0 -88 34t-36 85q0 10 10 10h45q7 0 10 -10q17 -48 59 -48q43 0 60 48q3 10 10 10h45q10 0 10 -10q-4 -51 -36 -85t-89 -34zM215 -9q-126 0 -161 106q-8 24 -10.5 66t-2.5 177t2.5 177t10.5 66q35 106 161 106q125 0 160 -106q8 -24 10.5 -66t2.5 -177
t-2.5 -177t-10.5 -66q-35 -106 -160 -106zM215 88q45 0 57 38q7 22 7 214t-7 214q-12 38 -57 38q-46 0 -58 -38q-7 -22 -7 -214t7 -214q12 -38 58 -38z" />
    <glyph glyph-name="obreve" unicode="&#x14f;" horiz-adv-x="385" 
d="M348 241q0 -117 -11 -151q-15 -47 -52.5 -73t-92.5 -26q-54 0 -91.5 26t-52.5 73q-11 34 -11 151t11 151q15 47 52.5 73t91.5 26q55 0 92.5 -26t52.5 -73q11 -34 11 -151zM246 241q0 105 -5 122q-11 34 -49 34q-37 0 -48 -34q-5 -17 -5 -122t5 -122q11 -34 48 -34
q38 0 49 34q5 17 5 122zM192 556q-56 0 -88 33.5t-36 85.5q0 10 10 10h45q7 0 10 -10q17 -49 59 -49q43 0 60 49q3 10 10 10h45q10 0 10 -10q-4 -52 -36 -85.5t-89 -33.5z" />
    <glyph glyph-name="Ohungarumlaut" unicode="&#x150;" horiz-adv-x="429" 
d="M215 -9q-126 0 -161 106q-8 24 -10.5 66t-2.5 177t2.5 177t10.5 66q35 106 161 106q125 0 160 -106q8 -24 10.5 -66t2.5 -177t-2.5 -177t-10.5 -66q-35 -106 -160 -106zM215 88q45 0 57 38q7 22 7 214t-7 214q-12 38 -57 38q-46 0 -58 -38q-7 -22 -7 -214t7 -214
q12 -38 58 -38zM304 761h-50q-12 0 -5 10l69 107q7 10 17 10h68q5 0 6 -3t-2 -7l-84 -107q-9 -10 -19 -10zM171 761h-50q-12 0 -5 10l70 107q7 10 17 10h67q4 0 5.5 -3t-1.5 -7l-84 -107q-9 -10 -19 -10z" />
    <glyph glyph-name="ohungarumlaut" unicode="&#x151;" horiz-adv-x="385" 
d="M280 555h-51q-11 0 -6 10l61 125q4 10 16 10h67q11 0 5 -10l-75 -125q-6 -10 -17 -10zM147 555h-50q-11 0 -6 10l60 125q4 10 16 10h67q11 0 5 -10l-74 -125q-6 -10 -18 -10zM348 241q0 -117 -11 -151q-15 -47 -52.5 -73t-92.5 -26q-54 0 -91.5 26t-52.5 73
q-11 34 -11 151t11 151q15 47 52.5 73t91.5 26q55 0 92.5 -26t52.5 -73q11 -34 11 -151zM246 241q0 105 -5 122q-11 34 -49 34q-37 0 -48 -34q-5 -17 -5 -122t5 -122q11 -34 48 -34q38 0 49 34q5 17 5 122z" />
    <glyph glyph-name="OE" unicode="&#x152;" horiz-adv-x="608" 
d="M569 0h-280q-10 0 -10 10v11h-1q-26 -30 -81 -30q-110 0 -143 102q-8 24 -10.5 67.5t-2.5 179.5t2.5 179.5t10.5 67.5q33 102 143 102q55 0 81 -30h1v11q0 10 10 10h280q10 0 10 -10v-77q0 -10 -10 -10h-177q-6 0 -6 -6v-179q0 -6 6 -6h153q10 0 10 -10v-77
q0 -10 -10 -10h-153q-6 0 -6 -6v-186q0 -6 6 -6h177q10 0 10 -10v-77q0 -10 -10 -10zM215 88q45 0 57 38q7 22 7 214t-7 214q-12 38 -57 38q-46 0 -58 -38q-7 -22 -7 -214t7 -214q12 -38 58 -38z" />
    <glyph glyph-name="oe" unicode="&#x153;" horiz-adv-x="589" 
d="M399 -9q-70 0 -102 37h-2q-37 -37 -103 -37q-54 0 -91.5 26t-52.5 73q-11 34 -11 151t11 151q15 47 52.5 73t91.5 26q65 0 103 -38h1q41 38 104 38q112 0 144 -98q11 -38 11 -177q0 -10 -10 -10h-191q-6 0 -6 -6q0 -65 5 -83q11 -33 47 -33q40 0 53 44q3 9 12 7l77 -15
q9 -1 7 -12q-11 -54 -51 -85.5t-99 -31.5zM447 288q6 0 6 6q0 55 -7 74q-10 32 -46 32t-46 -32q-6 -16 -6 -74q0 -6 6 -6h93zM246 241q0 105 -5 122q-11 34 -49 34q-37 0 -48 -34q-5 -17 -5 -122t5 -122q11 -34 48 -34q38 0 49 34q5 17 5 122z" />
    <glyph glyph-name="Racute" unicode="&#x154;" horiz-adv-x="436" 
d="M404 0h-93q-8 0 -11 7l-83 271h-17h-34q-6 0 -6 -6v-262q0 -10 -10 -10h-87q-10 0 -10 10v660q0 10 10 10h137q95 0 144.5 -47t49.5 -155q0 -128 -81 -174l96 -294q4 -10 -5 -10zM201 373q46 0 66 23t20 82t-20 82t-66 23h-35q-6 0 -6 -6v-198q0 -6 6 -6h35zM206 761h-55
q-5 0 -7 3t1 7l77 107q7 10 16 10h81q5 0 6.5 -3t-1.5 -7l-98 -107q-10 -10 -20 -10z" />
    <glyph glyph-name="racute" unicode="&#x155;" horiz-adv-x="295" 
d="M175 555h-57q-11 0 -6 10l69 125q6 10 16 10h81q5 0 6.5 -3t-1.5 -7l-90 -125q-7 -10 -18 -10zM143 0h-82q-10 0 -10 10v462q0 10 10 10h82q10 0 10 -10v-47h1q30 66 106 66q13 0 18 -1q10 -3 7 -11l-23 -85q-2 -6 -10 -6h-16q-83 0 -83 -94v-284q0 -10 -10 -10z" />
    <glyph glyph-name="Rcommaaccent" unicode="&#x156;" horiz-adv-x="436" 
d="M186 -221q-8 0 -8 10v147q0 10 10 10h70q10 0 10 -10v-55q0 -13 -8 -22l-61 -73q-6 -7 -13 -7zM404 0h-93q-8 0 -11 7l-83 271h-17h-34q-6 0 -6 -6v-262q0 -10 -10 -10h-87q-10 0 -10 10v660q0 10 10 10h137q95 0 144.5 -47t49.5 -155q0 -128 -81 -174l96 -294
q4 -10 -5 -10zM201 373q46 0 66 23t20 82t-20 82t-66 23h-35q-6 0 -6 -6v-198q0 -6 6 -6h35z" />
    <glyph glyph-name="rcommaaccent" unicode="&#x157;" horiz-adv-x="295" 
d="M65 -221q-8 0 -8 10v147q0 10 10 10h70q10 0 10 -10v-55q0 -13 -8 -22l-61 -73q-6 -7 -13 -7zM143 0h-82q-10 0 -10 10v462q0 10 10 10h82q10 0 10 -10v-47h1q30 66 106 66q13 0 18 -1q10 -3 7 -11l-23 -85q-2 -6 -10 -6h-16q-83 0 -83 -94v-284q0 -10 -10 -10z" />
    <glyph glyph-name="Rcaron" unicode="&#x158;" horiz-adv-x="436" 
d="M217 747h-52q-10 0 -17 10l-88 125q-3 4 -1.5 7t5.5 3h60q10 0 19 -10l47 -59h2l48 59q9 10 19 10h60q5 0 6 -3t-2 -7l-88 -125q-7 -10 -18 -10zM404 0h-93q-8 0 -11 7l-83 271h-17h-34q-6 0 -6 -6v-262q0 -10 -10 -10h-87q-10 0 -10 10v660q0 10 10 10h137
q95 0 144.5 -47t49.5 -155q0 -128 -81 -174l96 -294q4 -10 -5 -10zM201 373q46 0 66 23t20 82t-20 82t-66 23h-35q-6 0 -6 -6v-198q0 -6 6 -6h35z" />
    <glyph glyph-name="rcaron" unicode="&#x159;" horiz-adv-x="295" 
d="M183 555h-52q-10 0 -17 10l-88 125q-3 4 -1.5 7t5.5 3h60q10 0 19 -10l47 -60h2l48 60q9 10 19 10h60q5 0 6 -3t-2 -7l-88 -125q-7 -10 -18 -10zM143 0h-82q-10 0 -10 10v462q0 10 10 10h82q10 0 10 -10v-47h1q30 66 106 66q13 0 18 -1q10 -3 7 -11l-23 -85q-2 -6 -10 -6
h-16q-83 0 -83 -94v-284q0 -10 -10 -10z" />
    <glyph glyph-name="Sacute" unicode="&#x15a;" horiz-adv-x="404" 
d="M375 195q0 -104 -40 -154t-134 -50q-166 0 -170 178q0 10 8 11l84 14q11 2 11 -9q2 -54 18.5 -77t51.5 -23q33 0 48.5 21.5t15.5 75.5q0 55 -13.5 78.5t-53.5 39.5l-41 16q-70 27 -96 69t-26 123q0 181 165 181q158 0 167 -166q0 -8 -9 -11l-80 -12q-11 -2 -11 8
q-3 87 -64 87q-62 0 -62 -82q0 -47 13 -67t53 -36l41 -16q68 -27 96 -70.5t28 -128.5zM221 761h-55q-5 0 -7 3t1 7l77 107q7 10 16 10h81q5 0 6.5 -3t-1.5 -7l-98 -107q-10 -10 -20 -10z" />
    <glyph glyph-name="sacute" unicode="&#x15b;" horiz-adv-x="350" 
d="M191 555h-57q-11 0 -6 10l69 125q6 10 16 10h81q5 0 6.5 -3t-1.5 -7l-90 -125q-7 -10 -18 -10zM176 -9q-65 0 -104.5 33t-45.5 90q-2 10 8 12l72 14q10 2 12 -8q7 -56 59 -56q23 0 37.5 15t14.5 40q0 23 -11.5 37.5t-40.5 25.5l-39 15q-104 40 -104 141q0 61 39.5 101
t103.5 40q60 0 96 -31.5t43 -78.5q2 -11 -7 -13l-68 -13q-9 -1 -12 8q-12 44 -52 44q-22 0 -34.5 -14t-12.5 -36q0 -37 52 -57l39 -15q56 -21 80 -56.5t24 -90.5q0 -65 -39.5 -106t-109.5 -41z" />
    <glyph glyph-name="Scircumflex" unicode="&#x15c;" horiz-adv-x="404" 
d="M375 195q0 -104 -40 -154t-134 -50q-166 0 -170 178q0 10 8 11l84 14q11 2 11 -9q2 -54 18.5 -77t51.5 -23q33 0 48.5 21.5t15.5 75.5q0 55 -13.5 78.5t-53.5 39.5l-41 16q-70 27 -96 69t-26 123q0 181 165 181q158 0 167 -166q0 -8 -9 -11l-80 -12q-11 -2 -11 8
q-3 87 -64 87q-62 0 -62 -82q0 -47 13 -67t53 -36l41 -16q68 -27 96 -70.5t28 -128.5zM330 750h-60q-10 0 -19 10l-48 60h-2l-47 -60q-9 -10 -19 -10h-60q-5 0 -6 3t2 7l88 125q7 10 17 10h52q11 0 18 -10l88 -125q3 -4 1.5 -7t-5.5 -3z" />
    <glyph glyph-name="scircumflex" unicode="&#x15d;" horiz-adv-x="350" 
d="M304 555h-60q-10 0 -19 10l-48 60h-2l-47 -60q-9 -10 -19 -10h-60q-5 0 -6 3t2 7l88 125q7 10 17 10h52q11 0 18 -10l88 -125q3 -4 1.5 -7t-5.5 -3zM176 -9q-65 0 -104.5 33t-45.5 90q-2 10 8 12l72 14q10 2 12 -8q7 -56 59 -56q23 0 37.5 15t14.5 40q0 23 -11.5 37.5
t-40.5 25.5l-39 15q-104 40 -104 141q0 61 39.5 101t103.5 40q60 0 96 -31.5t43 -78.5q2 -11 -7 -13l-68 -13q-9 -1 -12 8q-12 44 -52 44q-22 0 -34.5 -14t-12.5 -36q0 -37 52 -57l39 -15q56 -21 80 -56.5t24 -90.5q0 -65 -39.5 -106t-109.5 -41z" />
    <glyph glyph-name="Scedilla" unicode="&#x15e;" horiz-adv-x="404" 
d="M105 -145l58 139q-129 18 -132 175q0 10 8 11l84 14q11 2 11 -9q2 -54 18.5 -77t51.5 -23q33 0 48.5 21.5t15.5 75.5q0 55 -13.5 78.5t-53.5 39.5l-41 16q-70 27 -96 69t-26 123q0 181 165 181q158 0 167 -166q0 -8 -9 -11l-80 -12q-11 -2 -11 8q-3 87 -64 87
q-62 0 -62 -82q0 -47 13 -67t53 -36l41 -16q68 -27 96 -70.5t28 -128.5q0 -91 -31 -141t-101 -60l-49 -139q-4 -10 -16 -10h-66q-10 0 -7 10z" />
    <glyph glyph-name="scedilla" unicode="&#x15f;" horiz-adv-x="350" 
d="M78 -145l58 140q-48 9 -76.5 40.5t-33.5 78.5q-2 10 8 12l72 14q10 2 12 -8q7 -56 59 -56q23 0 37.5 15t14.5 40q0 23 -11.5 37.5t-40.5 25.5l-39 15q-104 40 -104 141q0 61 39.5 101t103.5 40q60 0 96 -31.5t43 -78.5q2 -11 -7 -13l-68 -13q-9 -1 -12 8q-12 44 -52 44
q-22 0 -34.5 -14t-12.5 -36q0 -37 52 -57l39 -15q56 -21 80 -56.5t24 -90.5q0 -54 -28.5 -93t-80.5 -50l-49 -140q-4 -10 -16 -10h-66q-10 0 -7 10z" />
    <glyph glyph-name="Scaron" unicode="&#x160;" horiz-adv-x="404" 
d="M375 195q0 -104 -40 -154t-134 -50q-166 0 -170 178q0 10 8 11l84 14q11 2 11 -9q2 -54 18.5 -77t51.5 -23q33 0 48.5 21.5t15.5 75.5q0 55 -13.5 78.5t-53.5 39.5l-41 16q-70 27 -96 69t-26 123q0 181 165 181q158 0 167 -166q0 -8 -9 -11l-80 -12q-11 -2 -11 8
q-3 87 -64 87q-62 0 -62 -82q0 -47 13 -67t53 -36l41 -16q68 -27 96 -70.5t28 -128.5zM219 747h-52q-10 0 -17 10l-88 125q-3 4 -1.5 7t5.5 3h60q10 0 19 -10l47 -59h2l48 59q9 10 19 10h60q5 0 6 -3t-2 -7l-88 -125q-7 -10 -18 -10z" />
    <glyph glyph-name="scaron" unicode="&#x161;" horiz-adv-x="350" 
d="M202 555h-52q-10 0 -17 10l-88 125q-3 4 -2 7t6 3h60q10 0 19 -10l47 -60h2l48 60q9 10 19 10h60q4 0 5.5 -3t-1.5 -7l-88 -125q-7 -10 -18 -10zM176 -9q-65 0 -104.5 33t-45.5 90q-2 10 8 12l72 14q10 2 12 -8q7 -56 59 -56q23 0 37.5 15t14.5 40q0 23 -11.5 37.5
t-40.5 25.5l-39 15q-104 40 -104 141q0 61 39.5 101t103.5 40q60 0 96 -31.5t43 -78.5q2 -11 -7 -13l-68 -13q-9 -1 -12 8q-12 44 -52 44q-22 0 -34.5 -14t-12.5 -36q0 -37 52 -57l39 -15q56 -21 80 -56.5t24 -90.5q0 -65 -39.5 -106t-109.5 -41z" />
    <glyph glyph-name="Tcommaaccent" unicode="&#x162;" horiz-adv-x="375" 
d="M152 -221q-8 0 -8 10v147q0 10 10 10h70q10 0 10 -10v-55q0 -13 -8 -22l-61 -73q-6 -7 -13 -7zM231 0h-87q-10 0 -10 10v567q0 6 -6 6h-104q-10 0 -10 10v77q0 10 10 10h327q10 0 10 -10v-77q0 -10 -10 -10h-104q-6 0 -6 -6v-567q0 -10 -10 -10z" />
    <glyph glyph-name="tcommaaccent" unicode="&#x163;" horiz-adv-x="255" 
d="M111 -221q-8 0 -8 10v147q0 10 10 10h70q10 0 10 -10v-55q0 -13 -8 -22l-61 -73q-6 -7 -13 -7zM219 -6h-30q-64 0 -93.5 31t-29.5 102v271q0 6 -6 6h-29q-10 0 -10 10v58q0 10 10 10h29q6 0 6 6v132q0 10 10 10h82q10 0 10 -10v-132q0 -6 6 -6h45q10 0 10 -10v-58
q0 -10 -10 -10h-45q-6 0 -6 -6v-269q0 -41 39 -41h12q10 0 10 -10v-74q0 -10 -10 -10z" />
    <glyph glyph-name="Tcaron" unicode="&#x164;" horiz-adv-x="375" 
d="M214 747h-52q-10 0 -17 10l-88 125q-3 4 -2 7t6 3h60q10 0 19 -10l47 -59h2l48 59q9 10 19 10h60q4 0 5.5 -3t-1.5 -7l-88 -125q-7 -10 -18 -10zM231 0h-87q-10 0 -10 10v567q0 6 -6 6h-104q-10 0 -10 10v77q0 10 10 10h327q10 0 10 -10v-77q0 -10 -10 -10h-104
q-6 0 -6 -6v-567q0 -10 -10 -10z" />
    <glyph glyph-name="tcaron" unicode="&#x165;" horiz-adv-x="255" 
d="M208 511q-9 0 -9 9v150q0 10 10 10h69q10 0 10 -10v-57q0 -12 -7 -22l-60 -73q-6 -7 -13 -7zM219 -6h-30q-64 0 -93.5 31t-29.5 102v271q0 6 -6 6h-29q-10 0 -10 10v58q0 10 10 10h29q6 0 6 6v132q0 10 10 10h82q10 0 10 -10v-132q0 -6 6 -6h45q10 0 10 -10v-58
q0 -10 -10 -10h-45q-6 0 -6 -6v-269q0 -41 39 -41h12q10 0 10 -10v-74q0 -10 -10 -10z" />
    <glyph glyph-name="Tbar" unicode="&#x166;" horiz-adv-x="375" 
d="M231 0h-87q-10 0 -10 10v343q0 6 -6 6h-60q-10 0 -10 10v71q0 10 10 10h60q6 0 6 6v121q0 6 -6 6h-104q-10 0 -10 10v77q0 10 10 10h327q10 0 10 -10v-77q0 -10 -10 -10h-104q-6 0 -6 -6v-121q0 -6 6 -6h60q10 0 10 -10v-71q0 -10 -10 -10h-60q-6 0 -6 -6v-343
q0 -10 -10 -10z" />
    <glyph glyph-name="tbar" unicode="&#x167;" horiz-adv-x="255" 
d="M219 -6h-30q-64 0 -93.5 31t-29.5 102v128q0 6 -6 6h-21q-10 0 -10 10v56q0 10 10 10h21q6 0 6 6v55q0 6 -6 6h-29q-10 0 -10 10v58q0 10 10 10h29q6 0 6 6v132q0 10 10 10h82q10 0 10 -10v-132q0 -6 6 -6h45q10 0 10 -10v-58q0 -10 -10 -10h-45q-6 0 -6 -6v-55
q0 -6 6 -6h28q10 0 10 -10v-56q0 -10 -10 -10h-28q-6 0 -6 -6v-126q0 -41 39 -41h12q10 0 10 -10v-74q0 -10 -10 -10z" />
    <glyph glyph-name="Utilde" unicode="&#x168;" horiz-adv-x="443" 
d="M266 763q-24 0 -52 18q-23 16 -38 16q-22 0 -48 -26q-4 -4 -8 -2.5t-4 6.5v61q0 9 10 19q24 24 51 24q25 0 51 -18q25 -16 39 -16q22 0 48 26q4 4 8 2.5t4 -6.5v-61q0 -9 -10 -19q-24 -24 -51 -24zM222 -9q-80 0 -125 46.5t-45 135.5v497q0 10 10 10h87q10 0 10 -10v-511
q0 -33 16.5 -52t46.5 -19t46 19t16 52v511q0 10 10 10h87q10 0 10 -10v-497q0 -89 -44.5 -135.5t-124.5 -46.5z" />
    <glyph glyph-name="utilde" unicode="&#x169;" horiz-adv-x="403" 
d="M342 0h-82q-10 0 -10 10v38h-1q-29 -57 -91 -57q-111 0 -111 150v331q0 10 10 10h82q10 0 10 -10v-317q0 -70 50 -70q51 0 51 70v317q0 10 10 10h82q10 0 10 -10v-462q0 -10 -10 -10zM246 567q-24 0 -52 18q-23 16 -38 16q-22 0 -48 -26q-4 -4 -8 -2.5t-4 6.5v61
q0 9 10 19q24 24 51 24q25 0 51 -18q25 -16 39 -16q24 0 48 26q4 4 8 2.5t4 -6.5v-61q0 -9 -10 -19q-24 -24 -51 -24z" />
    <glyph glyph-name="Umacron" unicode="&#x16a;" horiz-adv-x="443" 
d="M324 780h-205q-10 0 -10 10v60q0 10 10 10h205q10 0 10 -10v-60q0 -10 -10 -10zM222 -9q-80 0 -125 46.5t-45 135.5v497q0 10 10 10h87q10 0 10 -10v-511q0 -33 16.5 -52t46.5 -19t46 19t16 52v511q0 10 10 10h87q10 0 10 -10v-497q0 -89 -44.5 -135.5t-124.5 -46.5z" />
    <glyph glyph-name="umacron" unicode="&#x16b;" horiz-adv-x="403" 
d="M342 0h-82q-10 0 -10 10v38h-1q-29 -57 -91 -57q-111 0 -111 150v331q0 10 10 10h82q10 0 10 -10v-317q0 -70 50 -70q51 0 51 70v317q0 10 10 10h82q10 0 10 -10v-462q0 -10 -10 -10zM304 588h-205q-10 0 -10 10v60q0 10 10 10h205q10 0 10 -10v-60q0 -10 -10 -10z" />
    <glyph glyph-name="Ubreve" unicode="&#x16c;" horiz-adv-x="443" 
d="M221 742q-56 0 -88 34t-36 85q0 10 10 10h45q7 0 10 -10q17 -48 59 -48q43 0 60 48q3 10 10 10h45q10 0 10 -10q-4 -51 -36 -85t-89 -34zM222 -9q-80 0 -125 46.5t-45 135.5v497q0 10 10 10h87q10 0 10 -10v-511q0 -33 16.5 -52t46.5 -19t46 19t16 52v511q0 10 10 10h87
q10 0 10 -10v-497q0 -89 -44.5 -135.5t-124.5 -46.5z" />
    <glyph glyph-name="ubreve" unicode="&#x16d;" horiz-adv-x="403" 
d="M342 0h-82q-10 0 -10 10v38h-1q-29 -57 -91 -57q-111 0 -111 150v331q0 10 10 10h82q10 0 10 -10v-317q0 -70 50 -70q51 0 51 70v317q0 10 10 10h82q10 0 10 -10v-462q0 -10 -10 -10zM201 556q-56 0 -88 33.5t-36 85.5q0 10 10 10h45q7 0 10 -10q17 -49 59 -49
q43 0 60 49q3 10 10 10h45q10 0 10 -10q-4 -52 -36 -85.5t-89 -33.5z" />
    <glyph glyph-name="Uring" unicode="&#x16e;" horiz-adv-x="443" 
d="M222 -9q-80 0 -125 46.5t-45 135.5v497q0 10 10 10h87q10 0 10 -10v-511q0 -33 16.5 -52t46.5 -19t46 19t16 52v511q0 10 10 10h87q10 0 10 -10v-497q0 -89 -44.5 -135.5t-124.5 -46.5zM221 721q-38 0 -64 26t-26 65q0 38 26 64t64 26q39 0 65 -26t26 -64q0 -39 -26 -65
t-65 -26zM221 764q20 0 33 14t13 34t-13 33.5t-33 13.5q-19 0 -32 -13.5t-13 -33.5t13 -34t32 -14z" />
    <glyph glyph-name="uring" unicode="&#x16f;" horiz-adv-x="403" 
d="M201 539q-38 0 -64 26t-26 64q0 39 26 65t64 26q39 0 65 -26t26 -65q0 -38 -26 -64t-65 -26zM201 582q20 0 33 13.5t13 33.5q0 21 -13 34.5t-33 13.5t-32.5 -13.5t-12.5 -34.5q0 -20 13 -33.5t32 -13.5zM342 0h-82q-10 0 -10 10v38h-1q-29 -57 -91 -57q-111 0 -111 150
v331q0 10 10 10h82q10 0 10 -10v-317q0 -70 50 -70q51 0 51 70v317q0 10 10 10h82q10 0 10 -10v-462q0 -10 -10 -10z" />
    <glyph glyph-name="Uhungarumlaut" unicode="&#x170;" horiz-adv-x="443" 
d="M222 -9q-80 0 -125 46.5t-45 135.5v497q0 10 10 10h87q10 0 10 -10v-511q0 -33 16.5 -52t46.5 -19t46 19t16 52v511q0 10 10 10h87q10 0 10 -10v-497q0 -89 -44.5 -135.5t-124.5 -46.5zM308 761h-50q-12 0 -5 10l69 107q7 10 17 10h68q5 0 6 -3t-2 -7l-84 -107
q-9 -10 -19 -10zM175 761h-50q-12 0 -5 10l70 107q7 10 17 10h67q4 0 5.5 -3t-1.5 -7l-84 -107q-9 -10 -19 -10z" />
    <glyph glyph-name="uhungarumlaut" unicode="&#x171;" horiz-adv-x="403" 
d="M342 0h-82q-10 0 -10 10v38h-1q-29 -57 -91 -57q-111 0 -111 150v331q0 10 10 10h82q10 0 10 -10v-317q0 -70 50 -70q51 0 51 70v317q0 10 10 10h82q10 0 10 -10v-462q0 -10 -10 -10zM289 555h-51q-11 0 -6 10l61 125q4 10 16 10h67q11 0 5 -10l-75 -125q-6 -10 -17 -10z
M156 555h-50q-11 0 -6 10l60 125q4 10 16 10h67q11 0 5 -10l-74 -125q-6 -10 -18 -10z" />
    <glyph glyph-name="Uogonek" unicode="&#x172;" horiz-adv-x="443" 
d="M225 -190q-41 0 -65.5 21.5t-24.5 61.5q0 47 43 102q-60 11 -93 56t-33 122v497q0 10 10 10h87q10 0 10 -10v-511q0 -33 16.5 -52t46.5 -19t46 19t16 52v511q0 10 10 10h87q10 0 10 -10v-497q0 -76 -32.5 -121t-91.5 -57q-48 -55 -48 -86q0 -24 19 -24q10 0 18 5
q9 6 13 -4l21 -46q3 -8 -5 -13q-25 -17 -60 -17z" />
    <glyph glyph-name="uogonek" unicode="&#x173;" horiz-adv-x="403" 
d="M284 -190q-41 0 -65.5 21.5t-24.5 61.5q0 54 59 109q-3 3 -3 8v38h-1q-29 -57 -91 -57q-111 0 -111 150v331q0 10 10 10h82q10 0 10 -10v-317q0 -70 50 -70q51 0 51 70v317q0 10 10 10h82q10 0 10 -10v-462q0 -7 -7 -11q-29 -19 -48 -44.5t-19 -45.5q0 -24 19 -24
q10 0 18 5q9 6 13 -4l21 -46q3 -8 -5 -13q-25 -17 -60 -17z" />
    <glyph glyph-name="Wcircumflex" unicode="&#x174;" horiz-adv-x="579" 
d="M445 0h-74q-8 0 -10 10l-69 437h-2l-72 -437q-2 -10 -10 -10h-75q-8 0 -10 10l-105 660q-2 10 9 10h86q10 0 11 -10l49 -443h3l73 443q1 10 11 10h59q10 0 11 -10l73 -443h3l52 443q1 10 11 10h83q11 0 9 -10l-106 -660q-2 -10 -10 -10zM416 750h-60q-10 0 -19 10l-48 60
h-2l-47 -60q-9 -10 -19 -10h-60q-5 0 -6 3t2 7l88 125q7 10 17 10h52q11 0 18 -10l88 -125q3 -4 1.5 -7t-5.5 -3z" />
    <glyph glyph-name="wcircumflex" unicode="&#x175;" horiz-adv-x="541" 
d="M397 555h-60q-10 0 -19 10l-48 60h-2l-47 -60q-9 -10 -19 -10h-60q-4 0 -5.5 3t1.5 7l88 125q7 10 17 10h52q11 0 18 -10l88 -125q3 -4 2 -7t-6 -3zM403 0h-70q-11 0 -12 10l-50 280h-2l-49 -280q-1 -10 -12 -10h-70q-10 0 -11 10l-109 462q-3 10 7 10h84q9 0 11 -10
l54 -298h1l56 298q2 10 11 10h59q9 0 11 -10l54 -298h1l55 298q2 10 11 10h83q10 0 7 -10l-108 -462q-3 -10 -12 -10z" />
    <glyph glyph-name="Ycircumflex" unicode="&#x176;" horiz-adv-x="386" 
d="M237 0h-87q-10 0 -10 10v269l-130 391q-3 10 8 10h88q9 0 12 -10l76 -263h3l74 263q3 10 12 10h86q11 0 8 -10l-130 -391v-269q0 -10 -10 -10zM321 750h-60q-10 0 -19 10l-48 60h-2l-47 -60q-9 -10 -19 -10h-60q-4 0 -5.5 3t1.5 7l88 125q7 10 17 10h52q11 0 18 -10
l88 -125q3 -4 2 -7t-6 -3z" />
    <glyph glyph-name="ycircumflex" unicode="&#x177;" horiz-adv-x="370" 
d="M77 -180h-15q-10 0 -10 10v74q0 10 10 10l14 1q22 2 34 13.5t19 41.5l11 48l-120 454q-3 10 7 10h84q9 0 11 -10l64 -298h1l64 298q2 10 11 10h81q10 0 7 -10l-127 -500q-23 -92 -53.5 -122t-92.5 -30zM313 555h-60q-10 0 -19 10l-48 60h-2l-47 -60q-9 -10 -19 -10h-60
q-4 0 -5.5 3t1.5 7l88 125q7 10 17 10h52q11 0 18 -10l88 -125q3 -4 2 -7t-6 -3z" />
    <glyph glyph-name="Ydieresis" unicode="&#x178;" horiz-adv-x="386" 
d="M237 0h-87q-10 0 -10 10v269l-130 391q-3 10 8 10h88q9 0 12 -10l76 -263h3l74 263q3 10 12 10h86q11 0 8 -10l-130 -391v-269q0 -10 -10 -10zM302 769h-65q-10 0 -10 10v86q0 10 10 10h65q10 0 10 -10v-86q0 -10 -10 -10zM150 769h-65q-10 0 -10 10v86q0 10 10 10h65
q10 0 10 -10v-86q0 -10 -10 -10z" />
    <glyph glyph-name="Zacute" unicode="&#x179;" horiz-adv-x="370" 
d="M326 0h-281q-10 0 -10 10v72q0 4 2 10l187 489v2h-169q-10 0 -10 10v77q0 10 10 10h271q10 0 10 -10v-74q0 -4 -2 -10l-184 -487v-2h176q10 0 10 -10v-77q0 -10 -10 -10zM202 761h-55q-5 0 -7 3t1 7l77 107q7 10 16 10h81q5 0 6.5 -3t-1.5 -7l-98 -107q-10 -10 -20 -10z
" />
    <glyph glyph-name="zacute" unicode="&#x17a;" horiz-adv-x="320" 
d="M187 555h-57q-11 0 -6 10l69 125q6 10 16 10h81q5 0 6.5 -3t-1.5 -7l-90 -125q-7 -10 -18 -10zM286 0h-248q-10 0 -10 10v68q0 7 3 13l149 299v2h-132q-10 0 -10 10v70q0 10 10 10h238q10 0 10 -10v-57q0 -7 -3 -13l-155 -309v-2h148q10 0 10 -10v-71q0 -10 -10 -10z" />
    <glyph glyph-name="Zdotaccent" unicode="&#x17b;" horiz-adv-x="370" 
d="M229 769h-82q-10 0 -10 10v86q0 10 10 10h82q10 0 10 -10v-86q0 -10 -10 -10zM326 0h-281q-10 0 -10 10v72q0 4 2 10l187 489v2h-169q-10 0 -10 10v77q0 10 10 10h271q10 0 10 -10v-74q0 -4 -2 -10l-184 -487v-2h176q10 0 10 -10v-77q0 -10 -10 -10z" />
    <glyph glyph-name="zdotaccent" unicode="&#x17c;" horiz-adv-x="320" 
d="M286 0h-248q-10 0 -10 10v68q0 7 3 13l149 299v2h-132q-10 0 -10 10v70q0 10 10 10h238q10 0 10 -10v-57q0 -7 -3 -13l-155 -309v-2h148q10 0 10 -10v-71q0 -10 -10 -10zM203 574h-82q-10 0 -10 10v86q0 10 10 10h82q10 0 10 -10v-86q0 -10 -10 -10z" />
    <glyph glyph-name="Zcaron" unicode="&#x17d;" horiz-adv-x="370" 
d="M214 747h-52q-10 0 -17 10l-88 125q-3 4 -2 7t6 3h60q10 0 19 -10l47 -59h2l48 59q9 10 19 10h60q4 0 5.5 -3t-1.5 -7l-88 -125q-7 -10 -18 -10zM326 0h-281q-10 0 -10 10v72q0 4 2 10l187 489v2h-169q-10 0 -10 10v77q0 10 10 10h271q10 0 10 -10v-74q0 -4 -2 -10
l-184 -487v-2h176q10 0 10 -10v-77q0 -10 -10 -10z" />
    <glyph glyph-name="zcaron" unicode="&#x17e;" horiz-adv-x="320" 
d="M188 555h-52q-10 0 -17 10l-88 125q-3 4 -2 7t6 3h60q10 0 19 -10l47 -60h2l48 60q9 10 19 10h60q4 0 5.5 -3t-1.5 -7l-88 -125q-7 -10 -18 -10zM286 0h-248q-10 0 -10 10v68q0 7 3 13l149 299v2h-132q-10 0 -10 10v70q0 10 10 10h238q10 0 10 -10v-57q0 -7 -3 -13
l-155 -309v-2h148q10 0 10 -10v-71q0 -10 -10 -10z" />
    <glyph glyph-name="florin" unicode="&#x192;" 
d="M338 325h-78l-46 -343q-11 -84 -49.5 -123t-115.5 -39h-21q-10 0 -10 10v74q0 10 10 10h15q33 0 49 14t20 49l47 348h-67q-10 0 -10 10v62q0 10 10 10h78l15 111q11 84 49.5 123t115.5 39h21q10 0 10 -10v-74q0 -10 -10 -10h-15q-33 0 -49 -14t-20 -49l-16 -116h67
q10 0 10 -10v-62q0 -10 -10 -10z" />
    <glyph glyph-name="Aringacute" unicode="&#x1fa;" horiz-adv-x="421" 
d="M239 773h-58q-5 0 -6 3t2 7l82 95q9 10 21 10h77q5 0 6.5 -3t-1.5 -7l-103 -95q-10 -10 -20 -10zM401 0h-85q-9 0 -11 10l-27 137h-135l-27 -137q-2 -10 -11 -10h-85q-10 0 -8 10l127 569q3 9 10 10q-27 25 -27 67q0 39 25.5 64.5t64.5 25.5t64.5 -25.5t25.5 -64.5
q0 -41 -28 -67q9 0 11 -10l124 -569q2 -10 -8 -10zM212 609q19 0 32 13.5t13 33.5t-13 33.5t-32 13.5t-32 -13.5t-13 -33.5t13 -33.5t32 -13.5zM210 490l-50 -253h101l-48 253h-3z" />
    <glyph glyph-name="aringacute" unicode="&#x1fb;" horiz-adv-x="383" 
d="M215 773h-58q-5 0 -6 3t2 7l82 95q9 10 21 10h77q5 0 6.5 -3t-1.5 -7l-104 -95q-10 -10 -19 -10zM327 0h-78q-10 0 -10 10v38h-1q-9 -26 -33 -41.5t-56 -15.5q-48 0 -81.5 34t-33.5 110q0 80 41 116.5t106 36.5h52q6 0 6 6v28q0 41 -14.5 59t-51.5 18q-39 0 -80 -28
q-10 -7 -15 4l-26 59q-4 7 3 14q55 43 131 43q81 0 116 -38.5t35 -126.5v-316q0 -10 -10 -10zM179 75q27 0 43.5 19t16.5 49v57q0 6 -6 6h-35q-67 0 -67 -67q0 -64 48 -64zM191 539q-38 0 -64 26t-26 64q0 39 26 65t64 26q39 0 65 -26t26 -65q0 -38 -26 -64t-65 -26z
M191 582q20 0 33 13.5t13 33.5q0 21 -13 34.5t-33 13.5t-32.5 -13.5t-12.5 -34.5q0 -20 13 -33.5t32 -13.5z" />
    <glyph glyph-name="AEacute" unicode="&#x1fc;" horiz-adv-x="656" 
d="M375 761h-55q-5 0 -7 3t1 7l77 107q7 10 16 10h81q5 0 6.5 -3t-1.5 -7l-98 -107q-10 -10 -20 -10zM617 0h-278q-10 0 -10 10v131q0 6 -6 6h-157l-50 -137q-3 -10 -13 -10h-84q-10 0 -7 10l247 660q3 10 11 10h347q10 0 10 -10v-77q0 -10 -10 -10h-175q-6 0 -6 -6v-179
q0 -6 6 -6h152q10 0 10 -10v-77q0 -10 -10 -10h-152q-6 0 -6 -6v-186q0 -6 6 -6h175q10 0 10 -10v-77q0 -10 -10 -10zM326 582l-127 -345h124q6 0 6 6v339h-3z" />
    <glyph glyph-name="aeacute" unicode="&#x1fd;" horiz-adv-x="578" 
d="M315 555h-57q-11 0 -6 10l69 125q6 10 16 10h81q5 0 6.5 -3t-1.5 -7l-90 -125q-7 -10 -18 -10zM388 -9q-86 0 -123 58h-1q-24 -33 -50.5 -45.5t-64.5 -12.5q-47 0 -81 34t-34 110q0 80 41 116.5t106 36.5h52q6 0 6 6v28q0 41 -14.5 59t-51.5 18q-39 0 -80 -28
q-10 -7 -15 4l-26 59q-4 7 3 14q55 43 131 43q72 0 106 -33h1q35 33 96 33q113 0 144 -96q11 -38 11 -179q0 -10 -10 -10h-191q-6 0 -6 -6q0 -65 5 -83q11 -33 47 -33q40 0 53 44q3 9 12 7l77 -15q9 -1 7 -12q-11 -54 -51 -85.5t-99 -31.5zM436 288q6 0 6 6q0 55 -7 74
q-10 32 -46 32t-46 -32q-6 -16 -6 -74q0 -6 6 -6h93zM179 75q27 0 43.5 19t16.5 49v57q0 6 -6 6h-35q-67 0 -67 -67q0 -64 48 -64z" />
    <glyph glyph-name="Oslashacute" unicode="&#x1fe;" horiz-adv-x="429" 
d="M67 -30h-27q-11 0 -6 10l35 82q-10 18 -15 35q-8 24 -10.5 66t-2.5 177t2.5 177t10.5 66q35 106 161 106q69 0 113 -36l21 48q4 9 13 9h26q10 0 7 -10l-36 -82q11 -20 16 -35q8 -24 10.5 -66t2.5 -177t-2.5 -177t-10.5 -66q-35 -106 -160 -106q-71 0 -115 35l-20 -47
q-4 -9 -13 -9zM150 340v-102l125 305l-3 11q-12 38 -57 38q-46 0 -58 -38q-7 -22 -7 -214zM215 88q45 0 57 38q7 22 7 214v101l-125 -304l3 -11q12 -38 58 -38zM230 761h-55q-5 0 -7 3t1 7l77 107q7 10 16 10h81q5 0 6.5 -3t-1.5 -7l-98 -107q-10 -10 -20 -10z" />
    <glyph glyph-name="oslashacute" unicode="&#x1ff;" horiz-adv-x="385" 
d="M348 241q0 -117 -11 -151q-15 -47 -52.5 -73t-92.5 -26t-92 26l-19 -37q-5 -10 -13 -10h-22q-12 0 -7 10l33 64q-17 20 -24 46q-11 34 -11 151t11 151q15 47 52.5 73t91.5 26q55 0 93 -26l19 37q5 10 13 10h22q12 0 7 -10l-33 -65q15 -19 24 -45q11 -34 11 -151zM138 241
v-72l99 206q-14 23 -45 23q-38 0 -49 -34q-5 -18 -5 -123zM247 241v69l-99 -204q14 -22 44 -22q39 0 50 34q5 18 5 123zM213 555h-57q-11 0 -6 10l69 125q6 10 16 10h81q5 0 6.5 -3t-1.5 -7l-90 -125q-7 -10 -18 -10z" />
    <glyph glyph-name="Scommaaccent" unicode="&#x218;" horiz-adv-x="404" 
d="M166 -221q-8 0 -8 10v147q0 10 10 10h70q10 0 10 -10v-55q0 -13 -8 -22l-61 -73q-6 -7 -13 -7zM375 195q0 -104 -40 -154t-134 -50q-166 0 -170 178q0 10 8 11l84 14q11 2 11 -9q2 -54 18.5 -77t51.5 -23q33 0 48.5 21.5t15.5 75.5q0 55 -13.5 78.5t-53.5 39.5l-41 16
q-70 27 -96 69t-26 123q0 181 165 181q158 0 167 -166q0 -8 -9 -11l-80 -12q-11 -2 -11 8q-3 87 -64 87q-62 0 -62 -82q0 -47 13 -67t53 -36l41 -16q68 -27 96 -70.5t28 -128.5z" />
    <glyph glyph-name="scommaaccent" unicode="&#x219;" horiz-adv-x="350" 
d="M139 -221q-8 0 -8 10v147q0 10 10 10h70q10 0 10 -10v-55q0 -13 -8 -22l-61 -73q-6 -7 -13 -7zM176 -9q-65 0 -104.5 33t-45.5 90q-2 10 8 12l72 14q10 2 12 -8q7 -56 59 -56q23 0 37.5 15t14.5 40q0 23 -11.5 37.5t-40.5 25.5l-39 15q-104 40 -104 141q0 61 39.5 101
t103.5 40q60 0 96 -31.5t43 -78.5q2 -11 -7 -13l-68 -13q-9 -1 -12 8q-12 44 -52 44q-22 0 -34.5 -14t-12.5 -36q0 -37 52 -57l39 -15q56 -21 80 -56.5t24 -90.5q0 -65 -39.5 -106t-109.5 -41z" />
    <glyph glyph-name="uni021A" unicode="&#x21a;" horiz-adv-x="375" 
d="M152 -221q-8 0 -8 10v147q0 10 10 10h70q10 0 10 -10v-55q0 -13 -8 -22l-61 -73q-6 -7 -13 -7zM231 0h-87q-10 0 -10 10v567q0 6 -6 6h-104q-10 0 -10 10v77q0 10 10 10h327q10 0 10 -10v-77q0 -10 -10 -10h-104q-6 0 -6 -6v-567q0 -10 -10 -10z" />
    <glyph glyph-name="uni021B" unicode="&#x21b;" horiz-adv-x="255" 
d="M111 -221q-8 0 -8 10v147q0 10 10 10h70q10 0 10 -10v-55q0 -13 -8 -22l-61 -73q-6 -7 -13 -7zM219 -6h-30q-64 0 -93.5 31t-29.5 102v271q0 6 -6 6h-29q-10 0 -10 10v58q0 10 10 10h29q6 0 6 6v132q0 10 10 10h82q10 0 10 -10v-132q0 -6 6 -6h45q10 0 10 -10v-58
q0 -10 -10 -10h-45q-6 0 -6 -6v-269q0 -41 39 -41h12q10 0 10 -10v-74q0 -10 -10 -10z" />
    <glyph glyph-name="dotlessj" unicode="&#x237;" horiz-adv-x="204" 
d="M11 -180h-15q-10 0 -10 10v74q0 10 10 10l14 1q22 2 31.5 13.5t9.5 41.5v502q0 10 10 10h82q10 0 10 -10v-508q0 -73 -34 -108.5t-108 -35.5z" />
    <glyph glyph-name="circumflex" unicode="&#x2c6;" horiz-adv-x="415" 
d="M335 555h-60q-10 0 -19 10l-48 60h-2l-47 -60q-9 -10 -19 -10h-60q-4 0 -5.5 3t1.5 7l88 125q7 10 17 10h52q11 0 18 -10l88 -125q3 -4 2 -7t-6 -3z" />
    <glyph glyph-name="caron" unicode="&#x2c7;" horiz-adv-x="415" 
d="M233 555h-52q-10 0 -17 10l-88 125q-3 4 -1.5 7t5.5 3h60q10 0 19 -10l47 -60h2l48 60q9 10 19 10h60q5 0 6 -3t-2 -7l-88 -125q-7 -10 -18 -10z" />
    <glyph glyph-name="uni02C9" unicode="&#x2c9;" horiz-adv-x="415" 
d="M310 780h-205q-10 0 -10 10v60q0 10 10 10h205q10 0 10 -10v-60q0 -10 -10 -10z" />
    <glyph glyph-name="breve" unicode="&#x2d8;" horiz-adv-x="415" 
d="M207 556q-56 0 -88 33.5t-36 85.5q0 10 10 10h45q7 0 10 -10q17 -49 59 -49q43 0 60 49q3 10 10 10h45q10 0 10 -10q-4 -52 -36 -85.5t-89 -33.5z" />
    <glyph glyph-name="dotaccent" unicode="&#x2d9;" horiz-adv-x="415" 
d="M248 574h-82q-10 0 -10 10v86q0 10 10 10h82q10 0 10 -10v-86q0 -10 -10 -10z" />
    <glyph glyph-name="ring" unicode="&#x2da;" horiz-adv-x="415" 
d="M207 539q-38 0 -64 26t-26 64q0 39 26 65t64 26q39 0 65 -26t26 -65q0 -38 -26 -64t-65 -26zM207 582q20 0 33 13.5t13 33.5q0 21 -13 34.5t-33 13.5t-32.5 -13.5t-12.5 -34.5q0 -20 13 -33.5t32 -13.5z" />
    <glyph glyph-name="ogonek" unicode="&#x2db;" horiz-adv-x="415" 
d="M220 -190q-41 0 -65 21.5t-24 61.5q0 55 56 107q10 10 18 10h75q5 0 6 -4t-3 -6q-30 -20 -49.5 -45.5t-19.5 -45.5q0 -24 20 -24q10 0 18 5q9 6 13 -4l20 -46q3 -8 -5 -13q-25 -17 -60 -17z" />
    <glyph glyph-name="tilde" unicode="&#x2dc;" horiz-adv-x="415" 
d="M251 567q-24 0 -52 18q-23 16 -38 16q-22 0 -48 -26q-4 -4 -8 -2.5t-4 6.5v61q0 9 10 19q24 24 51 24q25 0 51 -18q25 -16 39 -16q24 0 48 26q4 4 8 2.5t4 -6.5v-61q0 -9 -10 -19q-24 -24 -51 -24z" />
    <glyph glyph-name="hungarumlaut" unicode="&#x2dd;" horiz-adv-x="415" 
d="M278 555h-51q-11 0 -6 10l61 125q4 10 16 10h67q11 0 5 -10l-75 -125q-6 -10 -17 -10zM145 555h-50q-11 0 -6 10l60 125q4 10 16 10h67q11 0 5 -10l-74 -125q-6 -10 -18 -10z" />
    <glyph glyph-name="Delta" unicode="&#x394;" horiz-adv-x="421" 
d="M401 0h-381q-10 0 -8 10l147 660q3 10 11 10h84q9 0 11 -10l144 -660q2 -10 -8 -10zM282 98q6 0 5 6l-74 386h-3l-76 -386q-2 -6 5 -6h143z" />
    <glyph glyph-name="Delta" unicode="&#x2206;" horiz-adv-x="421" 
d="M401 0h-381q-10 0 -8 10l147 660q3 10 11 10h84q9 0 11 -10l144 -660q2 -10 -8 -10zM282 98q6 0 5 6l-74 386h-3l-76 -386q-2 -6 5 -6h143z" />
    <glyph glyph-name="Omega" unicode="&#x3a9;" horiz-adv-x="429" 
d="M388 0h-135q-10 0 -10 10v73q0 9 9 15q20 16 24.5 53.5t4.5 188.5q0 190 -7 212q-5 18 -21 29t-38 11q-48 0 -60 -40q-7 -22 -7 -212q0 -151 4.5 -188.5t24.5 -53.5q9 -6 9 -15v-73q0 -10 -10 -10h-135q-10 0 -10 10v78q0 10 10 10h37v1q-16 16 -23.5 34t-11.5 65.5
t-4 141.5q0 135 2.5 176t10.5 65q17 51 59 79.5t104 28.5q61 0 103 -28.5t59 -79.5q8 -24 10.5 -65t2.5 -176q0 -94 -4 -141.5t-11.5 -65.5t-23.5 -34v-1h37q10 0 10 -10v-78q0 -10 -10 -10z" />
    <glyph glyph-name="Omega" unicode="&#x2126;" horiz-adv-x="429" 
d="M388 0h-135q-10 0 -10 10v73q0 9 9 15q20 16 24.5 53.5t4.5 188.5q0 190 -7 212q-5 18 -21 29t-38 11q-48 0 -60 -40q-7 -22 -7 -212q0 -151 4.5 -188.5t24.5 -53.5q9 -6 9 -15v-73q0 -10 -10 -10h-135q-10 0 -10 10v78q0 10 10 10h37v1q-16 16 -23.5 34t-11.5 65.5
t-4 141.5q0 135 2.5 176t10.5 65q17 51 59 79.5t104 28.5q61 0 103 -28.5t59 -79.5q8 -24 10.5 -65t2.5 -176q0 -94 -4 -141.5t-11.5 -65.5t-23.5 -34v-1h37q10 0 10 -10v-78q0 -10 -10 -10z" />
    <glyph glyph-name="pi" unicode="&#x3c0;" horiz-adv-x="428" 
d="M390 -6h-9q-64 0 -92.5 30t-28.5 99v259q0 6 -6 6h-78q-6 0 -6 -6v-372q0 -10 -10 -10h-82q-10 0 -10 10v372q0 6 -6 6h-38q-10 0 -10 10v74q0 10 10 10h378q10 0 10 -10v-74q0 -10 -10 -10h-37q-6 0 -6 -6v-261q0 -21 6 -28t21 -7h4q10 0 10 -10v-72q0 -10 -10 -10z" />
    <glyph glyph-name="Wgrave" unicode="&#x1e80;" horiz-adv-x="579" 
d="M318 761h-55q-10 0 -20 10l-99 107q-3 4 -1.5 7t6.5 3h81q10 0 17 -10l76 -107q3 -4 1.5 -7t-6.5 -3zM445 0h-74q-8 0 -10 10l-69 437h-2l-72 -437q-2 -10 -10 -10h-75q-8 0 -10 10l-105 660q-2 10 9 10h86q10 0 11 -10l49 -443h3l73 443q1 10 11 10h59q10 0 11 -10
l73 -443h3l52 443q1 10 11 10h83q11 0 9 -10l-106 -660q-2 -10 -10 -10z" />
    <glyph glyph-name="wgrave" unicode="&#x1e81;" horiz-adv-x="541" 
d="M403 0h-70q-11 0 -12 10l-50 280h-2l-49 -280q-1 -10 -12 -10h-70q-10 0 -11 10l-109 462q-3 10 7 10h84q9 0 11 -10l54 -298h1l56 298q2 10 11 10h59q9 0 11 -10l54 -298h1l55 298q2 10 11 10h83q10 0 7 -10l-108 -462q-3 -10 -12 -10zM299 555h-57q-10 0 -18 10
l-90 125q-3 4 -1.5 7t6.5 3h81q10 0 16 -10l69 -125q5 -10 -6 -10z" />
    <glyph glyph-name="Wacute" unicode="&#x1e82;" horiz-adv-x="579" 
d="M316 761h-55q-5 0 -7 3t1 7l77 107q7 10 16 10h81q5 0 6.5 -3t-1.5 -7l-98 -107q-10 -10 -20 -10zM445 0h-74q-8 0 -10 10l-69 437h-2l-72 -437q-2 -10 -10 -10h-75q-8 0 -10 10l-105 660q-2 10 9 10h86q10 0 11 -10l49 -443h3l73 443q1 10 11 10h59q10 0 11 -10l73 -443
h3l52 443q1 10 11 10h83q11 0 9 -10l-106 -660q-2 -10 -10 -10z" />
    <glyph glyph-name="wacute" unicode="&#x1e83;" horiz-adv-x="541" 
d="M297 555h-57q-11 0 -6 10l69 125q6 10 16 10h81q5 0 6.5 -3t-1.5 -7l-90 -125q-7 -10 -18 -10zM403 0h-70q-11 0 -12 10l-50 280h-2l-49 -280q-1 -10 -12 -10h-70q-10 0 -11 10l-109 462q-3 10 7 10h84q9 0 11 -10l54 -298h1l56 298q2 10 11 10h59q9 0 11 -10l54 -298h1
l55 298q2 10 11 10h83q10 0 7 -10l-108 -462q-3 -10 -12 -10z" />
    <glyph glyph-name="Wdieresis" unicode="&#x1e84;" horiz-adv-x="579" 
d="M397 769h-65q-10 0 -10 10v86q0 10 10 10h65q10 0 10 -10v-86q0 -10 -10 -10zM245 769h-65q-10 0 -10 10v86q0 10 10 10h65q10 0 10 -10v-86q0 -10 -10 -10zM445 0h-74q-8 0 -10 10l-69 437h-2l-72 -437q-2 -10 -10 -10h-75q-8 0 -10 10l-105 660q-2 10 9 10h86
q10 0 11 -10l49 -443h3l73 443q1 10 11 10h59q10 0 11 -10l73 -443h3l52 443q1 10 11 10h83q11 0 9 -10l-106 -660q-2 -10 -10 -10z" />
    <glyph glyph-name="wdieresis" unicode="&#x1e85;" horiz-adv-x="541" 
d="M378 574h-65q-10 0 -10 10v86q0 10 10 10h65q10 0 10 -10v-86q0 -10 -10 -10zM226 574h-65q-10 0 -10 10v86q0 10 10 10h65q10 0 10 -10v-86q0 -10 -10 -10zM403 0h-70q-11 0 -12 10l-50 280h-2l-49 -280q-1 -10 -12 -10h-70q-10 0 -11 10l-109 462q-3 10 7 10h84
q9 0 11 -10l54 -298h1l56 298q2 10 11 10h59q9 0 11 -10l54 -298h1l55 298q2 10 11 10h83q10 0 7 -10l-108 -462q-3 -10 -12 -10z" />
    <glyph glyph-name="Ygrave" unicode="&#x1ef2;" horiz-adv-x="386" 
d="M237 0h-87q-10 0 -10 10v269l-130 391q-3 10 8 10h88q9 0 12 -10l76 -263h3l74 263q3 10 12 10h86q11 0 8 -10l-130 -391v-269q0 -10 -10 -10zM231 761h-55q-10 0 -20 10l-99 107q-3 4 -1.5 7t6.5 3h81q10 0 17 -10l76 -107q3 -4 1.5 -7t-6.5 -3z" />
    <glyph glyph-name="ygrave" unicode="&#x1ef3;" horiz-adv-x="370" 
d="M77 -180h-15q-10 0 -10 10v74q0 10 10 10l14 1q22 2 34 13.5t19 41.5l11 48l-120 454q-3 10 7 10h84q9 0 11 -10l64 -298h1l64 298q2 10 11 10h81q10 0 7 -10l-127 -500q-23 -92 -53.5 -122t-92.5 -30zM217 555h-57q-10 0 -18 10l-90 125q-3 4 -1.5 7t6.5 3h81
q10 0 16 -10l69 -125q5 -10 -6 -10z" />
    <glyph glyph-name="endash" unicode="&#x2013;" horiz-adv-x="408" 
d="M382 225h-356q-10 0 -10 10v61q0 10 10 10h356q10 0 10 -10v-61q0 -10 -10 -10z" />
    <glyph glyph-name="emdash" unicode="&#x2014;" horiz-adv-x="594" 
d="M568 225h-542q-10 0 -10 10v61q0 10 10 10h542q10 0 10 -10v-61q0 -10 -10 -10z" />
    <glyph glyph-name="quoteleft" unicode="&#x2018;" horiz-adv-x="171" 
d="M121 493h-71q-10 0 -10 10v73q0 14 8 23l62 75q6 7 12 7q9 0 9 -9v-169q0 -10 -10 -10z" />
    <glyph glyph-name="quoteright" unicode="&#x2019;" horiz-adv-x="171" 
d="M49 492q-9 0 -9 9v169q0 10 10 10h71q10 0 10 -10v-73q0 -14 -8 -23l-62 -75q-6 -7 -12 -7z" />
    <glyph glyph-name="quotesinglbase" unicode="&#x201a;" horiz-adv-x="171" 
d="M49 -93q-9 0 -9 9v169q0 10 10 10h71q10 0 10 -10v-73q0 -14 -8 -23l-62 -75q-6 -7 -12 -7z" />
    <glyph glyph-name="quotedblleft" unicode="&#x201c;" horiz-adv-x="299" 
d="M249 493h-71q-10 0 -10 10v73q0 14 8 23l62 75q6 7 12 7q9 0 9 -9v-169q0 -10 -10 -10zM121 493h-71q-10 0 -10 10v73q0 14 8 23l62 75q6 7 12 7q9 0 9 -9v-169q0 -10 -10 -10z" />
    <glyph glyph-name="quotedblright" unicode="&#x201d;" horiz-adv-x="299" 
d="M177 492q-9 0 -9 9v169q0 10 10 10h71q10 0 10 -10v-73q0 -14 -8 -23l-62 -75q-6 -7 -12 -7zM49 492q-9 0 -9 9v169q0 10 10 10h71q10 0 10 -10v-73q0 -14 -8 -23l-62 -75q-6 -7 -12 -7z" />
    <glyph glyph-name="quotedblbase" unicode="&#x201e;" horiz-adv-x="299" 
d="M177 -94q-9 0 -9 9v170q0 10 10 10h71q10 0 10 -10v-74q0 -14 -8 -23l-62 -75q-6 -7 -12 -7zM49 -94q-9 0 -9 9v170q0 10 10 10h71q10 0 10 -10v-74q0 -14 -8 -23l-62 -75q-6 -7 -12 -7z" />
    <glyph glyph-name="dagger" unicode="&#x2020;" horiz-adv-x="520" 
d="M299 -180h-78q-10 0 -10 10v523q0 6 -6 6h-114q-10 0 -10 10v70q0 10 10 10h114q6 0 6 6v215q0 10 10 10h78q10 0 10 -10v-215q0 -6 6 -6h114q10 0 10 -10v-70q0 -10 -10 -10h-114q-6 0 -6 -6v-523q0 -10 -10 -10z" />
    <glyph glyph-name="daggerdbl" unicode="&#x2021;" horiz-adv-x="520" 
d="M299 -180h-78q-10 0 -10 10v185q0 6 -6 6h-114q-10 0 -10 10v70q0 10 10 10h114q6 0 6 6v266q0 6 -6 6h-114q-10 0 -10 10v70q0 10 10 10h114q6 0 6 6v185q0 10 10 10h78q10 0 10 -10v-185q0 -6 6 -6h114q10 0 10 -10v-70q0 -10 -10 -10h-114q-6 0 -6 -6v-266q0 -6 6 -6
h114q10 0 10 -10v-70q0 -10 -10 -10h-114q-6 0 -6 -6v-185q0 -10 -10 -10z" />
    <glyph glyph-name="bullet" unicode="&#x2022;" horiz-adv-x="443" 
d="M221 179q-55 0 -92 36.5t-37 92.5t37 92.5t92 36.5q56 0 93 -37t37 -92t-37 -92t-93 -37z" />
    <glyph glyph-name="ellipsis" unicode="&#x2026;" horiz-adv-x="591" 
d="M535 0h-85q-10 0 -10 10v99q0 10 10 10h85q10 0 10 -10v-99q0 -10 -10 -10zM338 0h-85q-10 0 -10 10v99q0 10 10 10h85q10 0 10 -10v-99q0 -10 -10 -10zM141 0h-85q-10 0 -10 10v99q0 10 10 10h85q10 0 10 -10v-99q0 -10 -10 -10z" />
    <glyph glyph-name="perthousand" unicode="&#x2030;" horiz-adv-x="932" 
d="M234 -9h-54q-10 0 -7 10l252 678q4 10 13 10h55q10 0 7 -10l-253 -678q-4 -10 -13 -10zM161 328q-75 0 -94 61q-7 24 -7 118q0 95 7 118q19 61 94 61q74 0 93 -61q8 -23 8 -118q0 -94 -8 -118q-19 -61 -93 -61zM161 392q18 0 25 17q3 9 3 98t-3 98q-7 17 -25 17
q-20 0 -25 -17q-3 -9 -3 -98t3 -98q5 -17 25 -17zM771 -6q-74 0 -93 61q-8 23 -8 118q0 94 8 118q19 61 93 61t93 -61q8 -24 8 -118q0 -95 -8 -118q-19 -61 -93 -61zM512 -6q-74 0 -93 61q-8 23 -8 118q0 94 8 118q19 61 93 61q75 0 93 -61q8 -24 8 -118q0 -95 -8 -118
q-18 -61 -93 -61zM771 58q20 0 25 17q3 9 3 98t-3 98q-5 17 -25 17t-25 -17q-3 -9 -3 -98t3 -98q5 -17 25 -17zM512 58q20 0 25 17q3 9 3 98t-3 98q-5 17 -25 17t-25 -17q-3 -9 -3 -98t3 -98q5 -17 25 -17z" />
    <glyph glyph-name="guilsinglleft" unicode="&#x2039;" horiz-adv-x="284" 
d="M214 79l-177 178q-7 7 0 14l177 178q3 3 6.5 1.5t3.5 -5.5v-80q0 -8 -10 -18l-78 -79q-4 -4 0 -8l78 -79q10 -10 10 -18v-80q0 -4 -3.5 -5.5t-6.5 1.5z" />
    <glyph glyph-name="guilsinglright" unicode="&#x203a;" horiz-adv-x="284" 
d="M70 79q-3 -3 -6.5 -1.5t-3.5 5.5v80q0 8 10 18l79 79q4 4 0 8l-79 79q-10 10 -10 18v80q0 4 3.5 5.5t6.5 -1.5l177 -178q7 -7 0 -14z" />
    <glyph glyph-name="fraction" unicode="&#x2044;" horiz-adv-x="143" 
d="M-31 -9h-54q-10 0 -7 10l252 678q4 10 13 10h54q10 0 7 -10l-252 -678q-4 -10 -13 -10z" />
    <glyph glyph-name="zero.superior" unicode="&#x2070;" horiz-adv-x="281" 
d="M140 422q-80 0 -102 65q-8 23 -8 146t8 146q22 65 102 65t102 -65q8 -23 8 -146t-8 -146q-22 -65 -102 -65zM140 493q20 0 26 18q4 8 4 122t-4 122q-6 18 -26 18t-26 -18q-3 -9 -3 -122t3 -122q6 -18 26 -18z" />
    <glyph glyph-name="four.superior" unicode="&#x2074;" horiz-adv-x="281" 
d="M224 430h-55q-10 0 -10 10v36q0 6 -6 6h-123q-10 0 -10 10v50q0 7 3 16l88 268q3 10 12 10h62q10 0 7 -10l-89 -271v-3h50q6 0 6 6v95q0 10 10 10h55q10 0 10 -10v-95q0 -6 5 -6h15q10 0 10 -10v-50q0 -10 -10 -10h-14q-6 0 -6 -6v-36q0 -10 -10 -10z" />
    <glyph glyph-name="five.superior" unicode="&#x2075;" horiz-adv-x="281" 
d="M140 422q-81 0 -102 65q-5 15 -5 31q0 11 10 12l54 6q12 2 12 -10q0 -10 3 -17q5 -16 26 -16q20 0 27 16q3 7 3 51q0 42 -3 50q-8 16 -27 16q-16 0 -25 -14q-7 -10 -16 -10h-51q-10 0 -10 10v214q0 10 10 10h190q10 0 10 -10v-51q0 -10 -10 -10h-120q-6 0 -6 -6v-76h1
q16 14 46 14q68 0 86 -58q5 -16 5 -79q0 -54 -6 -73q-21 -65 -102 -65z" />
    <glyph glyph-name="six.superior" unicode="&#x2076;" horiz-adv-x="281" 
d="M140 422q-39 0 -66.5 17.5t-37.5 48.5q-6 20 -6 64t4.5 66t17.5 53l69 155q4 10 14 10h62q11 0 8 -10l-65 -147l1 -1q6 2 17 2q65 0 85 -59q7 -21 7 -69q0 -44 -6 -64q-10 -31 -37.5 -48.5t-66.5 -17.5zM140 493q20 0 26 17q4 7 4 42q0 33 -4 40q-6 17 -26 17t-26 -17
q-3 -8 -3 -40q0 -34 3 -42q6 -17 26 -17z" />
    <glyph glyph-name="seven.superior" unicode="&#x2077;" horiz-adv-x="281" 
d="M131 430h-62q-11 0 -8 10l106 322v3h-50q-6 0 -6 -6v-32q0 -10 -10 -10h-57q-10 0 -10 10v99q0 10 10 10h196q10 0 10 -10v-50q0 -9 -3 -18l-103 -318q-3 -10 -13 -10z" />
    <glyph glyph-name="eight.superior" unicode="&#x2078;" horiz-adv-x="281" 
d="M140 422q-39 0 -66.5 17.5t-37.5 48.5q-6 20 -6 62q0 32 5 49q8 26 31 43v1q-23 17 -31 43q-5 17 -5 39q0 33 6 53q10 31 37.5 48.5t66.5 17.5t66.5 -17.5t37.5 -48.5q6 -19 6 -53q0 -22 -5 -39q-8 -27 -30 -43v-1q22 -16 30 -43q5 -17 5 -49q0 -42 -6 -62
q-10 -31 -37.5 -48.5t-66.5 -17.5zM140 677q20 0 26 17q4 7 4 31t-4 31q-6 17 -26 17t-26 -17q-3 -8 -3 -31t3 -31q6 -17 26 -17zM140 493q20 0 26 17q4 7 4 40q0 32 -4 39q-6 17 -26 17t-26 -17q-3 -7 -3 -39t3 -40q6 -17 26 -17z" />
    <glyph glyph-name="nine.superior" unicode="&#x2079;" horiz-adv-x="281" 
d="M146 430h-63q-11 0 -8 10l66 147l-1 1q-6 -2 -17 -2q-66 0 -86 59q-7 21 -7 69q0 44 6 64q10 31 37.5 48.5t66.5 17.5t66.5 -17.5t37.5 -48.5q6 -19 6 -64q0 -44 -4.5 -66t-17.5 -53l-69 -155q-4 -10 -13 -10zM140 657q20 0 26 17q4 7 4 40q0 35 -4 42q-6 17 -26 17
t-26 -17q-3 -8 -3 -42q0 -32 3 -40q6 -17 26 -17z" />
    <glyph glyph-name="zero.inferior" unicode="&#x2080;" horiz-adv-x="281" 
d="M140 -164q-80 0 -102 65q-8 23 -8 146t8 146q22 65 102 65t102 -65q8 -23 8 -146t-8 -146q-22 -65 -102 -65zM140 -93q20 0 26 18q4 8 4 122t-4 122q-6 18 -26 18t-26 -18q-3 -9 -3 -122t3 -122q6 -18 26 -18z" />
    <glyph glyph-name="one.inferior" unicode="&#x2081;" horiz-adv-x="281" 
d="M191 -156h-61q-10 0 -10 10v307h-1l-57 -32q-12 -7 -12 5v61q0 8 8 13l60 37q8 5 15 5h58q10 0 10 -10v-386q0 -10 -10 -10z" />
    <glyph glyph-name="two.inferior" unicode="&#x2082;" horiz-adv-x="281" 
d="M238 -156h-193q-10 0 -10 10v48q0 8 5 16l111 169q17 24 17 54q0 23 -3 30q-7 16 -27 16q-21 0 -26 -16q-3 -7 -3 -40q0 -12 -12 -10l-54 6q-10 1 -10 12q0 35 6 53q21 66 101 66q81 0 102 -66q6 -18 6 -50q0 -51 -26 -90l-90 -136v-1h106q10 0 10 -10v-51q0 -10 -10 -10
z" />
    <glyph glyph-name="three.inferior" unicode="&#x2083;" horiz-adv-x="281" 
d="M139 -164q-80 0 -101 65q-6 19 -6 40q0 11 10 12l54 6q12 2 12 -10q0 -19 3 -26q5 -16 26 -16q20 0 27 16q3 7 3 37q0 31 -3 40q-5 17 -27 17h-8q-10 0 -10 10v52q0 10 10 10h7q22 0 29 17q2 6 2 34q0 24 -3 31q-7 16 -27 16q-21 0 -26 -16q-3 -7 -3 -26q0 -12 -12 -10
l-54 6q-10 1 -10 12q0 21 6 40q21 65 101 65q81 0 102 -65q6 -20 6 -53q0 -34 -4 -46q-9 -27 -36 -38v-1q27 -16 35 -40q5 -14 5 -55q0 -40 -6 -59q-21 -65 -102 -65z" />
    <glyph glyph-name="four.inferior" unicode="&#x2084;" horiz-adv-x="281" 
d="M224 -156h-55q-10 0 -10 10v36q0 6 -6 6h-123q-10 0 -10 10v50q0 7 3 16l88 268q3 10 12 10h62q10 0 7 -10l-89 -271v-3h50q6 0 6 6v95q0 10 10 10h55q10 0 10 -10v-95q0 -6 5 -6h15q10 0 10 -10v-50q0 -10 -10 -10h-14q-6 0 -6 -6v-36q0 -10 -10 -10z" />
    <glyph glyph-name="five.inferior" unicode="&#x2085;" horiz-adv-x="281" 
d="M140 -164q-81 0 -102 65q-5 15 -5 31q0 11 10 12l54 6q12 2 12 -10q0 -10 3 -17q5 -16 26 -16q20 0 27 16q3 7 3 51q0 42 -3 50q-8 16 -27 16q-16 0 -25 -14q-7 -10 -16 -10h-51q-10 0 -10 10v214q0 10 10 10h190q10 0 10 -10v-51q0 -10 -10 -10h-120q-6 0 -6 -6v-76h1
q16 14 46 14q68 0 86 -58q5 -16 5 -79q0 -54 -6 -73q-21 -65 -102 -65z" />
    <glyph glyph-name="six.inferior" unicode="&#x2086;" horiz-adv-x="281" 
d="M140 -164q-39 0 -66.5 17.5t-37.5 48.5q-6 20 -6 64t4.5 66t17.5 53l69 155q4 10 14 10h62q11 0 8 -10l-65 -147l1 -1q6 2 17 2q65 0 85 -59q7 -21 7 -69q0 -44 -6 -64q-10 -31 -37.5 -48.5t-66.5 -17.5zM140 -93q20 0 26 17q4 7 4 42q0 33 -4 40q-6 17 -26 17t-26 -17
q-3 -7 -3 -40q0 -34 3 -42q6 -17 26 -17z" />
    <glyph glyph-name="seven.inferior" unicode="&#x2087;" horiz-adv-x="281" 
d="M131 -156h-62q-11 0 -8 10l106 322v3h-50q-6 0 -6 -6v-32q0 -10 -10 -10h-57q-10 0 -10 10v99q0 10 10 10h196q10 0 10 -10v-50q0 -9 -3 -18l-103 -318q-3 -10 -13 -10z" />
    <glyph glyph-name="eight.inferior" unicode="&#x2088;" horiz-adv-x="281" 
d="M140 -164q-39 0 -66.5 17.5t-37.5 48.5q-6 20 -6 62q0 32 5 49q8 26 31 43v1q-23 17 -31 43q-5 17 -5 39q0 33 6 53q10 31 37.5 48.5t66.5 17.5t66.5 -17.5t37.5 -48.5q6 -19 6 -53q0 -22 -5 -39q-8 -27 -30 -43v-1q22 -16 30 -43q5 -17 5 -49q0 -42 -6 -62
q-10 -31 -37.5 -48.5t-66.5 -17.5zM140 91q20 0 26 17q4 7 4 31t-4 31q-6 17 -26 17t-26 -17q-3 -8 -3 -31t3 -31q6 -17 26 -17zM140 -93q20 0 26 17q4 7 4 40q0 32 -4 39q-6 17 -26 17t-26 -17q-3 -8 -3 -39q0 -32 3 -40q6 -17 26 -17z" />
    <glyph glyph-name="nine.inferior" unicode="&#x2089;" horiz-adv-x="281" 
d="M146 -156h-63q-11 0 -8 10l66 147l-1 1q-6 -2 -17 -2q-66 0 -86 59q-7 21 -7 69q0 44 6 64q10 31 37.5 48.5t66.5 17.5t66.5 -17.5t37.5 -48.5q6 -19 6 -64q0 -44 -4.5 -66t-17.5 -53l-69 -155q-4 -10 -13 -10zM140 71q20 0 26 17q4 7 4 40q0 35 -4 42q-6 17 -26 17
t-26 -17q-3 -8 -3 -42q0 -32 3 -40q6 -17 26 -17z" />
    <glyph glyph-name="Euro" unicode="&#x20ac;" 
d="M222 -9q-108 0 -140 96q-11 36 -11 148q0 6 -6 6h-36q-10 0 -10 10v54q0 10 10 10h36q6 0 6 6v43q0 6 -6 6h-36q-10 0 -10 10v54q0 10 10 10h36q6 0 6 6q0 107 11 143q32 96 140 96q67 0 107 -38.5t45 -101.5q2 -11 -7 -12l-77 -15q-10 -2 -12 8q-8 66 -54 66
q-35 0 -46 -34q-5 -15 -5 -112q0 -6 6 -6h130q10 0 10 -10l-10 -54q-1 -10 -10 -10h-120q-6 0 -6 -6v-43q0 -6 6 -6h115q10 0 10 -10l-10 -54q-1 -10 -10 -10h-105q-6 0 -6 -6q0 -102 5 -117q11 -34 46 -34q46 0 54 66q2 10 12 8l77 -15q9 -1 7 -12q-5 -63 -45 -101.5
t-107 -38.5z" />
    <glyph glyph-name="afii61289" unicode="&#x2113;" horiz-adv-x="413" 
d="M98 175q-7 -6 -14 1l-36 41q-7 7 1 14l78 75v204q0 86 35.5 133.5t99.5 47.5q54 0 87 -34t33 -93q0 -64 -37 -127t-116 -140v-172q0 -50 33 -50q15 0 34 14q9 7 14 -2l28 -41q6 -8 -3 -15q-47 -42 -101 -42q-107 0 -107 143v70zM229 538v-127q69 83 69 154q0 50 -32 50
q-37 0 -37 -77z" />
    <glyph glyph-name="trademark" unicode="&#x2122;" horiz-adv-x="660" 
d="M590 286h-52q-10 0 -10 10v202h-1l-39 -141q-3 -10 -12 -10h-29q-9 0 -12 10l-40 141h-1v-202q0 -10 -10 -10h-52q-10 0 -10 10v374q0 10 10 10h58q10 0 13 -10l59 -217h2l56 217q3 10 13 10h57q10 0 10 -10v-374q0 -10 -10 -10zM197 286h-57q-10 0 -10 10v306q0 6 -6 6
h-54q-10 0 -10 10v52q0 10 10 10h197q10 0 10 -10v-52q0 -10 -10 -10h-54q-6 0 -6 -6v-306q0 -10 -10 -10z" />
    <glyph glyph-name="estimated" unicode="&#x212e;" horiz-adv-x="579" 
d="M288 -9q-104 0 -168.5 72t-64.5 179t64.5 178t168.5 71q105 0 170 -69t66 -180h-366v-165q54 -52 130 -52q112 0 174 109l33 -21q-43 -65 -90 -93.5t-117 -28.5zM421 275v131q-60 55 -133 55q-77 0 -130 -55v-131h263z" />
    <glyph glyph-name="onethird" unicode="&#x2153;" horiz-adv-x="758" 
d="M220 274h-61q-10 0 -10 10v307h-1l-57 -32q-12 -7 -12 5v61q0 8 8 13l60 37q8 5 15 5h58q10 0 10 -10v-386q0 -10 -10 -10zM256 -9h-54q-10 0 -7 10l252 678q4 10 13 10h54q10 0 7 -10l-252 -678q-4 -10 -13 -10zM569 -8q-80 0 -101 65q-6 19 -6 40q0 11 10 12l54 6
q12 2 12 -10q0 -19 3 -26q5 -16 26 -16q20 0 27 16q3 7 3 37q0 31 -3 40q-5 17 -27 17h-8q-10 0 -10 10v52q0 10 10 10h7q22 0 29 17q2 6 2 34q0 24 -3 31q-7 16 -27 16q-21 0 -26 -16q-3 -8 -3 -26q0 -12 -12 -10l-54 6q-10 1 -10 12q0 21 6 40q21 65 101 65q81 0 102 -65
q6 -19 6 -53t-4 -46q-9 -27 -36 -38v-1q27 -16 35 -40q5 -14 5 -55q0 -40 -6 -59q-21 -65 -102 -65z" />
    <glyph glyph-name="twothirds" unicode="&#x2154;" horiz-adv-x="816" 
d="M284 274h-193q-10 0 -10 10v48q0 8 5 16l111 169q17 24 17 54q0 23 -3 30q-7 16 -27 16q-21 0 -26 -16q-3 -7 -3 -40q0 -12 -12 -10l-54 6q-10 1 -10 12q0 35 6 53q21 66 101 66q81 0 102 -66q6 -18 6 -50q0 -51 -26 -90l-90 -136v-1h106q10 0 10 -10v-51q0 -10 -10 -10z
M313 -9h-54q-10 0 -7 10l252 678q4 10 13 10h54q10 0 7 -10l-252 -678q-4 -10 -13 -10zM627 -8q-80 0 -101 65q-6 19 -6 40q0 11 10 12l54 6q12 2 12 -10q0 -19 3 -26q5 -16 26 -16q20 0 27 16q3 7 3 37q0 31 -3 40q-5 17 -27 17h-8q-10 0 -10 10v52q0 10 10 10h7
q22 0 29 17q2 6 2 34q0 24 -3 31q-7 16 -27 16q-21 0 -26 -16q-3 -8 -3 -26q0 -12 -12 -10l-54 6q-10 1 -10 12q0 21 6 40q21 65 101 65q81 0 102 -65q6 -19 6 -53t-4 -46q-9 -27 -36 -38v-1q27 -16 35 -40q5 -14 5 -55q0 -40 -6 -59q-21 -65 -102 -65z" />
    <glyph glyph-name="oneeighth" unicode="&#x215b;" horiz-adv-x="762" 
d="M220 274h-61q-10 0 -10 10v307h-1l-57 -32q-12 -7 -12 5v61q0 8 8 13l60 37q8 5 15 5h58q10 0 10 -10v-386q0 -10 -10 -10zM572 -8q-39 0 -66.5 17.5t-37.5 48.5q-6 20 -6 62q0 32 5 49q8 26 31 43v1q-23 17 -31 43q-5 17 -5 39q0 33 6 53q10 31 37.5 48.5t66.5 17.5
t66.5 -17.5t37.5 -48.5q6 -20 6 -53q0 -22 -5 -39q-8 -27 -30 -43v-1q22 -16 30 -43q5 -17 5 -49q0 -42 -6 -62q-10 -31 -37.5 -48.5t-66.5 -17.5zM572 247q20 0 26 17q4 7 4 31t-4 31q-6 17 -26 17t-26 -17q-3 -7 -3 -31q0 -23 3 -31q6 -17 26 -17zM572 63q20 0 26 17
q4 7 4 40q0 32 -4 39q-6 17 -26 17t-26 -17q-3 -7 -3 -39t3 -40q6 -17 26 -17zM256 -9h-54q-10 0 -7 10l252 678q4 10 13 10h54q10 0 7 -10l-252 -678q-4 -10 -13 -10z" />
    <glyph glyph-name="threeeighths" unicode="&#x215c;" horiz-adv-x="802" 
d="M611 -8q-39 0 -66.5 17.5t-37.5 48.5q-6 19 -6 62q0 32 5 49q8 26 31 43v1q-23 17 -31 43q-5 17 -5 39q0 33 6 53q10 31 37.5 48.5t66.5 17.5t66.5 -17.5t37.5 -48.5q6 -20 6 -53q0 -22 -5 -39q-8 -27 -30 -43v-1q22 -16 30 -43q5 -17 5 -49q0 -42 -6 -62
q-10 -31 -37.5 -48.5t-66.5 -17.5zM611 247q20 0 26 17q4 7 4 31t-4 31q-6 17 -26 17t-26 -17q-3 -7 -3 -31q0 -23 3 -31q6 -17 26 -17zM611 63q20 0 26 17q4 7 4 40q0 32 -4 39q-6 17 -26 17t-26 -17q-3 -8 -3 -39q0 -32 3 -40q6 -17 26 -17zM296 -9h-54q-10 0 -7 10
l252 678q4 10 13 10h54q10 0 7 -10l-252 -678q-4 -10 -13 -10zM186 266q-80 0 -101 65q-6 19 -6 40q0 11 10 12l54 6q12 2 12 -10q0 -19 3 -26q5 -16 26 -16q20 0 27 16q3 7 3 37q0 31 -3 40q-5 17 -27 17h-8q-10 0 -10 10v52q0 10 10 10h7q22 0 29 17q2 6 2 34q0 24 -3 31
q-7 16 -27 16q-21 0 -26 -16q-3 -7 -3 -26q0 -12 -12 -10l-54 6q-10 1 -10 12q0 21 6 40q21 65 101 65q81 0 102 -65q6 -19 6 -53t-4 -46q-9 -27 -36 -38v-1q27 -16 35 -40q5 -14 5 -55q0 -40 -6 -59q-21 -65 -102 -65z" />
    <glyph glyph-name="fiveeighths" unicode="&#x215d;" horiz-adv-x="802" 
d="M611 -8q-39 0 -66.5 17.5t-37.5 48.5q-6 19 -6 62q0 32 5 49q8 26 31 43v1q-23 17 -31 43q-5 17 -5 39q0 33 6 53q10 31 37.5 48.5t66.5 17.5t66.5 -17.5t37.5 -48.5q6 -20 6 -53q0 -22 -5 -39q-8 -27 -30 -43v-1q22 -16 30 -43q5 -17 5 -49q0 -42 -6 -62
q-10 -31 -37.5 -48.5t-66.5 -17.5zM611 247q20 0 26 17q4 7 4 31t-4 31q-6 17 -26 17t-26 -17q-3 -7 -3 -31q0 -23 3 -31q6 -17 26 -17zM611 63q20 0 26 17q4 7 4 40q0 32 -4 39q-6 17 -26 17t-26 -17q-3 -8 -3 -39q0 -32 3 -40q6 -17 26 -17zM296 -9h-54q-10 0 -7 10
l252 678q4 10 13 10h54q10 0 7 -10l-252 -678q-4 -10 -13 -10zM186 266q-81 0 -102 65q-5 15 -5 31q0 11 10 12l54 6q12 2 12 -10q0 -10 3 -17q5 -16 26 -16q20 0 27 16q3 7 3 51q0 42 -3 50q-8 16 -27 16q-16 0 -25 -14q-7 -10 -16 -10h-51q-10 0 -10 10v214q0 10 10 10
h190q10 0 10 -10v-51q0 -10 -10 -10h-120q-6 0 -6 -6v-76h1q16 14 46 14q68 0 86 -58q5 -16 5 -79q0 -54 -6 -73q-21 -65 -102 -65z" />
    <glyph glyph-name="seveneighths" unicode="&#x215e;" horiz-adv-x="757" 
d="M566 -8q-39 0 -66.5 17.5t-37.5 48.5q-6 20 -6 62q0 32 5 49q8 26 31 43v1q-23 17 -31 43q-5 17 -5 39q0 33 6 53q10 31 37.5 48.5t66.5 17.5t66.5 -17.5t37.5 -48.5q6 -20 6 -53q0 -22 -5 -39q-8 -27 -30 -43v-1q22 -16 30 -43q5 -17 5 -49q0 -42 -6 -62
q-10 -31 -37.5 -48.5t-66.5 -17.5zM566 247q20 0 26 17q4 7 4 31t-4 31q-6 17 -26 17t-26 -17q-3 -7 -3 -31q0 -23 3 -31q6 -17 26 -17zM566 63q20 0 26 17q4 7 4 40q0 32 -4 39q-6 17 -26 17t-26 -17q-3 -7 -3 -39t3 -40q6 -17 26 -17zM176 274h-62q-11 0 -8 10l106 322v3
h-50q-6 0 -6 -6v-32q0 -10 -10 -10h-57q-10 0 -10 10v99q0 10 10 10h196q10 0 10 -10v-50q0 -9 -3 -18l-103 -318q-3 -10 -13 -10zM250 -9h-54q-10 0 -7 10l252 678q4 10 13 10h54q10 0 7 -10l-252 -678q-4 -10 -13 -10z" />
    <glyph glyph-name="partialdiff" unicode="&#x2202;" horiz-adv-x="412" 
d="M181 -11q-67 0 -103.5 55t-36.5 147q0 99 43.5 164t116.5 65q48 0 76 -26h2q-3 99 -28 154.5t-69 55.5q-31 0 -58 -20q-9 -7 -14 2l-35 51q-5 8 3 14q54 40 112 40q88 0 134.5 -85.5t46.5 -237.5q0 -187 -50 -283t-140 -96zM188 77q79 0 90 225q-31 33 -64 33
q-37 0 -59 -39t-22 -101q0 -118 55 -118z" />
    <glyph glyph-name="product" unicode="&#x220f;" horiz-adv-x="526" 
d="M463 -180h-86q-10 0 -10 10v806q0 6 -6 6h-196q-6 0 -6 -6v-806q0 -10 -10 -10h-86q-10 0 -10 10v900q0 10 10 10h400q10 0 10 -10v-900q0 -10 -10 -10z" />
    <glyph glyph-name="summation" unicode="&#x2211;" horiz-adv-x="486" 
d="M437 -180h-387q-10 0 -10 10v74q0 5 2 9l175 405l-170 323q-3 6 -3 11v78q0 10 10 10h373q10 0 10 -10v-78q0 -10 -10 -10h-261l164 -309q3 -7 0 -14l-178 -401h285q10 0 10 -10v-78q0 -10 -10 -10z" />
    <glyph glyph-name="minus" unicode="&#x2212;" 
d="M352 231h-306q-10 0 -10 10v70q0 10 10 10h306q10 0 10 -10v-70q0 -10 -10 -10z" />
    <glyph glyph-name="uni2215" unicode="&#x2215;" horiz-adv-x="143" 
d="M-31 -9h-54q-10 0 -7 10l252 678q4 10 13 10h54q10 0 7 -10l-252 -678q-4 -10 -13 -10z" />
    <glyph glyph-name="uni2219" unicode="&#x2219;" horiz-adv-x="197" 
d="M141 205h-85q-10 0 -10 10v99q0 10 10 10h85q10 0 10 -10v-99q0 -10 -10 -10z" />
    <glyph glyph-name="radical" unicode="&#x221a;" horiz-adv-x="568" 
d="M325 -180h-66q-9 0 -12 10l-110 262q-3 6 -9 3l-58 -24q-10 -5 -13 4l-25 55q-5 10 4 13l131 58q10 5 14 -4l102 -245h3l183 778q3 10 12 10h67q11 0 8 -10l-219 -900q-3 -10 -12 -10z" />
    <glyph glyph-name="infinity" unicode="&#x221e;" horiz-adv-x="667" 
d="M498 92q-47 0 -84 22t-81 73q-45 -52 -81.5 -73.5t-83.5 -21.5q-66 0 -108 42t-42 112q0 71 41.5 113t109.5 42q43 0 80 -22t84 -75q49 54 84 75.5t80 21.5q67 0 109.5 -42t42.5 -113q0 -70 -41.5 -112t-109.5 -42zM494 166q36 0 56.5 22.5t20.5 59.5q0 36 -21 57.5
t-57 21.5q-24 0 -48.5 -17.5t-62.5 -63.5q40 -46 63.5 -63t48.5 -17zM172 166q24 0 49 18t63 63q-68 80 -110 80q-35 0 -56.5 -21.5t-21.5 -57.5q0 -38 20.5 -60t55.5 -22z" />
    <glyph glyph-name="integral" unicode="&#x222b;" horiz-adv-x="312" 
d="M59 -180q-18 0 -25 1q-10 2 -10 10v76q0 10 10 10h17q28 0 41 19t13 61v560q0 183 148 183q18 0 25 -1q10 -2 10 -10v-76q0 -10 -10 -10h-16q-29 0 -42 -19t-13 -61v-560q0 -183 -148 -183z" />
    <glyph glyph-name="approxequal" unicode="&#x2248;" horiz-adv-x="414" 
d="M269 306q-33 0 -71 25q-28 20 -45 20q-15 0 -25 -8t-24 -32q-5 -8 -14 -3l-47 25q-10 5 -4 15q24 44 48.5 64t57.5 20t71 -25q29 -21 45 -21t26 8.5t24 32.5q5 8 14 3l46 -25q10 -5 4 -15q-23 -44 -47.5 -64t-58.5 -20zM269 122q-33 0 -71 25q-28 20 -45 20q-15 0 -25 -8
t-24 -32q-5 -8 -14 -3l-47 25q-10 5 -4 15q24 44 48.5 64t57.5 20t71 -25q28 -20 45 -20q16 0 26 8t24 32q5 8 14 3l46 -25q10 -5 4 -15q-23 -44 -47.5 -64t-58.5 -20z" />
    <glyph glyph-name="notequal" unicode="&#x2260;" 
d="M352 328h-91l-48 -104h139q10 0 10 -10v-69q0 -10 -10 -10h-181l-34 -74q-4 -10 -13 -10h-55q-11 0 -8 10l34 74h-49q-10 0 -10 10v69q0 10 10 10h91l48 104h-139q-10 0 -10 10v69q0 10 10 10h181l35 74q4 10 13 10h55q12 0 7 -10l-35 -74h50q10 0 10 -10v-69
q0 -10 -10 -10z" />
    <glyph glyph-name="lessequal" unicode="&#x2264;" 
d="M352 127l-306 123q-10 3 -10 14v62q0 11 10 14l306 123q10 3 10 -7v-74q0 -9 -10 -13l-191 -73v-2l191 -73q10 -4 10 -13v-74q0 -10 -10 -7zM352 0h-306q-10 0 -10 10v69q0 10 10 10h306q10 0 10 -10v-69q0 -10 -10 -10z" />
    <glyph glyph-name="greaterequal" unicode="&#x2265;" 
d="M46 127q-10 -3 -10 7v74q0 9 10 13l192 73v2l-192 73q-10 4 -10 13v74q0 10 10 7l306 -123q10 -3 10 -14v-62q0 -11 -10 -14zM352 0h-306q-10 0 -10 10v69q0 10 10 10h306q10 0 10 -10v-69q0 -10 -10 -10z" />
    <glyph glyph-name="lozenge" unicode="&#x25ca;" horiz-adv-x="445" 
d="M259 -52h-72q-10 0 -14 10l-151 364q-3 7 0 14l151 364q4 10 14 10h72q10 0 14 -10l150 -364q3 -7 0 -14l-150 -364q-4 -10 -14 -10zM225 51h2l107 278l-111 278h-2l-109 -278z" />
    <glyph glyph-name="uniF8FF" unicode="&#xf8ff;" horiz-adv-x="388" 
d="M378 0h-368q-10 0 -10 10v660q0 10 10 10h368q10 0 10 -10v-660q0 -10 -10 -10zM324 55q6 0 6 6v558q0 6 -6 6h-259q-6 0 -6 -6v-558q0 -6 6 -6h259zM216 224h-48q-10 0 -10 10v46q0 21 13 44l36 67q17 31 17 64q0 19 -3 28q-7 20 -30 20q-22 0 -29 -20q-3 -9 -3 -41
q0 -10 -11 -8l-46 4q-9 2 -9 11q0 35 6 53q9 28 34 44.5t59 16.5t59.5 -16.5t34.5 -44.5q6 -18 6 -44q0 -43 -21 -79l-35 -67q-10 -20 -10 -36v-42q0 -10 -10 -10zM216 114h-48q-10 0 -10 10v58q0 10 10 10h48q10 0 10 -10v-58q0 -10 -10 -10z" />
    <glyph glyph-name="CR" horiz-adv-x="0" 
 />
    <glyph glyph-name="grave.cap" horiz-adv-x="415" 
d="M296 761h-55q-10 0 -20 10l-99 107q-3 4 -1.5 7t6.5 3h81q10 0 17 -10l76 -107q3 -4 1.5 -7t-6.5 -3z" />
    <glyph glyph-name="acute.cap" horiz-adv-x="415" 
d="M184 761h-55q-5 0 -7 3t1 7l77 107q7 10 16 10h81q5 0 6.5 -3t-1.5 -7l-98 -107q-10 -10 -20 -10z" />
    <glyph glyph-name="circumflex.cap" horiz-adv-x="415" 
d="M335 750h-60q-10 0 -19 10l-48 60h-2l-47 -60q-9 -10 -19 -10h-60q-4 0 -5.5 3t1.5 7l88 125q7 10 17 10h52q11 0 18 -10l88 -125q3 -4 2 -7t-6 -3z" />
    <glyph glyph-name="caron.cap" horiz-adv-x="415" 
d="M233 747h-52q-10 0 -17 10l-88 125q-3 4 -1.5 7t5.5 3h60q10 0 19 -10l47 -59h2l48 59q9 10 19 10h60q5 0 6 -3t-2 -7l-88 -125q-7 -10 -18 -10z" />
    <glyph glyph-name="caron.alt" horiz-adv-x="415" 
d="M172 511q-9 0 -9 9v150q0 10 10 10h69q10 0 10 -10v-57q0 -12 -7 -22l-60 -73q-6 -7 -13 -7z" />
    <glyph glyph-name="tilde.cap" horiz-adv-x="415" 
d="M251 763q-24 0 -52 18q-23 16 -38 16q-22 0 -48 -26q-4 -4 -8 -2.5t-4 6.5v61q0 9 10 19q24 24 51 24q25 0 51 -18q25 -16 39 -16q22 0 48 26q4 4 8 2.5t4 -6.5v-61q0 -9 -10 -19q-24 -24 -51 -24z" />
    <glyph glyph-name="dieresis.cap" horiz-adv-x="415" 
d="M316 769h-65q-10 0 -10 10v86q0 10 10 10h65q10 0 10 -10v-86q0 -10 -10 -10zM164 769h-65q-10 0 -10 10v86q0 10 10 10h65q10 0 10 -10v-86q0 -10 -10 -10z" />
    <glyph glyph-name="macron.cap" horiz-adv-x="415" 
d="M310 780h-205q-10 0 -10 10v60q0 10 10 10h205q10 0 10 -10v-60q0 -10 -10 -10z" />
    <glyph glyph-name="breve.cap" horiz-adv-x="415" 
d="M207 742q-56 0 -88 34t-36 85q0 10 10 10h45q7 0 10 -10q17 -48 59 -48q43 0 60 48q3 10 10 10h45q10 0 10 -10q-4 -51 -36 -85t-89 -34z" />
    <glyph glyph-name="ring.cap" horiz-adv-x="415" 
d="M207 721q-38 0 -64 26t-26 65q0 38 26 64t64 26q39 0 65 -26t26 -64q0 -39 -26 -65t-65 -26zM207 764q20 0 33 14t13 34t-13 33.5t-33 13.5q-19 0 -32 -13.5t-13 -33.5t13 -34t32 -14z" />
    <glyph glyph-name="hungarumlaut.cap" horiz-adv-x="415" 
d="M280 761h-50q-12 0 -5 10l69 107q7 10 17 10h68q5 0 6 -3t-2 -7l-84 -107q-9 -10 -19 -10zM147 761h-50q-12 0 -5 10l70 107q7 10 17 10h67q4 0 5.5 -3t-1.5 -7l-84 -107q-9 -10 -19 -10z" />
    <glyph glyph-name="dotaccent.cap" horiz-adv-x="415" 
d="M248 769h-82q-10 0 -10 10v86q0 10 10 10h82q10 0 10 -10v-86q0 -10 -10 -10z" />
    <glyph glyph-name="commaaccent" horiz-adv-x="415" 
d="M171 -221q-8 0 -8 10v147q0 10 10 10h70q10 0 10 -10v-55q0 -13 -8 -22l-61 -73q-6 -7 -13 -7z" />
    <glyph glyph-name="commaaccent.alt" horiz-adv-x="415" 
d="M243 572h-70q-10 0 -10 10v55q0 14 7 22l61 73q6 7 13 7q9 0 9 -10v-147q0 -10 -10 -10z" />
    <glyph glyph-name="uni0394" horiz-adv-x="421" 
d="M401 0h-381q-10 0 -8 10l147 660q3 10 11 10h84q9 0 11 -10l144 -660q2 -10 -8 -10zM282 98q6 0 5 6l-74 386h-3l-76 -386q-2 -6 5 -6h143z" />
    <glyph glyph-name="uni03A9" horiz-adv-x="429" 
d="M388 0h-135q-10 0 -10 10v73q0 9 9 15q20 16 24.5 53.5t4.5 188.5q0 190 -7 212q-5 18 -21 29t-38 11q-48 0 -60 -40q-7 -22 -7 -212q0 -151 4.5 -188.5t24.5 -53.5q9 -6 9 -15v-73q0 -10 -10 -10h-135q-10 0 -10 10v78q0 10 10 10h37v1q-16 16 -23.5 34t-11.5 65.5
t-4 141.5q0 135 2.5 176t10.5 65q17 51 59 79.5t104 28.5q61 0 103 -28.5t59 -79.5q8 -24 10.5 -65t2.5 -176q0 -94 -4 -141.5t-11.5 -65.5t-23.5 -34v-1h37q10 0 10 -10v-78q0 -10 -10 -10z" />
    <glyph glyph-name="uni03BC" horiz-adv-x="407" 
d="M346 0h-82q-10 0 -10 10v38h-1q-18 -56 -76 -56q-18 0 -24 6v-168q0 -10 -10 -10h-82q-10 0 -10 10v642q0 10 10 10h82q10 0 10 -10v-317q0 -70 51 -70q50 0 50 70v317q0 10 10 10h82q10 0 10 -10v-462q0 -10 -10 -10z" />
    <glyph glyph-name="exclam.sc" horiz-adv-x="232" 
d="M140 170h-48q-10 0 -10 10l-22 332q0 10 10 10h92q10 0 10 -10l-22 -332q0 -10 -10 -10zM158 0h-84q-10 0 -10 10v99q0 10 10 10h84q10 0 10 -10v-99q0 -10 -10 -10z" />
    <glyph glyph-name="dollar.sc" horiz-adv-x="378" 
d="M199 -53h-16q-10 0 -10 10v35q-66 4 -99 38.5t-38 99.5q0 11 8 12l70 13q9 2 11 -8q2 -34 13.5 -50t34.5 -19v146l-20 6q-59 17 -85.5 52.5t-26.5 98.5q0 68 34.5 106.5t97.5 42.5v27q0 10 10 10h16q10 0 10 -10v-27q113 -10 128 -134q0 -11 -8 -12l-67 -9q-9 -2 -11 8
q-7 53 -42 60v-134l14 -4q64 -19 91 -55.5t27 -103.5q0 -146 -132 -154v-35q0 -10 -10 -10zM133 383q0 -24 8.5 -38.5t31.5 -24.5v124q-40 -7 -40 -61zM248 145q0 46 -39 66v-132q39 9 39 66z" />
    <glyph glyph-name="percent.sc" horiz-adv-x="664" 
d="M236 -9h-53q-10 0 -7 10l239 519q4 10 13 10h53q10 0 7 -10l-239 -519q-4 -10 -13 -10zM166 256q-33 0 -57 15t-32 40q-7 20 -7 81q0 60 7 80q8 26 32 41t57 15q34 0 58 -15t32 -41q7 -24 7 -80t-7 -81q-8 -25 -32 -40t-58 -15zM166 318q17 0 22 15q3 9 3 59q0 48 -3 59
q-5 14 -22 14q-16 0 -21 -14q-3 -11 -3 -59q0 -50 3 -59q5 -15 21 -15zM497 -7q-33 0 -57 15t-32 41q-7 20 -7 80t7 80q8 26 32 41t57 15q34 0 57.5 -15t31.5 -41q8 -22 8 -80t-8 -80q-8 -26 -31.5 -41t-57.5 -15zM497 56q17 0 22 14q3 9 3 59t-3 59q-5 14 -22 14
q-16 0 -21 -14q-3 -9 -3 -59t3 -59q5 -14 21 -14z" />
    <glyph glyph-name="ampersand.sc" horiz-adv-x="491" 
d="M425 -6h-30q-44 0 -63 25l-19 25q-52 -53 -125 -53q-64 0 -99.5 33t-35.5 88q0 38 18.5 74.5t70.5 89.5l-9 13q-32 43 -44 68t-12 52q0 53 37.5 87.5t97.5 34.5q59 0 96.5 -35t37.5 -87q0 -29 -17.5 -58.5t-69.5 -81.5l59 -75l39 61q5 8 14 4l54 -35q9 -5 4 -14l-56 -86
l19 -23q13 -17 30 -17h3q10 0 10 -10v-70q0 -10 -10 -10zM171 412q0 -26 34 -74q48 48 48 74q0 16 -11 28.5t-29 12.5t-30 -12.5t-12 -28.5zM198 79q30 0 63 36l-67 90q-45 -47 -45 -81q0 -20 13 -32.5t36 -12.5z" />
    <glyph glyph-name="zero.sc" horiz-adv-x="378" 
d="M189 -9q-52 0 -87.5 23t-48.5 66q-10 30 -10 181t10 180q28 90 136 90t136 -90q10 -29 10 -180t-10 -181q-13 -43 -48.5 -66t-87.5 -23zM189 84q31 0 40 28q4 13 4 149q0 135 -4 148q-9 28 -40 28t-40 -28q-4 -13 -4 -148q0 -136 4 -149q9 -28 40 -28z" />
    <glyph glyph-name="one.sc" horiz-adv-x="378" 
d="M247 0h-82q-10 0 -10 10v398h-1l-79 -44q-11 -6 -11 7v83q0 8 7 14l81 49q8 5 16 5h79q10 0 10 -10v-502q0 -10 -10 -10z" />
    <glyph glyph-name="two.sc" horiz-adv-x="378" 
d="M323 0h-270q-9 0 -9 8v72q0 7 3 11l159 207q25 34 25 82q0 20 -3 31q-9 26 -41 26t-41 -26q-3 -11 -3 -36q0 -12 -12 -10l-77 8q-10 1 -10 12q0 38 6 57q13 42 49.5 65.5t87.5 23.5q52 0 88 -23t49 -66q9 -27 9 -63q0 -77 -46 -135l-119 -150v-1h155q10 0 10 -10v-73
q0 -10 -10 -10z" />
    <glyph glyph-name="three.sc" horiz-adv-x="378" 
d="M187 -9q-51 0 -87.5 23.5t-49.5 65.5q-6 19 -6 47q0 11 10 12l77 8q12 2 12 -10q0 -17 3 -26q10 -27 41 -27t41 27q3 9 3 45q0 28 -3 39q-9 25 -44 25h-13q-10 0 -10 10v73q0 10 10 10h13q36 0 44 24q3 9 3 35q0 28 -3 39q-9 26 -41 26t-41 -26q-3 -11 -3 -26
q0 -12 -12 -10l-77 7q-10 1 -10 12q0 29 6 48q13 42 49.5 65.5t87.5 23.5q52 0 88 -23t49 -66q9 -27 9 -70q0 -30 -6 -48q-12 -34 -46 -53v-2q35 -20 46 -53q6 -18 6 -60q0 -49 -9 -76q-13 -43 -49 -66t-88 -23z" />
    <glyph glyph-name="four.sc" horiz-adv-x="378" 
d="M302 0h-80q-10 0 -10 10v49q0 6 -6 6h-171q-10 0 -10 10v73q0 5 2 11l130 355q3 8 12 8h84q11 0 8 -11l-129 -350v-2h74q6 0 6 6v125q0 10 10 10h80q10 0 10 -10v-125q0 -6 5 -6h28q10 0 10 -10v-74q0 -10 -10 -10h-27q-6 0 -6 -6v-49q0 -10 -10 -10z" />
    <glyph glyph-name="five.sc" horiz-adv-x="378" 
d="M187 -9q-52 0 -88 23t-49 66q-5 15 -5 33q0 11 10 12l76 8q11 1 13 -10l3 -13q9 -26 41 -26q30 0 39 27q4 12 4 56q0 43 -4 55q-9 27 -39 27q-28 0 -40 -18q-5 -8 -16 -8h-67q-10 0 -10 10v279q0 10 10 10h258q10 0 10 -10v-74q0 -10 -10 -10h-171q-6 0 -6 -6v-98h2
q23 18 68 18q84 0 109 -77q8 -23 8 -98q0 -61 -9 -88q-13 -43 -49 -65.5t-88 -22.5z" />
    <glyph glyph-name="six.sc" horiz-adv-x="378" 
d="M189 -9q-52 0 -88 23t-49 66q-9 27 -9 74q0 83 30 148l99 210q5 10 16 10h81q11 0 6 -11l-96 -198l2 -2q10 4 33 4q87 0 112 -79q9 -27 9 -82q0 -47 -9 -74q-13 -43 -49 -66t-88 -23zM189 84q30 0 40 27q4 12 4 43q0 29 -4 41q-9 27 -40 27t-40 -27q-4 -12 -4 -41
q0 -31 4 -43q10 -27 40 -27z" />
    <glyph glyph-name="seven.sc" horiz-adv-x="378" 
d="M165 0h-79q-12 0 -8 13l157 414v1h-90q-6 0 -6 -6v-37q0 -10 -10 -10h-73q-10 0 -10 10v127q0 10 10 10h270q10 0 10 -10v-75q0 -5 -2 -11l-154 -416q-4 -10 -15 -10z" />
    <glyph glyph-name="eight.sc" horiz-adv-x="378" 
d="M189 -9q-52 0 -88 23t-49 66q-9 27 -9 76q0 39 7 62q14 39 42 54v2q-28 15 -42 54q-7 23 -7 50q0 37 9 64q13 43 49 66t88 23t88 -23t49 -66q9 -27 9 -64q0 -27 -7 -50q-14 -39 -42 -54v-2q28 -15 42 -54q7 -23 7 -62q0 -49 -9 -76q-13 -43 -49 -66t-88 -23zM189 319
q30 0 40 27q4 14 4 32q0 19 -4 33q-9 26 -40 26t-40 -26q-4 -14 -4 -33q0 -18 4 -32q10 -27 40 -27zM189 84q30 0 40 27q4 12 4 45q0 32 -4 44q-9 27 -40 27t-40 -27q-4 -12 -4 -44q0 -33 4 -45q10 -27 40 -27z" />
    <glyph glyph-name="nine.sc" horiz-adv-x="378" 
d="M190 0h-81q-11 0 -6 11l96 198l-2 2q-10 -4 -33 -4q-87 0 -112 79q-9 27 -9 82q0 47 9 74q13 43 49 66t88 23t88 -23t49 -66q9 -27 9 -74q0 -84 -30 -148l-99 -210q-5 -10 -16 -10zM189 300q31 0 40 27q4 12 4 41t-4 43q-9 26 -40 26t-40 -26q-4 -14 -4 -43t4 -41
q9 -27 40 -27z" />
    <glyph glyph-name="question.sc" horiz-adv-x="341" 
d="M210 168h-84q-10 0 -10 10v26q0 37 17 57l46 59q30 38 30 70q0 13 -3 22q-10 25 -41 25t-40 -26q-3 -8 -4 -31q0 -11 -10 -9l-80 8q-9 1 -9 10q0 32 9 59q13 40 49 61.5t86 21.5q51 0 87.5 -22.5t49.5 -63.5q8 -24 8 -51q0 -54 -30 -92l-46 -58q-15 -19 -15 -46v-20
q0 -10 -10 -10zM210 0h-84q-10 0 -10 10v99q0 10 10 10h84q10 0 10 -10v-99q0 -10 -10 -10z" />
    <glyph glyph-name="a.sc" horiz-adv-x="391" 
d="M374 0h-81q-8 0 -10 10l-21 87h-132l-21 -87q-2 -10 -10 -10h-81q-11 0 -8 10l134 502q3 10 12 10h80q9 0 12 -10l134 -502q3 -10 -8 -10zM195 367l-43 -179h88l-42 179h-3z" />
    <glyph glyph-name="b.sc" horiz-adv-x="401" 
d="M190 0h-128q-10 0 -10 10v502q0 10 10 10h139q87 0 125.5 -32t38.5 -101q0 -92 -70 -116v-1q78 -16 78 -119q0 -82 -44.5 -117.5t-138.5 -35.5zM190 311q40 0 55 13.5t15 46.5t-15 46t-55 13h-30q-6 0 -6 -6v-107q0 -6 6 -6h30zM193 91q43 0 59.5 14.5t16.5 50.5
t-16.5 50.5t-59.5 14.5h-33q-6 0 -6 -6v-118q0 -6 6 -6h33z" />
    <glyph glyph-name="c.sc" horiz-adv-x="384" 
d="M198 -9q-54 0 -92.5 26t-53.5 73q-11 34 -11 171t11 170q15 47 53.5 73.5t92.5 26.5q64 0 105.5 -35t49.5 -100q2 -9 -8 -11l-76 -13q-10 -2 -12 9q-12 56 -58 56q-39 0 -51 -37q-5 -16 -5 -139q0 -124 5 -140q12 -37 51 -37q45 0 58 57q2 11 12 8l76 -12q10 -2 8 -11
q-8 -65 -49.5 -100t-105.5 -35z" />
    <glyph glyph-name="d.sc" horiz-adv-x="419" 
d="M210 0h-148q-10 0 -10 10v502q0 10 10 10h148q124 0 154 -98q14 -41 14 -163t-14 -164q-30 -97 -154 -97zM200 93q54 0 68 45q8 24 8 123q0 98 -8 123q-14 44 -68 44h-40q-6 0 -6 -6v-323q0 -6 6 -6h40z" />
    <glyph glyph-name="e.sc" horiz-adv-x="361" 
d="M324 0h-262q-10 0 -10 10v502q0 10 10 10h262q10 0 10 -10v-74q0 -10 -10 -10h-164q-6 0 -6 -6v-106q0 -6 6 -6h142q10 0 10 -10v-74q0 -10 -10 -10h-142q-6 0 -6 -6v-111q0 -6 6 -6h164q10 0 10 -10v-73q0 -10 -10 -10z" />
    <glyph glyph-name="f.sc" horiz-adv-x="359" 
d="M144 0h-82q-10 0 -10 10v502q0 10 10 10h262q10 0 10 -10v-74q0 -10 -10 -10h-164q-6 0 -6 -6v-107q0 -6 6 -6h142q10 0 10 -10v-73q0 -10 -10 -10h-142q-6 0 -6 -6v-200q0 -10 -10 -10z" />
    <glyph glyph-name="g.sc" horiz-adv-x="404" 
d="M202 -9q-55 0 -95 26.5t-55 72.5q-11 34 -11 171t11 170q15 47 55 73.5t95 26.5q66 0 109 -35t51 -100q2 -9 -8 -11l-76 -13q-10 -2 -12 9q-12 56 -63 56q-44 0 -55 -37q-5 -16 -5 -139q0 -124 5 -140q12 -37 57 -37t57 37q6 20 6 86q0 6 -6 6h-54q-10 0 -10 10v68
q0 10 10 10h146q10 0 10 -10v-31q0 -136 -11 -170q-15 -46 -55 -72.5t-96 -26.5z" />
    <glyph glyph-name="h.sc" horiz-adv-x="424" 
d="M362 0h-82q-10 0 -10 10v202q0 6 -6 6h-104q-6 0 -6 -6v-202q0 -10 -10 -10h-82q-10 0 -10 10v502q0 10 10 10h82q10 0 10 -10v-194q0 -6 6 -6h104q6 0 6 6v194q0 10 10 10h82q10 0 10 -10v-502q0 -10 -10 -10z" />
    <glyph glyph-name="i.sc" horiz-adv-x="206" 
d="M144 0h-82q-10 0 -10 10v502q0 10 10 10h82q10 0 10 -10v-502q0 -10 -10 -10z" />
    <glyph glyph-name="j.sc" horiz-adv-x="335" 
d="M125 -9q-67 0 -107 40q-6 7 1 14l57 52q7 5 15 0q17 -13 38 -13q53 0 53 65v363q0 10 10 10h82q10 0 10 -10v-359q0 -82 -41.5 -122t-117.5 -40z" />
    <glyph glyph-name="k.sc" horiz-adv-x="421" 
d="M399 0h-87q-8 0 -12 7l-101 209l-45 -70v-136q0 -10 -10 -10h-82q-10 0 -10 10v502q0 10 10 10h82q10 0 10 -10v-212l126 215q4 7 14 7h85q4 0 5.5 -3t-0.5 -7l-127 -202l147 -300q2 -4 0.5 -7t-5.5 -3z" />
    <glyph glyph-name="l.sc" horiz-adv-x="348" 
d="M321 0h-259q-10 0 -10 10v502q0 10 10 10h82q10 0 10 -10v-413q0 -6 6 -6h161q10 0 10 -10v-73q0 -10 -10 -10z" />
    <glyph glyph-name="m.sc" horiz-adv-x="530" 
d="M468 0h-73q-10 0 -10 10v318h-5l-80 -225q-3 -10 -13 -10h-44q-10 0 -13 10l-80 225h-5v-318q0 -10 -10 -10h-73q-10 0 -10 10v502q0 10 10 10h82q13 0 17 -10l104 -283h4l101 283q4 10 17 10h81q10 0 10 -10v-502q0 -10 -10 -10z" />
    <glyph glyph-name="n.sc" horiz-adv-x="441" 
d="M379 0h-92q-12 0 -16 10l-124 349h-5v-349q0 -10 -10 -10h-70q-10 0 -10 10v502q0 10 10 10h97q13 0 16 -10l119 -347h5v347q0 10 10 10h70q10 0 10 -10v-502q0 -10 -10 -10z" />
    <glyph glyph-name="o.sc" horiz-adv-x="404" 
d="M202 -9q-55 0 -95 26.5t-55 72.5q-11 34 -11 171t11 170q15 47 55 73.5t95 26.5q56 0 96 -26.5t55 -73.5q11 -33 11 -170t-11 -171q-15 -46 -55 -72.5t-96 -26.5zM202 84q42 0 55 37q5 16 5 140q0 123 -5 139q-13 37 -55 37q-43 0 -54 -37q-5 -16 -5 -139q0 -124 5 -140
q12 -37 54 -37z" />
    <glyph glyph-name="p.sc" horiz-adv-x="399" 
d="M144 0h-82q-10 0 -10 10v502q0 10 10 10h141q81 0 125.5 -41.5t44.5 -121.5q0 -79 -44.5 -120.5t-125.5 -41.5h-43q-6 0 -6 -6v-181q0 -10 -10 -10zM192 288q42 0 60.5 16.5t18.5 54.5t-18 54.5t-61 16.5h-32q-6 0 -6 -6v-130q0 -6 6 -6h32z" />
    <glyph glyph-name="q.sc" horiz-adv-x="404" 
d="M380 16l-39 -38q-7 -7 -14 1l-35 39q-34 -27 -90 -27q-55 0 -95 26.5t-55 72.5q-11 34 -11 171t11 171q15 46 55 72.5t95 26.5q56 0 96 -26.5t55 -72.5q11 -34 11 -171q0 -95 -4.5 -129t-19.5 -63l40 -39q6 -8 0 -14zM205 81q16 0 28 6l-39 40q-6 7 1 14l30 28q9 9 16 0
l23 -27h2v119q0 119 -8 140q-11 37 -56 37q-44 0 -55 -37q-5 -16 -5 -140q0 -125 5 -141q12 -39 58 -39z" />
    <glyph glyph-name="r.sc" horiz-adv-x="414" 
d="M381 0h-84q-11 0 -14 10l-72 192h-7h-43q-6 0 -6 -6v-186q0 -10 -10 -10h-82q-10 0 -10 10v502q0 10 10 10h141q81 0 125.5 -41t44.5 -119q0 -100 -71 -139l85 -213q3 -10 -7 -10zM193 293q43 0 61 16t18 53q0 36 -18 52t-61 16h-32q-6 0 -6 -6v-125q0 -6 6 -6h32z" />
    <glyph glyph-name="s.sc" horiz-adv-x="377" 
d="M195 -9q-153 0 -164 138q-1 10 8 12l78 13q9 2 11 -8q9 -66 64 -66q59 0 59 66q0 28 -14 44t-50 28l-38 12q-61 20 -86 53.5t-25 97.5q0 70 41.5 110t111.5 40q71 0 110 -35t47 -98q1 -10 -8 -12l-75 -10q-9 -2 -11 8q-10 57 -59 57q-57 0 -57 -58q0 -25 12.5 -40
t46.5 -26l38 -12q65 -20 90.5 -55.5t25.5 -102.5q0 -73 -40 -114.5t-116 -41.5z" />
    <glyph glyph-name="t.sc" horiz-adv-x="354" 
d="M218 0h-82q-10 0 -10 10v412q0 6 -6 6h-96q-10 0 -10 10v74q0 10 10 10h306q10 0 10 -10v-74q0 -10 -10 -10h-96q-6 0 -6 -6v-412q0 -10 -10 -10z" />
    <glyph glyph-name="u.sc" horiz-adv-x="421" 
d="M210 -9q-74 0 -116.5 42.5t-42.5 120.5v358q0 10 10 10h82q10 0 10 -10v-358q0 -70 57 -70q58 0 58 70v358q0 10 10 10h82q10 0 10 -10v-358q0 -78 -42.5 -120.5t-117.5 -42.5z" />
    <glyph glyph-name="v.sc" horiz-adv-x="374" 
d="M224 0h-74q-8 0 -10 10l-124 502q-2 10 9 10h81q10 0 11 -10l71 -340h3l69 340q1 10 11 10h79q10 0 8 -10l-124 -502q-2 -10 -10 -10z" />
    <glyph glyph-name="w.sc" horiz-adv-x="539" 
d="M416 0h-70q-8 0 -10 10l-65 322h-2l-67 -322q-2 -10 -10 -10h-69q-8 0 -10 10l-97 502q-2 10 9 10h79q10 0 11 -10l47 -327h1l66 327q1 10 11 10h58q10 0 11 -10l67 -327h2l47 327q1 10 11 10h78q11 0 9 -10l-97 -502q-2 -10 -10 -10z" />
    <glyph glyph-name="x.sc" horiz-adv-x="384" 
d="M362 0h-84q-10 0 -14 10l-71 156h-2l-71 -156q-4 -10 -14 -10h-84q-12 0 -7 11l124 262l-111 238q-6 11 7 11h82q10 0 14 -10l61 -139h2l61 139q4 10 14 10h80q13 0 7 -11l-110 -238l123 -262q5 -11 -7 -11z" />
    <glyph glyph-name="y.sc" horiz-adv-x="359" 
d="M220 0h-81q-10 0 -10 10v202l-121 300q-3 10 8 10h83q9 0 12 -10l68 -194h3l68 194q3 10 12 10h81q11 0 8 -10l-121 -300v-202q0 -10 -10 -10z" />
    <glyph glyph-name="z.sc" horiz-adv-x="347" 
d="M305 0h-263q-10 0 -10 10v72q0 7 3 13l173 332v1h-156q-10 0 -10 10v74q0 10 10 10h252q10 0 10 -10v-73q0 -7 -3 -13l-172 -331v-2h166q10 0 10 -10v-73q0 -10 -10 -10z" />
    <glyph glyph-name="agrave.sc" horiz-adv-x="391" 
d="M226 595h-57q-11 0 -18 10l-90 125q-3 4 -1.5 7t6.5 3h81q10 0 16 -10l69 -125q5 -10 -6 -10zM374 0h-81q-8 0 -10 10l-21 87h-132l-21 -87q-2 -10 -10 -10h-81q-11 0 -8 10l134 502q3 10 12 10h80q9 0 12 -10l134 -502q3 -10 -8 -10zM195 367l-43 -179h88l-42 179h-3z
" />
    <glyph glyph-name="aacute.sc" horiz-adv-x="391" 
d="M374 0h-81q-8 0 -10 10l-21 87h-132l-21 -87q-2 -10 -10 -10h-81q-11 0 -8 10l134 502q3 10 12 10h80q9 0 12 -10l134 -502q3 -10 -8 -10zM195 367l-43 -179h88l-42 179h-3zM223 595h-57q-11 0 -6 10l69 125q6 10 16 10h81q5 0 6.5 -3t-1.5 -7l-90 -125q-7 -10 -18 -10z
" />
    <glyph glyph-name="acircumflex.sc" horiz-adv-x="391" 
d="M374 0h-81q-8 0 -10 10l-21 87h-132l-21 -87q-2 -10 -10 -10h-81q-11 0 -8 10l134 502q3 10 12 10h80q9 0 12 -10l134 -502q3 -10 -8 -10zM195 367l-43 -179h88l-42 179h-3zM324 595h-60q-10 0 -19 10l-48 60h-2l-47 -60q-9 -10 -19 -10h-60q-5 0 -6 3t2 7l88 125
q7 10 17 10h52q11 0 18 -10l88 -125q3 -4 1.5 -7t-5.5 -3z" />
    <glyph glyph-name="atilde.sc" horiz-adv-x="391" 
d="M241 607q-24 0 -52 18q-23 16 -38 16q-22 0 -48 -26q-4 -4 -8 -2.5t-4 6.5v61q0 9 10 19q24 24 51 24q25 0 51 -18q25 -16 39 -16q24 0 48 26q4 4 8 2.5t4 -6.5v-61q0 -9 -10 -19q-24 -24 -51 -24zM374 0h-81q-8 0 -10 10l-21 87h-132l-21 -87q-2 -10 -10 -10h-81
q-11 0 -8 10l134 502q3 10 12 10h80q9 0 12 -10l134 -502q3 -10 -8 -10zM195 367l-43 -179h88l-42 179h-3z" />
    <glyph glyph-name="adieresis.sc" horiz-adv-x="391" 
d="M374 0h-81q-8 0 -10 10l-21 87h-132l-21 -87q-2 -10 -10 -10h-81q-11 0 -8 10l134 502q3 10 12 10h80q9 0 12 -10l134 -502q3 -10 -8 -10zM195 367l-43 -179h88l-42 179h-3zM305 614h-65q-10 0 -10 10v86q0 10 10 10h65q10 0 10 -10v-86q0 -10 -10 -10zM153 614h-65
q-10 0 -10 10v86q0 10 10 10h65q10 0 10 -10v-86q0 -10 -10 -10z" />
    <glyph glyph-name="amacron.sc" horiz-adv-x="391" 
d="M374 0h-81q-8 0 -10 10l-21 87h-132l-21 -87q-2 -10 -10 -10h-81q-11 0 -8 10l134 502q3 10 12 10h80q9 0 12 -10l134 -502q3 -10 -8 -10zM195 367l-43 -179h88l-42 179h-3zM300 628h-206q-10 0 -10 10v60q0 10 10 10h206q10 0 10 -10v-60q0 -10 -10 -10z" />
    <glyph glyph-name="abreve.sc" horiz-adv-x="391" 
d="M196 596q-57 0 -89 33.5t-36 85.5q0 10 10 10h45q7 0 10 -10q16 -47 60 -47q45 0 61 47q3 10 10 10h45q10 0 10 -10q-4 -52 -36.5 -85.5t-89.5 -33.5zM374 0h-81q-8 0 -10 10l-21 87h-132l-21 -87q-2 -10 -10 -10h-81q-11 0 -8 10l134 502q3 10 12 10h80q9 0 12 -10
l134 -502q3 -10 -8 -10zM195 367l-43 -179h88l-42 179h-3z" />
    <glyph glyph-name="aring.sc" horiz-adv-x="391" 
d="M196 579q-38 0 -64 26t-26 64q0 39 26 65t64 26q39 0 65 -26t26 -65q0 -38 -26 -64t-65 -26zM196 622q20 0 33 13.5t13 33.5q0 21 -13 34.5t-33 13.5t-32.5 -13.5t-12.5 -34.5q0 -20 13 -33.5t32 -13.5zM374 0h-81q-8 0 -10 10l-21 87h-132l-21 -87q-2 -10 -10 -10h-81
q-11 0 -8 10l134 502q3 10 12 10h80q9 0 12 -10l134 -502q3 -10 -8 -10zM195 367l-43 -179h88l-42 179h-3z" />
    <glyph glyph-name="aringacute.sc" horiz-adv-x="391" 
d="M222 702h-55q-5 0 -7 3t1 7l77 107q7 10 16 10h81q5 0 6.5 -3t-1.5 -7l-98 -107q-10 -10 -20 -10zM374 0h-81q-8 0 -10 10l-21 87h-132l-21 -87q-2 -10 -10 -10h-81q-11 0 -8 10l130 486q-35 25 -35 73q0 39 26 64.5t65 25.5q38 0 64 -25.5t26 -64.5q0 -45 -34 -73
l130 -486q3 -10 -8 -10zM150 569q0 -19 11.5 -32t30.5 -15h8q18 2 29.5 15t11.5 32q0 20 -13 33.5t-32 13.5q-20 0 -33 -13.5t-13 -33.5zM195 367l-43 -179h88l-42 179h-3z" />
    <glyph glyph-name="aogonek.sc" horiz-adv-x="391" 
d="M315 -190q-41 0 -65.5 21.5t-24.5 61.5q0 52 61 109l-3 8l-21 87h-133l-20 -87q-2 -10 -10 -10h-81q-11 0 -8 10l134 502q3 10 12 10h80q9 0 12 -10l134 -502q1 -7 -4 -10q-30 -20 -49.5 -45t-19.5 -46q0 -24 19 -24q10 0 18 5q9 6 13 -4l21 -46q3 -8 -5 -13
q-25 -17 -60 -17zM240 188l-42 179h-3l-43 -179h88z" />
    <glyph glyph-name="ae.sc" horiz-adv-x="587" 
d="M549 0h-261q-10 0 -10 10v81q0 6 -6 6h-125l-33 -87q-3 -10 -13 -10h-84q-10 0 -7 10l199 502q3 10 12 10h328q10 0 10 -10v-74q0 -10 -10 -10h-164q-6 0 -6 -6v-106q0 -6 6 -6h142q10 0 10 -10v-74q0 -10 -10 -10h-142q-6 0 -6 -6v-111q0 -6 6 -6h164q10 0 10 -10v-73
q0 -10 -10 -10zM275 428l-93 -240h90q6 0 6 6v234h-3z" />
    <glyph glyph-name="aeacute.sc" horiz-adv-x="587" 
d="M549 0h-261q-10 0 -10 10v81q0 6 -6 6h-125l-33 -87q-3 -10 -13 -10h-84q-10 0 -7 10l199 502q3 10 12 10h328q10 0 10 -10v-74q0 -10 -10 -10h-164q-6 0 -6 -6v-106q0 -6 6 -6h142q10 0 10 -10v-74q0 -10 -10 -10h-142q-6 0 -6 -6v-111q0 -6 6 -6h164q10 0 10 -10v-73
q0 -10 -10 -10zM275 428l-93 -240h90q6 0 6 6v234h-3zM323 595h-57q-11 0 -6 10l69 125q6 10 16 10h81q5 0 6.5 -3t-1.5 -7l-90 -125q-7 -10 -18 -10z" />
    <glyph glyph-name="cacute.sc" horiz-adv-x="384" 
d="M217 595h-57q-11 0 -6 10l69 125q6 10 16 10h81q5 0 6.5 -3t-1.5 -7l-90 -125q-7 -10 -18 -10zM198 -9q-54 0 -92.5 26t-53.5 73q-11 34 -11 171t11 170q15 47 53.5 73.5t92.5 26.5q64 0 105.5 -35t49.5 -100q2 -9 -8 -11l-76 -13q-10 -2 -12 9q-12 56 -58 56
q-39 0 -51 -37q-5 -16 -5 -139q0 -124 5 -140q12 -37 51 -37q45 0 58 57q2 11 12 8l76 -12q10 -2 8 -11q-8 -65 -49.5 -100t-105.5 -35z" />
    <glyph glyph-name="ccircumflex.sc" horiz-adv-x="384" 
d="M198 -9q-54 0 -92.5 26t-53.5 73q-11 34 -11 171t11 170q15 47 53.5 73.5t92.5 26.5q64 0 105.5 -35t49.5 -100q2 -9 -8 -11l-76 -13q-10 -2 -12 9q-12 56 -58 56q-39 0 -51 -37q-5 -16 -5 -139q0 -124 5 -140q12 -37 51 -37q45 0 58 57q2 11 12 8l76 -12q10 -2 8 -11
q-8 -65 -49.5 -100t-105.5 -35zM326 595h-60q-10 0 -19 10l-48 60h-2l-47 -60q-9 -10 -19 -10h-60q-5 0 -6 3t2 7l88 125q7 10 17 10h52q11 0 18 -10l88 -125q3 -4 1.5 -7t-5.5 -3z" />
    <glyph glyph-name="ccaron.sc" horiz-adv-x="384" 
d="M224 595h-52q-10 0 -17 10l-88 125q-3 4 -2 7t6 3h60q10 0 19 -10l47 -60h2l48 60q9 10 19 10h60q4 0 5.5 -3t-1.5 -7l-88 -125q-7 -10 -18 -10zM198 -9q-54 0 -92.5 26t-53.5 73q-11 34 -11 171t11 170q15 47 53.5 73.5t92.5 26.5q64 0 105.5 -35t49.5 -100q2 -9 -8 -11
l-76 -13q-10 -2 -12 9q-12 56 -58 56q-39 0 -51 -37q-5 -16 -5 -139q0 -124 5 -140q12 -37 51 -37q45 0 58 57q2 11 12 8l76 -12q10 -2 8 -11q-8 -65 -49.5 -100t-105.5 -35z" />
    <glyph glyph-name="cdotaccent.sc" horiz-adv-x="384" 
d="M239 614h-82q-10 0 -10 10v86q0 10 10 10h82q10 0 10 -10v-86q0 -10 -10 -10zM198 -9q-54 0 -92.5 26t-53.5 73q-11 34 -11 171t11 170q15 47 53.5 73.5t92.5 26.5q64 0 105.5 -35t49.5 -100q2 -9 -8 -11l-76 -13q-10 -2 -12 9q-12 56 -58 56q-39 0 -51 -37
q-5 -16 -5 -139q0 -124 5 -140q12 -37 51 -37q45 0 58 57q2 11 12 8l76 -12q10 -2 8 -11q-8 -65 -49.5 -100t-105.5 -35z" />
    <glyph glyph-name="ccedilla.sc" horiz-adv-x="384" 
d="M101 -145l59 140q-84 17 -108 95q-11 34 -11 171t11 170q15 47 53.5 73.5t92.5 26.5q64 0 105.5 -35t49.5 -100q2 -9 -8 -11l-76 -13q-10 -2 -12 9q-12 56 -58 56q-39 0 -51 -37q-5 -16 -5 -139q0 -124 5 -140q12 -37 51 -37q45 0 58 57q2 11 12 8l76 -12q10 -2 8 -11
q-7 -54 -37 -87.5t-77 -43.5l-49 -140q-4 -10 -16 -10h-66q-10 0 -7 10z" />
    <glyph glyph-name="dcaron.sc" horiz-adv-x="419" 
d="M210 0h-148q-10 0 -10 10v502q0 10 10 10h148q124 0 154 -98q14 -41 14 -163t-14 -164q-30 -97 -154 -97zM200 93q54 0 68 45q8 24 8 123q0 98 -8 123q-14 44 -68 44h-40q-6 0 -6 -6v-323q0 -6 6 -6h40zM225 595h-52q-10 0 -17 10l-88 125q-3 4 -1.5 7t5.5 3h60
q10 0 19 -10l47 -60h2l48 60q9 10 19 10h60q5 0 6 -3t-2 -7l-88 -125q-7 -10 -18 -10z" />
    <glyph glyph-name="dcroat.sc" horiz-adv-x="419" 
d="M210 0h-148q-10 0 -10 10v208q0 6 -6 6h-22q-10 0 -10 10v58q0 10 10 10h22q6 0 6 6v204q0 10 10 10h148q124 0 154 -98q14 -41 14 -163t-14 -164q-30 -97 -154 -97zM200 93q54 0 68 45q8 24 8 123q0 98 -8 123q-14 44 -68 44h-40q-6 0 -6 -6v-114q0 -6 6 -6h41
q10 0 10 -10v-58q0 -10 -10 -10h-41q-6 0 -6 -6v-119q0 -6 6 -6h40z" />
    <glyph glyph-name="eth.sc" horiz-adv-x="419" 
d="M210 0h-148q-10 0 -10 10v208q0 6 -6 6h-22q-10 0 -10 10v58q0 10 10 10h22q6 0 6 6v204q0 10 10 10h148q124 0 154 -98q14 -41 14 -163t-14 -164q-30 -97 -154 -97zM200 93q54 0 68 45q8 24 8 123q0 98 -8 123q-14 44 -68 44h-40q-6 0 -6 -6v-114q0 -6 6 -6h41
q10 0 10 -10v-58q0 -10 -10 -10h-41q-6 0 -6 -6v-119q0 -6 6 -6h40z" />
    <glyph glyph-name="egrave.sc" horiz-adv-x="361" 
d="M228 595h-57q-11 0 -18 10l-90 125q-3 4 -1.5 7t6.5 3h81q10 0 16 -10l69 -125q5 -10 -6 -10zM324 0h-262q-10 0 -10 10v502q0 10 10 10h262q10 0 10 -10v-74q0 -10 -10 -10h-164q-6 0 -6 -6v-106q0 -6 6 -6h142q10 0 10 -10v-74q0 -10 -10 -10h-142q-6 0 -6 -6v-111
q0 -6 6 -6h164q10 0 10 -10v-73q0 -10 -10 -10z" />
    <glyph glyph-name="eacute.sc" horiz-adv-x="361" 
d="M206 595h-57q-11 0 -6 10l69 125q6 10 16 10h81q5 0 6.5 -3t-1.5 -7l-90 -125q-7 -10 -18 -10zM324 0h-262q-10 0 -10 10v502q0 10 10 10h262q10 0 10 -10v-74q0 -10 -10 -10h-164q-6 0 -6 -6v-106q0 -6 6 -6h142q10 0 10 -10v-74q0 -10 -10 -10h-142q-6 0 -6 -6v-111
q0 -6 6 -6h164q10 0 10 -10v-73q0 -10 -10 -10z" />
    <glyph glyph-name="ecircumflex.sc" horiz-adv-x="361" 
d="M324 0h-262q-10 0 -10 10v502q0 10 10 10h262q10 0 10 -10v-74q0 -10 -10 -10h-164q-6 0 -6 -6v-106q0 -6 6 -6h142q10 0 10 -10v-74q0 -10 -10 -10h-142q-6 0 -6 -6v-111q0 -6 6 -6h164q10 0 10 -10v-73q0 -10 -10 -10zM321 595h-60q-10 0 -19 10l-48 60h-2l-47 -60
q-9 -10 -19 -10h-60q-4 0 -5.5 3t1.5 7l88 125q7 10 17 10h52q11 0 18 -10l88 -125q3 -4 2 -7t-6 -3z" />
    <glyph glyph-name="ecaron.sc" horiz-adv-x="361" 
d="M218 595h-52q-10 0 -17 10l-88 125q-3 4 -2 7t6 3h60q10 0 19 -10l47 -60h2l48 60q9 10 19 10h60q4 0 5.5 -3t-1.5 -7l-88 -125q-7 -10 -18 -10zM324 0h-262q-10 0 -10 10v502q0 10 10 10h262q10 0 10 -10v-74q0 -10 -10 -10h-164q-6 0 -6 -6v-106q0 -6 6 -6h142
q10 0 10 -10v-74q0 -10 -10 -10h-142q-6 0 -6 -6v-111q0 -6 6 -6h164q10 0 10 -10v-73q0 -10 -10 -10z" />
    <glyph glyph-name="edieresis.sc" horiz-adv-x="361" 
d="M300 614h-65q-10 0 -10 10v86q0 10 10 10h65q10 0 10 -10v-86q0 -10 -10 -10zM148 614h-65q-10 0 -10 10v86q0 10 10 10h65q10 0 10 -10v-86q0 -10 -10 -10zM324 0h-262q-10 0 -10 10v502q0 10 10 10h262q10 0 10 -10v-74q0 -10 -10 -10h-164q-6 0 -6 -6v-106q0 -6 6 -6
h142q10 0 10 -10v-74q0 -10 -10 -10h-142q-6 0 -6 -6v-111q0 -6 6 -6h164q10 0 10 -10v-73q0 -10 -10 -10z" />
    <glyph glyph-name="emacron.sc" horiz-adv-x="361" 
d="M294 628h-206q-10 0 -10 10v60q0 10 10 10h206q10 0 10 -10v-60q0 -10 -10 -10zM324 0h-262q-10 0 -10 10v502q0 10 10 10h262q10 0 10 -10v-74q0 -10 -10 -10h-164q-6 0 -6 -6v-106q0 -6 6 -6h142q10 0 10 -10v-74q0 -10 -10 -10h-142q-6 0 -6 -6v-111q0 -6 6 -6h164
q10 0 10 -10v-73q0 -10 -10 -10z" />
    <glyph glyph-name="ebreve.sc" horiz-adv-x="361" 
d="M191 596q-57 0 -89 33.5t-36 85.5q0 10 10 10h45q7 0 10 -10q16 -47 60 -47q45 0 61 47q3 10 10 10h45q10 0 10 -10q-4 -52 -36.5 -85.5t-89.5 -33.5zM324 0h-262q-10 0 -10 10v502q0 10 10 10h262q10 0 10 -10v-74q0 -10 -10 -10h-164q-6 0 -6 -6v-106q0 -6 6 -6h142
q10 0 10 -10v-74q0 -10 -10 -10h-142q-6 0 -6 -6v-111q0 -6 6 -6h164q10 0 10 -10v-73q0 -10 -10 -10z" />
    <glyph glyph-name="edotaccent.sc" horiz-adv-x="361" 
d="M223 614h-82q-10 0 -10 10v86q0 10 10 10h82q10 0 10 -10v-86q0 -10 -10 -10zM324 0h-262q-10 0 -10 10v502q0 10 10 10h262q10 0 10 -10v-74q0 -10 -10 -10h-164q-6 0 -6 -6v-106q0 -6 6 -6h142q10 0 10 -10v-74q0 -10 -10 -10h-142q-6 0 -6 -6v-111q0 -6 6 -6h164
q10 0 10 -10v-73q0 -10 -10 -10z" />
    <glyph glyph-name="eogonek.sc" horiz-adv-x="361" 
d="M256 -190q-41 0 -65 21.5t-24 61.5q0 53 56 107h-161q-10 0 -10 10v502q0 10 10 10h262q10 0 10 -10v-74q0 -10 -10 -10h-164q-6 0 -6 -6v-106q0 -6 6 -6h142q10 0 10 -10v-74q0 -10 -10 -10h-142q-6 0 -6 -6v-111q0 -6 6 -6h164q10 0 10 -10v-73q0 -10 -10 -10h-4
q-30 -20 -49.5 -45t-19.5 -46q0 -24 19 -24q10 0 18 5q9 6 13 -4l21 -46q3 -8 -5 -13q-25 -17 -61 -17z" />
    <glyph glyph-name="gcircumflex.sc" horiz-adv-x="404" 
d="M202 -9q-55 0 -95 26.5t-55 72.5q-11 34 -11 171t11 170q15 47 55 73.5t95 26.5q66 0 109 -35t51 -100q2 -9 -8 -11l-76 -13q-10 -2 -12 9q-12 56 -63 56q-44 0 -55 -37q-5 -16 -5 -139q0 -124 5 -140q12 -37 57 -37t57 37q6 20 6 86q0 6 -6 6h-54q-10 0 -10 10v68
q0 10 10 10h146q10 0 10 -10v-31q0 -136 -11 -170q-15 -46 -55 -72.5t-96 -26.5zM330 595h-60q-10 0 -19 10l-48 60h-2l-47 -60q-9 -10 -19 -10h-60q-5 0 -6 3t2 7l88 125q7 10 17 10h52q11 0 18 -10l88 -125q3 -4 1.5 -7t-5.5 -3z" />
    <glyph glyph-name="gbreve.sc" horiz-adv-x="404" 
d="M202 -9q-55 0 -95 26.5t-55 72.5q-11 34 -11 171t11 170q15 47 55 73.5t95 26.5q66 0 109 -35t51 -100q2 -9 -8 -11l-76 -13q-10 -2 -12 9q-12 56 -63 56q-44 0 -55 -37q-5 -16 -5 -139q0 -124 5 -140q12 -37 57 -37t57 37q6 20 6 86q0 6 -6 6h-54q-10 0 -10 10v68
q0 10 10 10h146q10 0 10 -10v-31q0 -136 -11 -170q-15 -46 -55 -72.5t-96 -26.5zM202 596q-57 0 -89 33.5t-36 85.5q0 10 10 10h45q7 0 10 -10q16 -47 60 -47q45 0 61 47q3 10 10 10h45q10 0 10 -10q-4 -52 -36.5 -85.5t-89.5 -33.5z" />
    <glyph glyph-name="gdotaccent.sc" horiz-adv-x="404" 
d="M202 -9q-55 0 -95 26.5t-55 72.5q-11 34 -11 171t11 170q15 47 55 73.5t95 26.5q66 0 109 -35t51 -100q2 -9 -8 -11l-76 -13q-10 -2 -12 9q-12 56 -63 56q-44 0 -55 -37q-5 -16 -5 -139q0 -124 5 -140q12 -37 57 -37t57 37q6 20 6 86q0 6 -6 6h-54q-10 0 -10 10v68
q0 10 10 10h146q10 0 10 -10v-31q0 -136 -11 -170q-15 -46 -55 -72.5t-96 -26.5zM244 614h-82q-10 0 -10 10v86q0 10 10 10h82q10 0 10 -10v-86q0 -10 -10 -10z" />
    <glyph glyph-name="gcommaaccent.sc" horiz-adv-x="404" 
d="M166 -221q-8 0 -8 10v147q0 10 10 10h70q10 0 10 -10v-55q0 -13 -8 -22l-61 -73q-6 -7 -13 -7zM202 -9q-55 0 -95 26.5t-55 72.5q-11 34 -11 171t11 170q15 47 55 73.5t95 26.5q66 0 109 -35t51 -100q2 -9 -8 -11l-76 -13q-10 -2 -12 9q-12 56 -63 56q-44 0 -55 -37
q-5 -16 -5 -139q0 -124 5 -140q12 -37 57 -37t57 37q6 20 6 86q0 6 -6 6h-54q-10 0 -10 10v68q0 10 10 10h146q10 0 10 -10v-31q0 -136 -11 -170q-15 -46 -55 -72.5t-96 -26.5z" />
    <glyph glyph-name="hcircumflex.sc" horiz-adv-x="424" 
d="M362 0h-82q-10 0 -10 10v202q0 6 -6 6h-104q-6 0 -6 -6v-202q0 -10 -10 -10h-82q-10 0 -10 10v502q0 10 10 10h82q10 0 10 -10v-194q0 -6 6 -6h104q6 0 6 6v194q0 10 10 10h82q10 0 10 -10v-502q0 -10 -10 -10zM338 595h-60q-10 0 -19 10l-48 60h-2l-47 -60
q-9 -10 -19 -10h-60q-5 0 -6 3t2 7l88 125q7 10 17 10h52q11 0 18 -10l88 -125q3 -4 1.5 -7t-5.5 -3z" />
    <glyph glyph-name="hbar.sc" horiz-adv-x="424" 
d="M362 0h-82q-10 0 -10 10v202q0 6 -6 6h-104q-6 0 -6 -6v-202q0 -10 -10 -10h-82q-10 0 -10 10v363q0 6 -6 6h-39q-10 0 -10 10v58q0 10 10 10h39q6 0 6 6v49q0 10 10 10h82q10 0 10 -10v-49q0 -6 6 -6h104q6 0 6 6v49q0 10 10 10h82q10 0 10 -10v-49q0 -6 6 -6h39
q10 0 10 -10v-58q0 -10 -10 -10h-39q-6 0 -6 -6v-363q0 -10 -10 -10zM264 312q6 0 6 6v55q0 6 -6 6h-104q-6 0 -6 -6v-55q0 -6 6 -6h104z" />
    <glyph glyph-name="igrave.sc" horiz-adv-x="206" 
d="M133 595h-57q-10 0 -18 10l-90 125q-3 4 -1.5 7t6.5 3h81q10 0 16 -10l69 -125q5 -10 -6 -10zM144 0h-82q-10 0 -10 10v502q0 10 10 10h82q10 0 10 -10v-502q0 -10 -10 -10z" />
    <glyph glyph-name="iacute.sc" horiz-adv-x="206" 
d="M144 0h-82q-10 0 -10 10v502q0 10 10 10h82q10 0 10 -10v-502q0 -10 -10 -10zM130 595h-57q-11 0 -6 10l69 125q6 10 16 10h81q5 0 6.5 -3t-1.5 -7l-90 -125q-8 -10 -18 -10z" />
    <glyph glyph-name="ibreve.sc" horiz-adv-x="206" 
d="M103 596q-57 0 -89 33.5t-36 85.5q0 10 10 10h45q7 0 10 -10q16 -47 60 -47q45 0 61 47q3 10 10 10h45q10 0 10 -10q-4 -52 -36.5 -85.5t-89.5 -33.5zM144 0h-82q-10 0 -10 10v502q0 10 10 10h82q10 0 10 -10v-502q0 -10 -10 -10z" />
    <glyph glyph-name="icircumflex.sc" horiz-adv-x="206" 
d="M144 0h-82q-10 0 -10 10v502q0 10 10 10h82q10 0 10 -10v-502q0 -10 -10 -10zM231 595h-60q-10 0 -19 10l-48 60h-2l-47 -60q-9 -10 -19 -10h-60q-4 0 -5.5 3t1.5 7l88 125q7 10 17 10h52q11 0 18 -10l88 -125q3 -4 2 -7t-6 -3z" />
    <glyph glyph-name="itilde.sc" horiz-adv-x="206" 
d="M148 607q-24 0 -52 18q-23 16 -38 16q-22 0 -48 -26q-4 -4 -8 -2.5t-4 6.5v61q0 9 10 19q24 24 51 24q25 0 51 -18q25 -16 39 -16q24 0 48 26q4 4 8 2.5t4 -6.5v-61q0 -9 -10 -19q-24 -24 -51 -24zM144 0h-82q-10 0 -10 10v502q0 10 10 10h82q10 0 10 -10v-502
q0 -10 -10 -10z" />
    <glyph glyph-name="idieresis.sc" horiz-adv-x="206" 
d="M144 0h-82q-10 0 -10 10v502q0 10 10 10h82q10 0 10 -10v-502q0 -10 -10 -10zM212 614h-65q-10 0 -10 10v86q0 10 10 10h65q10 0 10 -10v-86q0 -10 -10 -10zM60 614h-65q-10 0 -10 10v86q0 10 10 10h65q10 0 10 -10v-86q0 -10 -10 -10z" />
    <glyph glyph-name="imacron.sc" horiz-adv-x="206" 
d="M144 0h-82q-10 0 -10 10v502q0 10 10 10h82q10 0 10 -10v-502q0 -10 -10 -10zM206 628h-206q-10 0 -10 10v60q0 10 10 10h206q10 0 10 -10v-60q0 -10 -10 -10z" />
    <glyph glyph-name="idotaccent.sc" horiz-adv-x="206" 
d="M144 614h-82q-10 0 -10 10v86q0 10 10 10h82q10 0 10 -10v-86q0 -10 -10 -10zM144 0h-82q-10 0 -10 10v502q0 10 10 10h82q10 0 10 -10v-502q0 -10 -10 -10z" />
    <glyph glyph-name="iogonek.sc" horiz-adv-x="206" 
d="M94 -190q-41 0 -65 21.5t-24 61.5q0 56 56 107q-9 0 -9 10v502q0 10 10 10h82q10 0 10 -10v-502q0 -5 -3 -8q-63 -60 -63 -93q0 -24 20 -24q10 0 18 5q9 6 13 -4l20 -46q3 -8 -5 -13q-25 -17 -60 -17z" />
    <glyph glyph-name="jcircumflex.sc" horiz-adv-x="335" 
d="M125 -9q-67 0 -107 40q-6 7 1 14l57 52q7 5 15 0q17 -13 38 -13q53 0 53 65v363q0 10 10 10h82q10 0 10 -10v-359q0 -82 -41.5 -122t-117.5 -40zM354 595h-60q-10 0 -19 10l-48 60h-2l-47 -60q-9 -10 -19 -10h-60q-5 0 -6 3t2 7l88 125q7 10 17 10h52q11 0 18 -10
l88 -125q3 -4 1.5 -7t-5.5 -3z" />
    <glyph glyph-name="kcommaaccent.sc" horiz-adv-x="421" 
d="M187 -221q-8 0 -8 10v147q0 10 10 10h70q10 0 10 -10v-55q0 -13 -8 -22l-61 -73q-6 -7 -13 -7zM399 0h-87q-8 0 -12 7l-101 209l-45 -70v-136q0 -10 -10 -10h-82q-10 0 -10 10v502q0 10 10 10h82q10 0 10 -10v-212l126 215q4 7 14 7h85q4 0 5.5 -3t-0.5 -7l-127 -202
l147 -300q2 -4 0.5 -7t-5.5 -3z" />
    <glyph glyph-name="lacute.sc" horiz-adv-x="348" 
d="M321 0h-259q-10 0 -10 10v502q0 10 10 10h82q10 0 10 -10v-413q0 -6 6 -6h161q10 0 10 -10v-73q0 -10 -10 -10zM135 595h-57q-11 0 -6 10l69 125q6 10 16 10h81q5 0 6.5 -3t-1.5 -7l-90 -125q-7 -10 -18 -10z" />
    <glyph glyph-name="lcaron.sc" horiz-adv-x="348" 
d="M321 0h-259q-10 0 -10 10v502q0 10 10 10h82q10 0 10 -10v-413q0 -6 6 -6h161q10 0 10 -10v-73q0 -10 -10 -10zM206 353q-9 0 -9 9v150q0 10 10 10h69q10 0 10 -10v-57q0 -12 -7 -22l-60 -73q-6 -7 -13 -7z" />
    <glyph glyph-name="lcommaaccent.sc" horiz-adv-x="348" 
d="M321 0h-259q-10 0 -10 10v502q0 10 10 10h82q10 0 10 -10v-413q0 -6 6 -6h161q10 0 10 -10v-73q0 -10 -10 -10zM148 -221q-8 0 -8 10v147q0 10 10 10h70q10 0 10 -10v-55q0 -13 -8 -22l-61 -73q-6 -7 -13 -7z" />
    <glyph glyph-name="lslash.sc" horiz-adv-x="348" 
d="M224 287l-70 -48v-140q0 -6 6 -6h161q10 0 10 -10v-73q0 -10 -10 -10h-259q-10 0 -10 10v164l-33 -22q-4 -2 -7 -0.5t-3 5.5v74q0 9 10 16l33 22v243q0 10 10 10h82q10 0 10 -10v-178l70 48q4 2 7 0.5t3 -5.5v-74q0 -9 -10 -16z" />
    <glyph glyph-name="ldot.sc" horiz-adv-x="348" 
d="M321 0h-259q-10 0 -10 10v502q0 10 10 10h82q10 0 10 -10v-413q0 -6 6 -6h161q10 0 10 -10v-73q0 -10 -10 -10zM319 205h-85q-10 0 -10 10v99q0 10 10 10h85q10 0 10 -10v-99q0 -10 -10 -10z" />
    <glyph glyph-name="nacute.sc" horiz-adv-x="441" 
d="M379 0h-92q-12 0 -16 10l-124 349h-5v-349q0 -10 -10 -10h-70q-10 0 -10 10v502q0 10 10 10h97q13 0 16 -10l119 -347h5v347q0 10 10 10h70q10 0 10 -10v-502q0 -10 -10 -10zM227 595h-57q-11 0 -6 10l69 125q6 10 16 10h81q5 0 6.5 -3t-1.5 -7l-90 -125q-7 -10 -18 -10z
" />
    <glyph glyph-name="ncaron.sc" horiz-adv-x="441" 
d="M379 0h-92q-12 0 -16 10l-124 349h-5v-349q0 -10 -10 -10h-70q-10 0 -10 10v502q0 10 10 10h97q13 0 16 -10l119 -347h5v347q0 10 10 10h70q10 0 10 -10v-502q0 -10 -10 -10zM245 595h-52q-10 0 -17 10l-88 125q-3 4 -1.5 7t5.5 3h60q10 0 19 -10l47 -60h2l48 60
q9 10 19 10h60q5 0 6 -3t-2 -7l-88 -125q-7 -10 -18 -10z" />
    <glyph glyph-name="ntilde.sc" horiz-adv-x="441" 
d="M379 0h-92q-12 0 -16 10l-124 349h-5v-349q0 -10 -10 -10h-70q-10 0 -10 10v502q0 10 10 10h97q13 0 16 -10l119 -347h5v347q0 10 10 10h70q10 0 10 -10v-502q0 -10 -10 -10zM264 607q-24 0 -52 18q-23 16 -38 16q-22 0 -48 -26q-4 -4 -8 -2.5t-4 6.5v61q0 9 10 19
q24 24 51 24q25 0 51 -18q25 -16 39 -16q24 0 48 26q4 4 8 2.5t4 -6.5v-61q0 -9 -10 -19q-24 -24 -51 -24z" />
    <glyph glyph-name="ncommaaccent.sc" horiz-adv-x="441" 
d="M193 -221q-8 0 -8 10v147q0 10 10 10h70q10 0 10 -10v-55q0 -13 -8 -22l-61 -73q-6 -7 -13 -7zM379 0h-92q-12 0 -16 10l-124 349h-5v-349q0 -10 -10 -10h-70q-10 0 -10 10v502q0 10 10 10h97q13 0 16 -10l119 -347h5v347q0 10 10 10h70q10 0 10 -10v-502q0 -10 -10 -10z
" />
    <glyph glyph-name="ograve.sc" horiz-adv-x="404" 
d="M202 -9q-55 0 -95 26.5t-55 72.5q-11 34 -11 171t11 170q15 47 55 73.5t95 26.5q56 0 96 -26.5t55 -73.5q11 -33 11 -170t-11 -171q-15 -46 -55 -72.5t-96 -26.5zM202 84q42 0 55 37q5 16 5 140q0 123 -5 139q-13 37 -55 37q-43 0 -54 -37q-5 -16 -5 -139q0 -124 5 -140
q12 -37 54 -37zM234 595h-57q-11 0 -18 10l-90 125q-3 4 -1.5 7t6.5 3h81q10 0 16 -10l69 -125q5 -10 -6 -10z" />
    <glyph glyph-name="oacute.sc" horiz-adv-x="404" 
d="M202 -9q-55 0 -95 26.5t-55 72.5q-11 34 -11 171t11 170q15 47 55 73.5t95 26.5q56 0 96 -26.5t55 -73.5q11 -33 11 -170t-11 -171q-15 -46 -55 -72.5t-96 -26.5zM202 84q42 0 55 37q5 16 5 140q0 123 -5 139q-13 37 -55 37q-43 0 -54 -37q-5 -16 -5 -139q0 -124 5 -140
q12 -37 54 -37zM224 595h-57q-11 0 -6 10l69 125q6 10 16 10h81q5 0 6.5 -3t-1.5 -7l-90 -125q-7 -10 -18 -10z" />
    <glyph glyph-name="ocircumflex.sc" horiz-adv-x="404" 
d="M202 -9q-55 0 -95 26.5t-55 72.5q-11 34 -11 171t11 170q15 47 55 73.5t95 26.5q56 0 96 -26.5t55 -73.5q11 -33 11 -170t-11 -171q-15 -46 -55 -72.5t-96 -26.5zM202 84q42 0 55 37q5 16 5 140q0 123 -5 139q-13 37 -55 37q-43 0 -54 -37q-5 -16 -5 -139q0 -124 5 -140
q12 -37 54 -37zM330 595h-60q-10 0 -19 10l-48 60h-2l-47 -60q-9 -10 -19 -10h-60q-5 0 -6 3t2 7l88 125q7 10 17 10h52q11 0 18 -10l88 -125q3 -4 1.5 -7t-5.5 -3z" />
    <glyph glyph-name="otilde.sc" horiz-adv-x="404" 
d="M202 -9q-55 0 -95 26.5t-55 72.5q-11 34 -11 171t11 170q15 47 55 73.5t95 26.5q56 0 96 -26.5t55 -73.5q11 -33 11 -170t-11 -171q-15 -46 -55 -72.5t-96 -26.5zM202 84q42 0 55 37q5 16 5 140q0 123 -5 139q-13 37 -55 37q-43 0 -54 -37q-5 -16 -5 -139q0 -124 5 -140
q12 -37 54 -37zM247 607q-24 0 -52 18q-23 16 -38 16q-22 0 -48 -26q-4 -4 -8 -2.5t-4 6.5v61q0 9 10 19q24 24 51 24q25 0 51 -18q25 -16 39 -16q24 0 48 26q4 4 8 2.5t4 -6.5v-61q0 -9 -10 -19q-24 -24 -51 -24z" />
    <glyph glyph-name="odieresis.sc" horiz-adv-x="404" 
d="M202 -9q-55 0 -95 26.5t-55 72.5q-11 34 -11 171t11 170q15 47 55 73.5t95 26.5q56 0 96 -26.5t55 -73.5q11 -33 11 -170t-11 -171q-15 -46 -55 -72.5t-96 -26.5zM202 84q42 0 55 37q5 16 5 140q0 123 -5 139q-13 37 -55 37q-43 0 -54 -37q-5 -16 -5 -139q0 -124 5 -140
q12 -37 54 -37zM311 614h-65q-10 0 -10 10v86q0 10 10 10h65q10 0 10 -10v-86q0 -10 -10 -10zM159 614h-65q-10 0 -10 10v86q0 10 10 10h65q10 0 10 -10v-86q0 -10 -10 -10z" />
    <glyph glyph-name="omacron.sc" horiz-adv-x="404" 
d="M202 -9q-55 0 -95 26.5t-55 72.5q-11 34 -11 171t11 170q15 47 55 73.5t95 26.5q56 0 96 -26.5t55 -73.5q11 -33 11 -170t-11 -171q-15 -46 -55 -72.5t-96 -26.5zM202 84q42 0 55 37q5 16 5 140q0 123 -5 139q-13 37 -55 37q-43 0 -54 -37q-5 -16 -5 -139q0 -124 5 -140
q12 -37 54 -37zM306 628h-206q-10 0 -10 10v60q0 10 10 10h206q10 0 10 -10v-60q0 -10 -10 -10z" />
    <glyph glyph-name="obreve.sc" horiz-adv-x="404" 
d="M202 -9q-55 0 -95 26.5t-55 72.5q-11 34 -11 171t11 170q15 47 55 73.5t95 26.5q56 0 96 -26.5t55 -73.5q11 -33 11 -170t-11 -171q-15 -46 -55 -72.5t-96 -26.5zM202 84q42 0 55 37q5 16 5 140q0 123 -5 139q-13 37 -55 37q-43 0 -54 -37q-5 -16 -5 -139q0 -124 5 -140
q12 -37 54 -37zM202 596q-57 0 -89 33.5t-36 85.5q0 10 10 10h45q7 0 10 -10q16 -47 60 -47q45 0 61 47q3 10 10 10h45q10 0 10 -10q-4 -52 -36.5 -85.5t-89.5 -33.5z" />
    <glyph glyph-name="ohungarumlaut.sc" horiz-adv-x="404" 
d="M289 595h-50q-11 0 -6 10l60 125q4 10 16 10h68q11 0 5 -10l-75 -125q-6 -10 -18 -10zM157 595h-51q-11 0 -6 10l61 125q4 10 16 10h67q11 0 5 -10l-75 -125q-6 -10 -17 -10zM202 -9q-55 0 -95 26.5t-55 72.5q-11 34 -11 171t11 170q15 47 55 73.5t95 26.5q56 0 96 -26.5
t55 -73.5q11 -33 11 -170t-11 -171q-15 -46 -55 -72.5t-96 -26.5zM202 84q42 0 55 37q5 16 5 140q0 123 -5 139q-13 37 -55 37q-43 0 -54 -37q-5 -16 -5 -139q0 -124 5 -140q12 -37 54 -37z" />
    <glyph glyph-name="oslash.sc" horiz-adv-x="404" 
d="M63 -30h-23q-11 0 -6 10l37 71q-14 21 -19 39q-11 34 -11 171t11 170q15 47 55 73.5t95 26.5q61 0 103 -31l22 42q6 10 14 10h23q11 0 6 -10l-37 -71q13 -20 20 -40q11 -33 11 -170t-11 -171q-15 -46 -55 -72.5t-96 -26.5q-62 0 -103 32l-22 -43q-6 -10 -14 -10zM143 261
v-73l111 218q-15 31 -52 31q-43 0 -54 -37q-5 -16 -5 -139zM202 84q42 0 55 37q5 16 5 140v73l-113 -218q13 -32 53 -32z" />
    <glyph glyph-name="oslashacute.sc" horiz-adv-x="404" 
d="M224 595h-57q-11 0 -6 10l69 125q6 10 16 10h81q5 0 6.5 -3t-1.5 -7l-90 -125q-7 -10 -18 -10zM63 -30h-23q-11 0 -6 10l37 71q-14 21 -19 39q-11 34 -11 171t11 170q15 47 55 73.5t95 26.5q61 0 103 -31l22 42q6 10 14 10h23q11 0 6 -10l-37 -71q13 -20 20 -40
q11 -33 11 -170t-11 -171q-15 -46 -55 -72.5t-96 -26.5q-62 0 -103 32l-22 -43q-6 -10 -14 -10zM143 261v-73l111 218q-15 31 -52 31q-43 0 -54 -37q-5 -16 -5 -139zM202 84q42 0 55 37q5 16 5 140v73l-113 -218q13 -32 53 -32z" />
    <glyph glyph-name="oe.sc" horiz-adv-x="571" 
d="M534 0h-262q-10 0 -10 10v18h-1q-19 -37 -82 -37q-97 0 -127 93q-11 33 -11 177q0 143 11 177q30 93 127 93q63 0 82 -37h1v18q0 10 10 10h262q10 0 10 -10v-74q0 -10 -10 -10h-164q-6 0 -6 -6v-106q0 -6 6 -6h142q10 0 10 -10v-74q0 -10 -10 -10h-142q-6 0 -6 -6v-111
q0 -6 6 -6h164q10 0 10 -10v-73q0 -10 -10 -10zM202 84q42 0 55 37q5 16 5 140q0 123 -5 139q-13 37 -55 37q-43 0 -54 -37q-5 -16 -5 -139q0 -124 5 -140q12 -37 54 -37z" />
    <glyph glyph-name="racute.sc" horiz-adv-x="414" 
d="M213 595h-57q-11 0 -6 10l69 125q6 10 16 10h81q5 0 6.5 -3t-1.5 -7l-90 -125q-7 -10 -18 -10zM381 0h-84q-11 0 -14 10l-72 192h-7h-43q-6 0 -6 -6v-186q0 -10 -10 -10h-82q-10 0 -10 10v502q0 10 10 10h141q81 0 125.5 -41t44.5 -119q0 -100 -71 -139l85 -213
q3 -10 -7 -10zM193 293q43 0 61 16t18 53q0 36 -18 52t-61 16h-32q-6 0 -6 -6v-125q0 -6 6 -6h32z" />
    <glyph glyph-name="rcaron.sc" horiz-adv-x="414" 
d="M215 595h-52q-10 0 -17 10l-88 125q-3 4 -1.5 7t5.5 3h60q10 0 19 -10l47 -60h2l48 60q9 10 19 10h60q5 0 6 -3t-2 -7l-88 -125q-7 -10 -18 -10zM381 0h-84q-11 0 -14 10l-72 192h-7h-43q-6 0 -6 -6v-186q0 -10 -10 -10h-82q-10 0 -10 10v502q0 10 10 10h141
q81 0 125.5 -41t44.5 -119q0 -100 -71 -139l85 -213q3 -10 -7 -10zM193 293q43 0 61 16t18 53q0 36 -18 52t-61 16h-32q-6 0 -6 -6v-125q0 -6 6 -6h32z" />
    <glyph glyph-name="rcommaaccent.sc" horiz-adv-x="414" 
d="M177 -221q-8 0 -8 10v147q0 10 10 10h70q10 0 10 -10v-55q0 -13 -8 -22l-61 -73q-6 -7 -13 -7zM381 0h-84q-11 0 -14 10l-72 192h-7h-43q-6 0 -6 -6v-186q0 -10 -10 -10h-82q-10 0 -10 10v502q0 10 10 10h141q81 0 125.5 -41t44.5 -119q0 -100 -71 -139l85 -213
q3 -10 -7 -10zM193 293q43 0 61 16t18 53q0 36 -18 52t-61 16h-32q-6 0 -6 -6v-125q0 -6 6 -6h32z" />
    <glyph glyph-name="sacute.sc" horiz-adv-x="377" 
d="M215 595h-57q-11 0 -6 10l69 125q6 10 16 10h81q5 0 6.5 -3t-1.5 -7l-90 -125q-7 -10 -18 -10zM195 -9q-153 0 -164 138q-1 10 8 12l78 13q9 2 11 -8q9 -66 64 -66q59 0 59 66q0 28 -14 44t-50 28l-38 12q-61 20 -86 53.5t-25 97.5q0 70 41.5 110t111.5 40q71 0 110 -35
t47 -98q1 -10 -8 -12l-75 -10q-9 -2 -11 8q-10 57 -59 57q-57 0 -57 -58q0 -25 12.5 -40t46.5 -26l38 -12q65 -20 90.5 -55.5t25.5 -102.5q0 -73 -40 -114.5t-116 -41.5z" />
    <glyph glyph-name="scircumflex.sc" horiz-adv-x="377" 
d="M195 -9q-153 0 -164 138q-1 10 8 12l78 13q9 2 11 -8q9 -66 64 -66q59 0 59 66q0 28 -14 44t-50 28l-38 12q-61 20 -86 53.5t-25 97.5q0 70 41.5 110t111.5 40q71 0 110 -35t47 -98q1 -10 -8 -12l-75 -10q-9 -2 -11 8q-10 57 -59 57q-57 0 -57 -58q0 -25 12.5 -40
t46.5 -26l38 -12q65 -20 90.5 -55.5t25.5 -102.5q0 -73 -40 -114.5t-116 -41.5zM317 595h-60q-10 0 -19 10l-48 60h-2l-47 -60q-9 -10 -19 -10h-60q-4 0 -5.5 3t1.5 7l88 125q7 10 17 10h52q11 0 18 -10l88 -125q3 -4 2 -7t-6 -3z" />
    <glyph glyph-name="scaron.sc" horiz-adv-x="377" 
d="M215 595h-52q-10 0 -17 10l-88 125q-3 4 -1.5 7t5.5 3h60q10 0 19 -10l47 -60h2l48 60q9 10 19 10h60q5 0 6 -3t-2 -7l-88 -125q-7 -10 -18 -10zM195 -9q-153 0 -164 138q-1 10 8 12l78 13q9 2 11 -8q9 -66 64 -66q59 0 59 66q0 28 -14 44t-50 28l-38 12q-61 20 -86 53.5
t-25 97.5q0 70 41.5 110t111.5 40q71 0 110 -35t47 -98q1 -10 -8 -12l-75 -10q-9 -2 -11 8q-10 57 -59 57q-57 0 -57 -58q0 -25 12.5 -40t46.5 -26l38 -12q65 -20 90.5 -55.5t25.5 -102.5q0 -73 -40 -114.5t-116 -41.5z" />
    <glyph glyph-name="scedilla.sc" horiz-adv-x="377" 
d="M104 -145l58 138q-122 15 -131 136q-1 10 8 12l78 13q9 2 11 -8q9 -66 64 -66q59 0 59 66q0 28 -14 44t-50 28l-38 12q-61 20 -86 53.5t-25 97.5q0 70 41.5 110t111.5 40q71 0 110 -35t47 -98q1 -10 -8 -12l-75 -10q-9 -2 -11 8q-10 57 -59 57q-57 0 -57 -58
q0 -25 12.5 -40t46.5 -26l38 -12q65 -20 90.5 -55.5t25.5 -102.5q0 -61 -28 -100t-81 -51l-49 -141q-4 -10 -16 -10h-66q-10 0 -7 10z" />
    <glyph glyph-name="scommaaccent.sc" horiz-adv-x="377" 
d="M152 -221q-8 0 -8 10v147q0 10 10 10h70q10 0 10 -10v-55q0 -13 -8 -22l-61 -73q-6 -7 -13 -7zM195 -9q-153 0 -164 138q-1 10 8 12l78 13q9 2 11 -8q9 -66 64 -66q59 0 59 66q0 28 -14 44t-50 28l-38 12q-61 20 -86 53.5t-25 97.5q0 70 41.5 110t111.5 40q71 0 110 -35
t47 -98q1 -10 -8 -12l-75 -10q-9 -2 -11 8q-10 57 -59 57q-57 0 -57 -58q0 -25 12.5 -40t46.5 -26l38 -12q65 -20 90.5 -55.5t25.5 -102.5q0 -73 -40 -114.5t-116 -41.5z" />
    <glyph glyph-name="tcaron.sc" horiz-adv-x="354" 
d="M218 0h-82q-10 0 -10 10v412q0 6 -6 6h-96q-10 0 -10 10v74q0 10 10 10h306q10 0 10 -10v-74q0 -10 -10 -10h-96q-6 0 -6 -6v-412q0 -10 -10 -10zM203 595h-52q-10 0 -17 10l-88 125q-3 4 -1.5 7t5.5 3h60q10 0 19 -10l47 -60h2l48 60q9 10 19 10h60q5 0 6 -3t-2 -7
l-88 -125q-7 -10 -18 -10z" />
    <glyph glyph-name="tcommaaccent.sc" horiz-adv-x="354" 
d="M218 0h-82q-10 0 -10 10v412q0 6 -6 6h-96q-10 0 -10 10v74q0 10 10 10h306q10 0 10 -10v-74q0 -10 -10 -10h-96q-6 0 -6 -6v-412q0 -10 -10 -10zM140 -221q-8 0 -8 10v147q0 10 10 10h70q10 0 10 -10v-55q0 -13 -8 -22l-61 -73q-6 -7 -13 -7z" />
    <glyph glyph-name="tbar.sc" horiz-adv-x="354" 
d="M218 0h-82q-10 0 -10 10v251q0 6 -6 6h-42q-10 0 -10 10v57q0 10 10 10h42q6 0 6 6v72q0 6 -6 6h-96q-10 0 -10 10v74q0 10 10 10h306q10 0 10 -10v-74q0 -10 -10 -10h-96q-6 0 -6 -6v-72q0 -6 6 -6h42q10 0 10 -10v-57q0 -10 -10 -10h-42q-6 0 -6 -6v-251q0 -10 -10 -10
z" />
    <glyph glyph-name="thorn.sc" horiz-adv-x="400" 
d="M144 0h-82q-10 0 -10 10v502q0 10 10 10h82q10 0 10 -10v-68q0 -6 6 -6h43q81 0 125.5 -41.5t44.5 -121.5q0 -79 -44.5 -120.5t-125.5 -41.5h-43q-6 0 -6 -6v-97q0 -10 -10 -10zM192 204q42 0 60.5 16.5t18.5 54.5t-18 54.5t-61 16.5h-32q-6 0 -6 -6v-130q0 -6 6 -6h32z
" />
    <glyph glyph-name="ugrave.sc" horiz-adv-x="421" 
d="M246 595h-57q-11 0 -18 10l-90 125q-3 4 -1.5 7t6.5 3h81q10 0 16 -10l69 -125q5 -10 -6 -10zM210 -9q-74 0 -116.5 42.5t-42.5 120.5v358q0 10 10 10h82q10 0 10 -10v-358q0 -70 57 -70q58 0 58 70v358q0 10 10 10h82q10 0 10 -10v-358q0 -78 -42.5 -120.5t-117.5 -42.5
z" />
    <glyph glyph-name="uacute.sc" horiz-adv-x="421" 
d="M236 595h-57q-11 0 -6 10l69 125q6 10 16 10h81q5 0 6.5 -3t-1.5 -7l-90 -125q-7 -10 -18 -10zM210 -9q-74 0 -116.5 42.5t-42.5 120.5v358q0 10 10 10h82q10 0 10 -10v-358q0 -70 57 -70q58 0 58 70v358q0 10 10 10h82q10 0 10 -10v-358q0 -78 -42.5 -120.5
t-117.5 -42.5z" />
    <glyph glyph-name="ucircumflex.sc" horiz-adv-x="421" 
d="M210 -9q-74 0 -116.5 42.5t-42.5 120.5v358q0 10 10 10h82q10 0 10 -10v-358q0 -70 57 -70q58 0 58 70v358q0 10 10 10h82q10 0 10 -10v-358q0 -78 -42.5 -120.5t-117.5 -42.5zM337 595h-60q-10 0 -19 10l-48 60h-2l-47 -60q-9 -10 -19 -10h-60q-4 0 -5.5 3t1.5 7l88 125
q7 10 17 10h52q11 0 18 -10l88 -125q3 -4 2 -7t-6 -3z" />
    <glyph glyph-name="utilde.sc" horiz-adv-x="421" 
d="M254 607q-24 0 -52 18q-23 16 -38 16q-22 0 -48 -26q-4 -4 -8 -2.5t-4 6.5v61q0 9 10 19q24 24 51 24q25 0 51 -18q25 -16 39 -16q24 0 48 26q4 4 8 2.5t4 -6.5v-61q0 -9 -10 -19q-24 -24 -51 -24zM210 -9q-74 0 -116.5 42.5t-42.5 120.5v358q0 10 10 10h82q10 0 10 -10
v-358q0 -70 57 -70q58 0 58 70v358q0 10 10 10h82q10 0 10 -10v-358q0 -78 -42.5 -120.5t-117.5 -42.5z" />
    <glyph glyph-name="udieresis.sc" horiz-adv-x="421" 
d="M318 614h-65q-10 0 -10 10v86q0 10 10 10h65q10 0 10 -10v-86q0 -10 -10 -10zM166 614h-65q-10 0 -10 10v86q0 10 10 10h65q10 0 10 -10v-86q0 -10 -10 -10zM210 -9q-74 0 -116.5 42.5t-42.5 120.5v358q0 10 10 10h82q10 0 10 -10v-358q0 -70 57 -70q58 0 58 70v358
q0 10 10 10h82q10 0 10 -10v-358q0 -78 -42.5 -120.5t-117.5 -42.5z" />
    <glyph glyph-name="umacron.sc" horiz-adv-x="421" 
d="M312 628h-206q-10 0 -10 10v60q0 10 10 10h206q10 0 10 -10v-60q0 -10 -10 -10zM210 -9q-74 0 -116.5 42.5t-42.5 120.5v358q0 10 10 10h82q10 0 10 -10v-358q0 -70 57 -70q58 0 58 70v358q0 10 10 10h82q10 0 10 -10v-358q0 -78 -42.5 -120.5t-117.5 -42.5z" />
    <glyph glyph-name="ubreve.sc" horiz-adv-x="421" 
d="M209 596q-57 0 -89 33.5t-36 85.5q0 10 10 10h45q7 0 10 -10q16 -47 60 -47q45 0 61 47q3 10 10 10h45q10 0 10 -10q-4 -52 -36.5 -85.5t-89.5 -33.5zM210 -9q-74 0 -116.5 42.5t-42.5 120.5v358q0 10 10 10h82q10 0 10 -10v-358q0 -70 57 -70q58 0 58 70v358q0 10 10 10
h82q10 0 10 -10v-358q0 -78 -42.5 -120.5t-117.5 -42.5z" />
    <glyph glyph-name="uring.sc" horiz-adv-x="421" 
d="M209 579q-38 0 -64 26t-26 64q0 39 26 65t64 26q39 0 65 -26t26 -65q0 -38 -26 -64t-65 -26zM209 622q20 0 33 13.5t13 33.5q0 21 -13 34.5t-33 13.5t-32.5 -13.5t-12.5 -34.5q0 -20 13 -33.5t32 -13.5zM210 -9q-74 0 -116.5 42.5t-42.5 120.5v358q0 10 10 10h82
q10 0 10 -10v-358q0 -70 57 -70q58 0 58 70v358q0 10 10 10h82q10 0 10 -10v-358q0 -78 -42.5 -120.5t-117.5 -42.5z" />
    </font>
</defs>
</svg>
